<svg xmlns="http://www.w3.org/2000/svg" xmlns:xlink="http://www.w3.org/1999/xlink" width="153.48" height="93.068" viewBox="0 0 153.48 93.068"><defs><linearGradient id="a" x1="-0.003" y1="0.146" x2="0.815" y2="0.626" gradientUnits="objectBoundingBox"><stop offset="0.647" stop-color="#fff"/><stop offset="0.834" stop-color="#ac6300"/><stop offset="0.852" stop-color="#905300"/><stop offset="0.888" stop-color="#5d3500"/><stop offset="0.922" stop-color="#341e00"/><stop offset="0.954" stop-color="#170d00"/><stop offset="0.98" stop-color="#060300"/><stop offset="1"/></linearGradient><linearGradient id="b" x1="0.171" y1="0.403" x2="1.424" y2="0.745" xlink:href="#a"/></defs><path d="M858.628,11.617l-56.122,89.488H777.578L757.251,11.617H783.2l12.783,58.167,36.563-58.167Z" transform="translate(-757.251 -9.826)" fill="url(#a)" style="mix-blend-mode:screen;isolation:isolate"/><path d="M818.172,100.8a54.325,54.325,0,0,1-16.234-6.9l9.97-18.921a55.265,55.265,0,0,0,14.448,6.584A54.518,54.518,0,0,0,841.7,83.8q7.287,0,11.313-2.11t4.029-5.816q0-3.194-3.644-4.986a66.513,66.513,0,0,0-11.314-3.835,118.09,118.09,0,0,1-14.446-4.667,25.74,25.74,0,0,1-9.907-7.222q-4.156-4.859-4.155-12.785a27.85,27.85,0,0,1,5.243-16.811q5.239-7.22,14.956-11.186t22.755-3.963a77.079,77.079,0,0,1,17.9,1.981,48.686,48.686,0,0,1,14.318,5.689L879.536,36.88a42.216,42.216,0,0,0-11.569-5.051A49.154,49.154,0,0,0,854.991,30.1q-7.545,0-11.825,2.429T838.883,38.8q0,3.328,3.708,5.115A68.02,68.02,0,0,0,854.1,47.747a111,111,0,0,1,14.382,4.475,25.375,25.375,0,0,1,9.78,7.031q4.089,4.731,4.09,12.4a27.441,27.441,0,0,1-5.3,16.683q-5.307,7.225-15.085,11.188a60.143,60.143,0,0,1-22.693,3.961A80.808,80.808,0,0,1,818.172,100.8Z" transform="translate(-735.262 -10.417)" fill="url(#b)" style="mix-blend-mode:screen;isolation:isolate"/></svg>