<svg xmlns="http://www.w3.org/2000/svg" width="42.333" height="42.338" viewBox="0 0 42.333 42.338">
  <g id="Home_icon" transform="translate(-93 -1232.972)">
    <path id="Path_1164" data-name="Path 1164" d="M102.4,1246.044s11.814,18.213,24.612,0c-.246-.246-12.06-13.044-12.06-13.044Z" transform="translate(-0.661 0.002)" fill="#f9c08f"/>
    <path id="home-run" d="M41.7,18.414l0,0L24.423,1.141a3.9,3.9,0,0,0-5.512,0L1.649,18.4l-.017.018a3.9,3.9,0,0,0,2.593,6.64c.04,0,.08.006.12.006h.688V37.775A4.567,4.567,0,0,0,9.6,42.337h6.757a1.24,1.24,0,0,0,1.24-1.24V31.132a2.084,2.084,0,0,1,2.081-2.081h3.985a2.083,2.083,0,0,1,2.081,2.081V41.1a1.24,1.24,0,0,0,1.24,1.24h6.757A4.567,4.567,0,0,0,38.3,37.775V25.066h.638A3.9,3.9,0,0,0,41.7,18.414ZM39.94,22.17a1.408,1.408,0,0,1-1,.415H37.059a1.24,1.24,0,0,0-1.24,1.24v13.95a2.083,2.083,0,0,1-2.081,2.081H28.221V31.132a4.567,4.567,0,0,0-4.562-4.562H19.674a4.567,4.567,0,0,0-4.562,4.562v8.724H9.6a2.084,2.084,0,0,1-2.081-2.081V23.826a1.24,1.24,0,0,0-1.24-1.24H4.428l-.058,0a1.415,1.415,0,0,1-.976-2.417h0L20.665,2.9a1.416,1.416,0,0,1,2,0L39.934,20.161l.008.008a1.42,1.42,0,0,1,0,2Zm0,0" transform="translate(92.5 1232.973)" fill="#f38b32"/>
  </g>
</svg>
