<svg xmlns="http://www.w3.org/2000/svg" width="44.883" height="45.58" viewBox="0 0 44.883 45.58">
  <g id="profile_active" transform="translate(-18.851 3.58)">
    <path id="Path_2742" data-name="Path 2742" d="M102.4,1246.044s11.814,18.213,24.612,0c-.246-.246-12.06-13.044-12.06-13.044Z" transform="matrix(0.719, -0.695, 0.695, 0.719, -911.323, -802.296)" fill="#f9c08f"/>
    <path id="Path_1167" data-name="Path 1167" d="M108.189,169.9H130.18a1.23,1.23,0,0,0,0-2.461H108.189a1.23,1.23,0,1,0,0,2.461Z" transform="translate(-74.318 -153.704)" fill="#f38b32"/>
    <path id="Path_1166" data-name="Path 1166" d="M59.018,4.408H50.388a5.662,5.662,0,0,0-11.042,0H30.717A4.715,4.715,0,0,0,26,9.111V37.3A4.715,4.715,0,0,0,30.717,42H54.979a1.23,1.23,0,0,0,.868-.359l7.525-7.495a1.23,1.23,0,0,0,.362-.872V9.111a4.715,4.715,0,0,0-4.717-4.7ZM44.867,2.461a3.178,3.178,0,1,1-3.2,3.178A3.191,3.191,0,0,1,44.867,2.461ZM28.461,37.3V9.111a2.251,2.251,0,0,1,2.256-2.242h8.629a5.662,5.662,0,0,0,11.042,0h8.629a2.251,2.251,0,0,1,2.256,2.242V32.044H54.979a1.23,1.23,0,0,0-1.23,1.23v6.264H30.717A2.251,2.251,0,0,1,28.461,37.3Zm31.064-2.792-3.316,3.3v-3.3Z" fill="#f38b32"/>
    <path id="Path_1168" data-name="Path 1168" d="M108.189,229.9h19.53a1.23,1.23,0,1,0,0-2.461h-19.53a1.23,1.23,0,1,0,0,2.461Z" transform="translate(-74.318 -208.782)" fill="#f38b32"/>
    <path id="Path_1169" data-name="Path 1169" d="M108.189,289.9H130.18a1.23,1.23,0,1,0,0-2.461H108.189a1.23,1.23,0,1,0,0,2.461Z" transform="translate(-74.318 -263.86)" fill="#f38b32"/>
    <path id="Path_1170" data-name="Path 1170" d="M118.05,347.439H107.821c-.476,0-.862.551-.862,1.23s.386,1.23.862,1.23H118.05c.476,0,.862-.551.862-1.23S118.526,347.439,118.05,347.439Z" transform="translate(-74.318 -318.938)" fill="#f38b32"/>
  </g>
</svg>
