<svg xmlns="http://www.w3.org/2000/svg" width="46.667" height="46.667" viewBox="0 0 46.667 46.667">
  <g id="settings_active" transform="translate(0 0)">
    <path id="Path_1299" data-name="Path 1299" d="M43.279,17.373,41,16.987c-.2-.564-.432-1.117-.685-1.655l1.34-1.875A4.059,4.059,0,0,0,41.218,8.2L38.484,5.466a4.065,4.065,0,0,0-5.247-.44l-1.882,1.34a18.755,18.755,0,0,0-1.767-.728l-.376-2.23A4.072,4.072,0,0,0,25.182,0H21.319a4.07,4.07,0,0,0-4.027,3.4l-.4,2.317q-.838.306-1.649.695L13.4,5.085a4.079,4.079,0,0,0-5.265.439L5.393,8.256a4.072,4.072,0,0,0-.441,5.256l1.362,1.913c-.251.54-.477,1.1-.676,1.663l-2.23.376A4.072,4.072,0,0,0,0,21.493v3.864a4.071,4.071,0,0,0,3.4,4.028l2.317.4c.2.559.436,1.11.695,1.649L5.09,33.273a4.059,4.059,0,0,0,.441,5.256l2.735,2.735a4.066,4.066,0,0,0,5.247.441l1.913-1.362c.5.234,1.024.448,1.559.64l.379,2.275a4.072,4.072,0,0,0,4.028,3.408h3.873a4.071,4.071,0,0,0,4.028-3.405l.386-2.276c.564-.2,1.117-.432,1.655-.685L33.2,41.636a4.078,4.078,0,0,0,5.262-.436L41.2,38.465a4.072,4.072,0,0,0,.441-5.256L40.3,31.325c.26-.55.49-1.1.687-1.653l2.273-.379a4.072,4.072,0,0,0,3.408-4.028V21.409a4.031,4.031,0,0,0-3.387-4.036Zm.653,7.892A1.346,1.346,0,0,1,42.808,26.6l-3.014.5a1.474,1.474,0,0,0-1.172,1.024,15.987,15.987,0,0,1-1.092,2.635,1.473,1.473,0,0,0,.108,1.543l1.776,2.494a1.346,1.346,0,0,1-.147,1.737l-2.735,2.735a1.343,1.343,0,0,1-1.735.148l-2.484-1.775a1.473,1.473,0,0,0-1.549-.108,16.1,16.1,0,0,1-2.638,1.092,1.474,1.474,0,0,0-1.017,1.165L26.6,42.806a1.346,1.346,0,0,1-1.332,1.126H21.392a1.345,1.345,0,0,1-1.331-1.124l-.5-3.014a1.474,1.474,0,0,0-1.015-1.169,16,16,0,0,1-2.554-1.05,1.475,1.475,0,0,0-1.541.108l-2.528,1.8a1.292,1.292,0,0,1-.77.247,1.32,1.32,0,0,1-.951-.4l-2.74-2.739a1.335,1.335,0,0,1-.146-1.727l1.766-2.456a1.472,1.472,0,0,0,.105-1.562,15.635,15.635,0,0,1-1.106-2.625,1.477,1.477,0,0,0-1.162-1.012L3.86,26.688a1.346,1.346,0,0,1-1.126-1.332V21.493a1.346,1.346,0,0,1,1.127-1.332l2.977-.5a1.473,1.473,0,0,0,1.17-1.028,15.763,15.763,0,0,1,1.074-2.641,1.475,1.475,0,0,0-.108-1.541l-1.8-2.522a1.345,1.345,0,0,1,.145-1.736l2.744-2.735.01-.01a1.309,1.309,0,0,1,.943-.389,1.324,1.324,0,0,1,.78.247l2.467,1.776a1.471,1.471,0,0,0,1.562.1,15.63,15.63,0,0,1,2.624-1.106,1.477,1.477,0,0,0,1.013-1.163l.521-3.056a1.346,1.346,0,0,1,1.332-1.126h3.864a1.346,1.346,0,0,1,1.332,1.127l.5,2.978a1.473,1.473,0,0,0,1.03,1.17,15.913,15.913,0,0,1,2.737,1.127,1.475,1.475,0,0,0,1.545-.106l2.5-1.781A1.291,1.291,0,0,1,35.6,7a1.321,1.321,0,0,1,.951.4l2.739,2.739a1.336,1.336,0,0,1,.143,1.73l-1.777,2.486A1.475,1.475,0,0,0,37.55,15.9a16.093,16.093,0,0,1,1.093,2.639,1.474,1.474,0,0,0,1.165,1.016l3.015.512h0a1.311,1.311,0,0,1,1.107,1.312Zm0,0" transform="translate(0)" fill="#f38b32"/>
    <path id="Path_1300" data-name="Path 1300" d="M165.526,156.453a9.073,9.073,0,1,0,9.073,9.073A9.084,9.084,0,0,0,165.526,156.453Zm0,15.412a6.339,6.339,0,1,1,6.339-6.339A6.346,6.346,0,0,1,165.526,171.865Zm0,0" transform="translate(-142.193 -142.193)" fill="#8d3d3d"/>
    <circle id="Ellipse_125" data-name="Ellipse 125" cx="9.5" cy="9.5" r="9.5" transform="translate(14 14)" fill="#f9c08f"/>
  </g>
</svg>
