<svg xmlns="http://www.w3.org/2000/svg" width="45.511" height="42.649" viewBox="0 0 45.511 42.649">
  <g id="store_active" transform="translate(0 2.649)">
    <path id="Path_2742" data-name="Path 2742" d="M102.4,1246.044s11.814,18.213,24.612,0c-.246-.246-12.06-13.044-12.06-13.044Z" transform="matrix(0.643, -0.766, 0.766, 0.643, -1006.305, -697.909)" fill="#f9c08f"/>
    <path id="Path_1295" data-name="Path 1295" d="M14.663,26.667H38.844a1.334,1.334,0,0,0,1.282-.967L45.46,7.033a1.333,1.333,0,0,0-1.282-1.7H11.588l-.953-4.289A1.334,1.334,0,0,0,9.333,0h-8a1.333,1.333,0,1,0,0,2.667H8.264L13.078,24.33A4,4,0,0,0,14.667,32H38.844a1.333,1.333,0,1,0,0-2.667H14.667a1.333,1.333,0,0,1,0-2.666ZM42.41,8,37.838,24h-22.1L12.18,8Zm0,0" transform="translate(0 0)" fill="#f38b32"/>
    <path id="Path_1296" data-name="Path 1296" d="M150,364a4,4,0,1,0,4-4A4,4,0,0,0,150,364Zm4-1.333A1.333,1.333,0,1,1,152.667,364,1.335,1.335,0,0,1,154,362.667Zm0,0" transform="translate(-136.667 -328)" fill="#f38b32"/>
    <path id="Path_1297" data-name="Path 1297" d="M362,364a4,4,0,1,0,4-4A4,4,0,0,0,362,364Zm4-1.333A1.333,1.333,0,1,1,364.667,364,1.335,1.335,0,0,1,366,362.667Zm0,0" transform="translate(-329.822 -328)" fill="#f38b32"/>
  </g>
</svg>
