<svg xmlns="http://www.w3.org/2000/svg" width="45.511" height="40" viewBox="0 0 45.511 40"><g transform="translate(0 0)"><path d="M14.663,26.667H38.844a1.334,1.334,0,0,0,1.282-.967L45.46,7.033a1.333,1.333,0,0,0-1.282-1.7H11.588l-.953-4.289A1.334,1.334,0,0,0,9.333,0h-8a1.333,1.333,0,1,0,0,2.667H8.264L13.078,24.33A4,4,0,0,0,14.667,32H38.844a1.333,1.333,0,1,0,0-2.667H14.667a1.333,1.333,0,0,1,0-2.666ZM42.41,8,37.838,24h-22.1L12.18,8Zm0,0" transform="translate(0 0)" fill="#77778e"/><path d="M150,364a4,4,0,1,0,4-4A4,4,0,0,0,150,364Zm4-1.333A1.333,1.333,0,1,1,152.667,364,1.335,1.335,0,0,1,154,362.667Zm0,0" transform="translate(-136.667 -328)" fill="#77778e"/><path d="M362,364a4,4,0,1,0,4-4A4,4,0,0,0,362,364Zm4-1.333A1.333,1.333,0,1,1,364.667,364,1.335,1.335,0,0,1,366,362.667Zm0,0" transform="translate(-329.822 -328)" fill="#77778e"/></g></svg>