<svg xmlns="http://www.w3.org/2000/svg" width="42.62" height="39.424" viewBox="0 0 42.62 39.424">
  <g id="wallet" transform="translate(0 -19.098)">
    <path id="Path_1298" data-name="Path 1298" d="M38.721,28.146h-.53V23a3.9,3.9,0,0,0-3.9-3.9H6.021A6.026,6.026,0,0,0,.032,24.527C-.014,24.743,0,22.826,0,52.5a6.025,6.025,0,0,0,6.018,6.018h32.7a3.9,3.9,0,0,0,3.9-3.9V32.044a3.9,3.9,0,0,0-3.9-3.9Zm-32.7-6.37H34.293A1.222,1.222,0,0,1,35.514,23v5.15H6.021a3.345,3.345,0,0,1-3.337-3.185A3.345,3.345,0,0,1,6.021,21.776Zm32.7,34.069H6.021A3.345,3.345,0,0,1,2.68,52.5V29.809a5.984,5.984,0,0,0,3.341,1.015h32.7a1.222,1.222,0,0,1,1.221,1.221v5.427H29.867a6.222,6.222,0,1,0,0,12.445H39.942v4.708a1.222,1.222,0,0,1-1.221,1.221Zm1.221-8.606H29.867a3.545,3.545,0,1,1,0-7.09H39.942Z" transform="translate(0)" fill="#c8c8c8"/>
    <circle id="Ellipse_79" data-name="Ellipse 79" cx="1.94" cy="1.94" r="1.94" transform="translate(28.421 41.753)" fill="#c8c8c8"/>
  </g>
</svg>
