<svg xmlns="http://www.w3.org/2000/svg" xmlns:xlink="http://www.w3.org/1999/xlink" width="218.497" height="218.496" viewBox="0 0 218.497 218.496"><defs><filter id="a" x="0" y="0" width="218.497" height="218.496" filterUnits="userSpaceOnUse"><feOffset dy="18" input="SourceAlpha"/><feGaussianBlur stdDeviation="12.5" result="b"/><feFlood flood-opacity="0.161"/><feComposite operator="in" in2="b"/><feComposite in="SourceGraphic"/></filter></defs><g transform="translate(-82.364 -216.743)"><path d="M191.308,241.487a71.749,71.749,0,1,0,72.053,71.443A71.749,71.749,0,0,0,191.308,241.487Z" fill="#ffa81d"/><g transform="matrix(1, 0, 0, 1, 82.36, 216.74)" filter="url(#a)"><path d="M261.853,293.308a70.8,70.8,0,0,0-5.336-15.938,72.158,72.158,0,0,0-26.546-30.027q-1.566-.991-3.19-1.9a71.169,71.169,0,0,0-16.037-6.616c-1.9-.525-3.83-.973-5.784-1.335-1.961-.377-3.958-.668-5.976-.867a70.275,70.275,0,0,0-7.674-.377,72.592,72.592,0,0,0-8,.476q-2.964.342-5.855.924a71.8,71.8,0,0,0-56.19,56.19q-.586,2.887-.916,5.847a70.4,70.4,0,0,0-.484,8.612c.015,2.388.135,4.747.377,7.077q.309,3.027.867,5.969t1.343,5.776v.007a70.914,70.914,0,0,0,6.615,16.03q.916,1.62,1.9,3.191A72.144,72.144,0,0,0,161,372.888a70.569,70.569,0,0,0,15.93,5.344,72.345,72.345,0,0,0,23.8.931,70.511,70.511,0,0,0,10.815-2.232,71.9,71.9,0,0,0,49.013-49.013,70.844,70.844,0,0,0,2.231-10.814,72.269,72.269,0,0,0-.931-23.8Z" transform="translate(-82.36 -216.74)" fill="#ffd522"/></g><path d="M128.032,274.85a71.963,71.963,0,0,1,43.646-35.679,71.2,71.2,0,0,1,10.821-2.223,72.351,72.351,0,0,1,8.8-.582c1.632-.01,3.244.038,4.847.153-8.12,3.9-13.788,11.116-3.044,24.275,21.022,25.754-47.329,34.829-47.329,34.829S143.3,267.941,128.032,274.85Z" fill="#ffef33"/><ellipse cx="18.341" cy="9.155" rx="18.341" ry="9.155" transform="matrix(0.829, -0.559, 0.559, 0.829, 135.529, 259.009)" fill="#fcfdaf"/><path d="M162.574,350.4c16.195-13.891,74.4-28.36,74.4-28.36s20.6,3.464,26.382-14.224a71.385,71.385,0,0,1-.487,8.607q-.328,2.963-.916,5.849a71.783,71.783,0,0,1-56.194,56.185c-1.918.391-3.874.7-5.849.926a71.768,71.768,0,0,1-8.006.477,70.181,70.181,0,0,1-7.672-.373c-2.014-.2-4.018-.5-5.974-.868s-3.883-.811-5.782-1.336a71.362,71.362,0,0,1-16.041-6.612c-1.078-.611-2.147-1.25-3.187-1.909A72.283,72.283,0,0,1,132.9,349.38S144.256,357.465,162.574,350.4Z" fill="#ffb311"/><path d="M245.076,307.994a53.453,53.453,0,0,1-49.88,53.335c-1.181.078-2.385.122-3.588.122a53.463,53.463,0,0,1,0-106.926c1.2,0,2.407.045,3.588.122A53.464,53.464,0,0,1,245.076,307.994Z" fill="#d86c0b"/><path d="M242.7,307.995c0,.909-.021,1.819-.078,2.721a51.067,51.067,0,0,1-47.585,48.239l-.7.042c-.9.05-1.812.079-2.728.079a51.017,51.017,0,0,1-50.889-46.7c-.128-1.443-.192-2.9-.192-4.377,0-1.357.05-2.693.156-4.022a50.331,50.331,0,0,1,1.3-8.143,51.164,51.164,0,0,1,37.467-37.467,50.321,50.321,0,0,1,8.142-1.3c1.322-.107,2.665-.156,4.015-.156,1.151,0,2.3.042,3.425.113.319.022.639.043.959.079a50.656,50.656,0,0,1,21.124,6.622,50.984,50.984,0,0,1,25.58,44.274Z" fill="#ffa70b"/><path d="M187.594,257.063l-46.91,46.91a50.331,50.331,0,0,1,1.3-8.143l37.467-37.467A50.321,50.321,0,0,1,187.594,257.063Z" fill="#ffbe16"/><path d="M217.117,263.721,147.335,333.5a50.688,50.688,0,0,1-6.615-21.131L195.993,257.1A50.656,50.656,0,0,1,217.117,263.721Z" fill="#ffbe16"/><path d="M242.7,307.995c0,.909-.021,1.819-.078,2.721L194.337,359c-.9.05-1.812.079-2.728.079a51.006,51.006,0,0,1-16.051-2.573l64.567-64.567A51.088,51.088,0,0,1,242.7,307.995Z" fill="#ffbe16"/><path d="M209.073,303.147c-1.114,10.768-9.5,17.5-19.558,19.768L210.773,350.4H193.687l-3.228-2.621-21.515-27.212,3.228-8.4h9.557c7.3,0,12.61-2.522,14.07-9.026H168.853l-3.227-2.621V290.04l29.244,2.621c-2.256-4.514-7.433-6.106-14.07-6.106H168.853l-3.227-2.621V273.447h52.7l3.228,2.621v10.487H205.622l-.266.265c.8.8,1.859,2.92,2.788,5.841l10.179-2.621,3.228,2.621v10.486Z" fill="#d86c0b"/><path d="M218.323,283.938V273.451h-52.7v10.487h11.947c5.219,0,9.523.983,12.223,3.588a9.063,9.063,0,0,1,1.851,2.509H165.622v10.487h26.957c-1.47,6.508-6.775,9.027-14.075,9.027h-9.561V320.57l19.6,24.782,1.918,2.423h15.926l-8.941-11.336-12.51-15.869c10.649-1.956,19.753-8.8,20.917-20.048h12.471V290.035H204.917c-.926-2.92-1.985-5.038-2.787-5.839l.268-.258Z" fill="#ffd522"/></g></svg>