<svg xmlns="http://www.w3.org/2000/svg" width="77" height="63" viewBox="0 0 77 63">
  <g id="contact" transform="translate(0 -8.591)">
    <g id="Group_23" data-name="Group 23">
      <g id="Group_22" data-name="Group 22">
        <path id="Path_17" data-name="Path 17" d="M7.39,28.011q1.461,1.074,8.808,6.376t11.258,8.165q.43.314,1.826,1.365t2.32,1.7q.924.648,2.235,1.454a12.734,12.734,0,0,0,2.471,1.207,6.566,6.566,0,0,0,2.148.4h.087a6.572,6.572,0,0,0,2.149-.4,12.747,12.747,0,0,0,2.471-1.207q1.31-.806,2.234-1.454t2.32-1.7q1.4-1.052,1.826-1.365Q53.5,39.689,69.653,28.01a20.866,20.866,0,0,0,5.241-5.5A12.152,12.152,0,0,0,77,15.751a7,7,0,0,0-2.042-5.056,6.512,6.512,0,0,0-4.834-2.1H6.875a6.035,6.035,0,0,0-5.092,2.326A9.283,9.283,0,0,0,0,16.734a10.7,10.7,0,0,0,2.363,6.108A21.766,21.766,0,0,0,7.39,28.011Z" fill="#f9c08f"/>
        <path id="Path_18" data-name="Path 18" d="M72.7,32.8Q58.61,42.73,51.3,48.235q-2.449,1.879-3.975,2.931a24.178,24.178,0,0,1-4.061,2.147,11.951,11.951,0,0,1-4.726,1.1h-.087a11.955,11.955,0,0,1-4.726-1.1,24.19,24.19,0,0,1-4.061-2.147q-1.525-1.051-3.974-2.931Q19.895,43.805,4.34,32.8A23.047,23.047,0,0,1,0,28.905V64.431a7.037,7.037,0,0,0,2.019,5.057,6.49,6.49,0,0,0,4.856,2.1h63.25a6.49,6.49,0,0,0,4.855-2.1A7.037,7.037,0,0,0,77,64.431V28.905A24.008,24.008,0,0,1,72.7,32.8Z" fill="#f9c08f"/>
      </g>
    </g>
  </g>
</svg>
