<svg xmlns="http://www.w3.org/2000/svg" xmlns:xlink="http://www.w3.org/1999/xlink" width="204" height="239.655" viewBox="0 0 204 239.655"><defs><radialGradient id="a" cx="0.5" cy="0.5" r="5.95" gradientTransform="matrix(-0.03, 0.866, -0.206, -2, 0.618, 1.067)" gradientUnits="objectBoundingBox"><stop offset="0.005" stop-color="#c7c7c7"/><stop offset="1" stop-color="#fbfbfb" stop-opacity="0.518"/></radialGradient></defs><g transform="translate(-136.892 -105.812)"><ellipse cx="56.371" cy="3.355" rx="56.371" ry="3.355" transform="translate(177.772 262.756)" fill="url(#a)"/><g transform="translate(144.892 107.467)"><path d="M316.355,180.744a74.83,74.83,0,0,0-12.579-26.11c-21.345-6.861-27.063.953-27.063.953H194.45s-5.717-7.815-27.063-.953a74.836,74.836,0,0,0-12.578,26.11c-3.812,15.247-19.821,67.34-.763,79.284s29.478-13.722,29.478-13.722,6.226-14.992,8.131-21.727l3.558-2.414,40.334.507h.069l40.334-.507,3.557,2.414c1.906,6.734,8.132,21.727,8.132,21.727s10.419,25.666,29.477,13.722S320.167,195.991,316.355,180.744Z" transform="translate(-144.892 -113.55)" fill="#fff"/><path d="M348.9,252.113c-.415,9.7-2.905,17.8-9.088,21.673-19.058,11.943-29.477-13.722-29.477-13.722l-.013-.031C316.272,269.535,345.329,263,348.9,252.113Z" transform="translate(-167.584 -127.309)" fill="#e6e6e6"/><g transform="translate(18.574 51.367)"><path d="M187.3,169.958h5.782L190.124,167Z" transform="translate(-169.283 -167)" fill="#8a8a8a"/><path d="M193.082,212.818H187.3l2.958,2.958Z" transform="translate(-169.283 -173.285)" fill="#8a8a8a"/><path d="M169.376,193.7v-5.782l-2.958,2.958Z" transform="translate(-166.418 -169.87)" fill="#8a8a8a"/><path d="M211.883,193.7v-5.782l2.958,2.958Z" transform="translate(-172.655 -169.87)" fill="#8a8a8a"/><g transform="translate(4.771 5.344)"><g transform="translate(10.255)"><path d="M187.194,173.194h4.972a3.366,3.366,0,0,1,3.365,3.366v5.078a2.659,2.659,0,0,1-.947,2.035l-3.743,3.148a1.834,1.834,0,0,1-2.412-.046L184.7,183.4a2.66,2.66,0,0,1-.871-1.969v-4.873A3.362,3.362,0,0,1,187.194,173.194Z" transform="translate(-183.833 -173.194)" fill="#44444a"/><path d="M193.463,173.267a3.346,3.346,0,0,1,1.126,2.5v5.078a2.66,2.66,0,0,1-.947,2.035l-3.743,3.148a1.828,1.828,0,0,1-1.167.426l.368.335a1.833,1.833,0,0,0,2.412.045l3.743-3.147a2.66,2.66,0,0,0,.947-2.035V176.57A3.363,3.363,0,0,0,193.463,173.267Z" transform="translate(-184.505 -173.204)" fill="#5c5c64" opacity="0.26" style="mix-blend-mode:multiply;isolation:isolate"/></g><g transform="translate(10.255 18.152)"><path d="M192.169,208.287H187.2a3.365,3.365,0,0,1-3.365-3.365v-5.079a2.656,2.656,0,0,1,.947-2.034l3.744-3.148a1.833,1.833,0,0,1,2.412.045l3.723,3.377a2.656,2.656,0,0,1,.872,1.968v4.873A3.361,3.361,0,0,1,192.169,208.287Z" transform="translate(-183.833 -194.232)" fill="#44444a"/><path d="M195.442,198.085l-3.723-3.377a1.83,1.83,0,0,0-2.171-.212,1.826,1.826,0,0,1,.289.212l3.723,3.377a2.659,2.659,0,0,1,.872,1.968v4.873a3.362,3.362,0,0,1-3.362,3.362h1.882a3.361,3.361,0,0,0,3.362-3.362v-4.873A2.656,2.656,0,0,0,195.442,198.085Z" transform="translate(-184.617 -194.232)" fill="#5c5c64" opacity="0.26" style="mix-blend-mode:multiply;isolation:isolate"/></g><g transform="translate(18.152 10.255)"><path d="M207.04,188.441v4.972a3.365,3.365,0,0,1-3.365,3.365H198.6a2.657,2.657,0,0,1-2.034-.947l-3.148-3.743a1.835,1.835,0,0,1,.045-2.412l3.377-3.723a2.66,2.66,0,0,1,1.969-.872h4.872A3.362,3.362,0,0,1,207.04,188.441Z" transform="translate(-192.985 -185.079)" fill="#44444a"/><path d="M205.639,185.512a3.331,3.331,0,0,1,.373,1.509v4.972a3.365,3.365,0,0,1-3.365,3.365h-5.079a2.642,2.642,0,0,1-1.3-.359l.749.89a2.657,2.657,0,0,0,2.034.947h5.079a3.365,3.365,0,0,0,3.365-3.365V188.5A3.349,3.349,0,0,0,205.639,185.512Z" transform="translate(-193.435 -185.138)" fill="#5c5c64" opacity="0.26" style="mix-blend-mode:multiply;isolation:isolate"/></g><g transform="translate(0 10.255)"><path d="M171.948,193.416v-4.971a3.366,3.366,0,0,1,3.365-3.366h5.078a2.658,2.658,0,0,1,2.035.947l3.148,3.743a1.834,1.834,0,0,1-.046,2.412l-3.376,3.723a2.658,2.658,0,0,1-1.969.872h-4.873A3.361,3.361,0,0,1,171.948,193.416Z" transform="translate(-171.948 -185.079)" fill="#44444a"/><path d="M185.58,190.467l-.253-.3a1.823,1.823,0,0,1-.465,1.1l-3.376,3.723a2.658,2.658,0,0,1-1.969.872h-4.873a3.341,3.341,0,0,1-2.645-1.31,3.351,3.351,0,0,0,3.317,2.923h4.873a2.658,2.658,0,0,0,1.969-.872l3.376-3.723A1.834,1.834,0,0,0,185.58,190.467Z" transform="translate(-171.955 -185.777)" fill="#5c5c64" opacity="0.26" style="mix-blend-mode:multiply;isolation:isolate"/></g></g></g><path d="M144.969,252.113c.415,9.7,2.905,17.8,9.087,21.673,19.059,11.943,29.478-13.722,29.478-13.722l.013-.031C177.6,269.535,148.538,263,144.969,252.113Z" transform="translate(-144.902 -127.309)" fill="#e6e6e6"/><g transform="translate(121.156 47.69)"><g transform="translate(28.208 14.836)"><circle cx="6.607" cy="6.607" r="6.607" transform="translate(0 12.863) rotate(-76.762)" fill="#44444a"/><path d="M331.528,184.475a6.6,6.6,0,0,1-10.961,7.3,6.6,6.6,0,1,0,10.961-7.3Z" transform="translate(-318.354 -180.557)" fill="#474a51" opacity="0.19" style="mix-blend-mode:multiply;isolation:isolate"/><path d="M322.644,188.495a4.066,4.066,0,1,1,4.066,4.066A4.066,4.066,0,0,1,322.644,188.495Z" transform="translate(-318.639 -180.551)" fill="none" stroke="#de404f" stroke-miterlimit="10" stroke-width="0.884"/></g><g transform="translate(0 13.437)"><circle cx="6.607" cy="6.607" r="6.607" transform="translate(0 9.344) rotate(-45)" fill="#44444a"/><path d="M300.456,184.475a6.6,6.6,0,0,1-10.961,7.3,6.6,6.6,0,1,0,10.961-7.3Z" transform="translate(-285.883 -179.158)" fill="#474a51" opacity="0.19" style="mix-blend-mode:multiply;isolation:isolate"/><rect width="6.289" height="6.289" transform="translate(6.231 5.977)" fill="none" stroke="#0051a3" stroke-miterlimit="10" stroke-width="0.884"/></g><g transform="translate(13.754)"><circle cx="6.607" cy="6.607" r="6.607" transform="translate(0 10.077) rotate(-49.696)" fill="#44444a"/><path d="M316.36,168.865a6.6,6.6,0,0,1-10.961,7.3,6.6,6.6,0,1,0,10.961-7.3Z" transform="translate(-301.818 -163.58)" fill="#474a51" opacity="0.19" style="mix-blend-mode:multiply;isolation:isolate"/><path d="M313.363,171.615l1.985,3.466-3.994-.014-3.994-.014,2.009-3.452,2.009-3.452Z" transform="translate(-302.087 -163.481)" fill="none" stroke="#00916a" stroke-miterlimit="10" stroke-width="0.884"/></g><g transform="translate(15.032 28.215)"><circle cx="6.607" cy="6.607" r="6.607" transform="translate(0 12.805) rotate(-75.703)" fill="#44444a"/><path d="M316.36,200.084a6.6,6.6,0,0,1-10.961,7.3,6.6,6.6,0,1,0,10.961-7.3Z" transform="translate(-303.097 -196.077)" fill="#474a51" opacity="0.19" style="mix-blend-mode:multiply;isolation:isolate"/><g transform="translate(4.73 4.984)"><line x2="6.353" y2="6.353" fill="none" stroke="#ffbc53" stroke-linecap="round" stroke-miterlimit="10" stroke-width="0.884"/><line x1="6.353" y2="6.353" fill="none" stroke="#ffbc53" stroke-linecap="round" stroke-miterlimit="10" stroke-width="0.884"/></g></g></g><g transform="translate(60.678)"><path d="M243.143,136.368a4.284,4.284,0,1,1,4.284,4.284A4.284,4.284,0,0,1,243.143,136.368Z" transform="translate(-219.047 -110.844)" fill="#ff3b3b"/><path d="M228.387,137.654a17.016,17.016,0,1,1,34.032,0" transform="translate(-217.023 -109.274)" fill="none" stroke="#eb2226" stroke-linecap="round" stroke-linejoin="round" stroke-width="3.31"/><path d="M215.216,135.847a28.38,28.38,0,0,1,56.76,0" transform="translate(-215.216 -107.467)" fill="none" stroke="#eb2226" stroke-linecap="round" stroke-linejoin="round" stroke-width="3.31"/></g><path d="M0,0H54.358a0,0,0,0,1,0,0V21.973a6.5,6.5,0,0,1-6.5,6.5H6.5a6.5,6.5,0,0,1-6.5-6.5V0A0,0,0,0,1,0,0Z" transform="translate(63.511 41.444)" fill="#ff3b3b"/><path d="M316.355,180.744a74.83,74.83,0,0,0-12.579-26.11c-21.345-6.861-27.063.953-27.063.953H194.45s-5.717-7.815-27.063-.953a74.836,74.836,0,0,0-12.578,26.11c-3.812,15.247-19.821,67.34-.763,79.284s29.478-13.722,29.478-13.722,6.226-14.992,8.131-21.727l3.558-2.414,5.83.073a14.291,14.291,0,0,0,19.313.243l15.192.191h.069l14.312-.179a14.291,14.291,0,0,0,19.288-.243l6.734-.085,3.557,2.414c1.906,6.734,8.132,21.727,8.132,21.727s10.419,25.666,29.477,13.722S320.167,195.991,316.355,180.744Z" transform="translate(-144.892 -113.55)" fill="none" stroke="#eb2226" stroke-miterlimit="10" stroke-width="4"/><g transform="translate(51.938 85.524)"><circle cx="10.641" cy="10.641" r="10.641" transform="translate(0 7.567) rotate(-20.828)" fill="#44444d"/><circle cx="7.348" cy="7.348" r="7.348" transform="translate(5.262 19.753) rotate(-80.425)" fill="#323238"/></g><g transform="translate(99.591 84.283)"><circle cx="10.641" cy="10.641" r="10.641" transform="translate(0 16.506) rotate(-50.856)" fill="#44444d"/><circle cx="7.348" cy="7.348" r="7.348" transform="translate(4.58 14.971) rotate(-45)" fill="#323238"/></g></g><text transform="translate(238.892 334.467)" fill="#ff3b3b" font-size="49" font-family="Joystick-Bold, Joystick" font-weight="700"><tspan x="-101.015" y="0">Game Room</tspan></text></g></svg>