<svg xmlns="http://www.w3.org/2000/svg" xmlns:xlink="http://www.w3.org/1999/xlink" width="224.252" height="224.252" viewBox="0 0 224.252 224.252"><defs><clipPath id="a"><path d="M789.532,656.227a85,85,0,1,0-85,85A85,85,0,0,0,789.532,656.227Z" fill="none"/></clipPath></defs><g transform="translate(-592.406 -544.1)"><circle cx="84.999" cy="84.999" r="84.999" transform="translate(592.406 699.557) rotate(-66.129)" fill="#827977"/><path d="M789.531,656.226a85,85,0,0,0-85-85v170A85,85,0,0,0,789.531,656.226Z" fill="#7b7270"/><path d="M789.532,656.227a85,85,0,1,0-85,85A85,85,0,0,0,789.532,656.227Z" fill="#29a69c"/><g clip-path="url(#a)"><path d="M716.978,704.959l-12.15,29.492-12.742-29.492V677.664h24.893Z" fill="#d9a78c"/><path d="M692.086,693.93s-26.689,3.459-30.184,7.1c-3.044,3.172-9.371,33.536-10.835,40.2H704.53V725.219Z" fill="#f1f2f2"/><path d="M716.978,693.93s26.687,3.459,30.182,7.1c3.043,3.172,9.371,33.536,10.834,40.2H704.53V725.219Z" fill="#e6e7e8"/><path d="M704.531,599.56c12.086,0,31.2,6.872,31.2,39.068,0,18.589-6.06,30.767-8.7,34.136-2.429,3.1-16.089,9.705-22.5,9.705Z" fill="#eac0a7"/><path d="M741.743,646.3c.532-5.145-1.918-9.709-5.474-10.2s-6.871,3.288-7.4,8.432,1.918,9.707,5.475,10.2S741.209,651.447,741.743,646.3Z" fill="#eac0a7"/><path d="M704.531,599.56c-12.086,0-31.2,6.872-31.2,39.068,0,18.589,6.061,30.767,8.7,34.136,2.43,3.1,16.089,9.705,22.5,9.705Z" fill="#f2d7bc"/><path d="M667.32,646.3c-.533-5.145,1.918-9.709,5.473-10.2s6.871,3.288,7.4,8.432-1.919,9.707-5.474,10.2S667.852,651.447,667.32,646.3Z" fill="#f2d7bc"/><path d="M677.486,646.869h2.155s-1.311-8.385,2.533-11.092v-5.416s-1.486-.173-1.486-6.548,7.6-10.918,23.843-10.918V589.572s-32.111.684-32.111,23.989v22.566a5.4,5.4,0,0,1,4.017.99C678.243,638.631,677.486,646.869,677.486,646.869Z" fill="#2f343a"/><path d="M731.577,646.869h-2.154s1.309-8.385-2.532-11.092v-5.416s1.484-.173,1.484-6.548-7.6-10.918-23.844-10.918V589.572s32.112-.732,32.112,22.573v23.982a5.4,5.4,0,0,0-4.018.99C730.82,638.631,731.577,646.869,731.577,646.869Z" fill="#2f343a"/><path d="M704.531,725.219l-8.459-28.906-3.123,13.027Z" fill="#a0b2be"/><path d="M691.734,690.938l4.44,5.771-3.226,12.631-6.821-9.2Z" fill="#fff"/><path d="M704.532,725.219l7.66-29.246,3.923,13.367Z" fill="#a0b2be"/><path d="M717.328,690.938l-5.238,5.43,4.025,12.973,7.412-9.2Z" fill="#fff"/><path d="M704.53,668.6c5.634,0,10.2-1.86,10.2-4.157h-20.4C694.33,666.742,698.9,668.6,704.53,668.6Z" fill="#fff"/></g></g></svg>