<svg xmlns="http://www.w3.org/2000/svg" width="85.191" height="78.333" viewBox="0 0 85.191 78.333">
  <g id="outcome" transform="translate(-79.238 -610.333)">
    <path id="Path_2734" data-name="Path 2734" d="M11.193,0H74C80.18,0,85.191,6.377,85.191,14.242V64.091c0,7.866-5.011,14.242-11.193,14.242H11.193C5.011,78.333,0,71.957,0,64.091V14.242C0,6.377,5.011,0,11.193,0Z" transform="translate(79.238 610.333)" fill="#ff5353"/>
    <g id="dollar" transform="translate(94.437 572.453)">
      <path id="Path_2732" data-name="Path 2732" d="M56.818,72.118,46.786,57.843a1.681,1.681,0,0,0-2.749,0l-3.818,5.433a22.451,22.451,0,1,0-2.438,30.13l-.1,1.681a1.681,1.681,0,0,0,1.677,1.784H51.469a1.681,1.681,0,0,0,1.677-1.784L51.891,74.764h3.553A1.681,1.681,0,0,0,56.818,72.118ZM22.453,96.093A19.093,19.093,0,1,1,38.181,66.176l-4.176,5.942a1.681,1.681,0,0,0,1.375,2.646h3.553l-.812,13.143A19.058,19.058,0,0,1,22.453,96.093ZM50.1,71.4a1.681,1.681,0,0,0-1.677,1.784l1.256,20.323h-8.54L42.4,73.188A1.681,1.681,0,0,0,40.72,71.4H38.615l6.8-9.673,6.8,9.673Z" fill="#fff"/>
      <path id="Path_2733" data-name="Path 2733" d="M142.244,150.317H138a2.129,2.129,0,0,1,0-4.257h4.091a3.072,3.072,0,0,1,2.521,1.424l.021.034a1.68,1.68,0,0,0,2.834-1.806l-.023-.036A6.4,6.4,0,0,0,141.8,142.7v-2.015a1.68,1.68,0,0,0-3.36,0V142.7a5.558,5.558,0,0,0-4.307,1.593A5.489,5.489,0,0,0,138,153.677h4.241a2.129,2.129,0,1,1-.028,4.257h-4.433a3.041,3.041,0,0,1-2.3-1.122,1.68,1.68,0,1,0-2.582,2.151,6.511,6.511,0,0,0,5.54,2.332v2.015a1.68,1.68,0,0,0,3.36,0v-2.015c3.913,0,5.929-2.757,5.929-5.489A5.5,5.5,0,0,0,142.244,150.317Z" transform="translate(-117.671 -74.997)" fill="#fff"/>
    </g>
  </g>
</svg>
