<svg xmlns="http://www.w3.org/2000/svg" xmlns:xlink="http://www.w3.org/1999/xlink" width="83.487" height="74" viewBox="0 0 83.487 74"><defs><linearGradient id="a" x1="-2.046" x2="1.957" y2="2.15" gradientUnits="objectBoundingBox"><stop offset="0" stop-color="#ffb8b8"/><stop offset="1" stop-color="#f44"/></linearGradient><linearGradient id="c" x1="-0.14" y1="1.14" x2="1" gradientUnits="objectBoundingBox"><stop offset="0" stop-color="#b8d9ff"/><stop offset="1" stop-color="#104780"/></linearGradient></defs><g transform="translate(-9)"><path d="M211,248.338A7.338,7.338,0,1,0,218.338,241,7.346,7.346,0,0,0,211,248.338Zm0,0" transform="translate(-167.594 -207.12)" fill="url(#a)"/><path d="M180.675,361A14.692,14.692,0,0,0,166,375.675v9.947h29.351v-9.947A14.692,14.692,0,0,0,180.675,361Zm0,0" transform="translate(-129.932 -311.622)" fill="url(#a)"/><path d="M60.675,278.338a7.338,7.338,0,1,0-7.338,7.338A7.346,7.346,0,0,0,60.675,278.338Zm0,0" transform="translate(-29.499 -232.903)" fill="url(#c)"/><path d="M390.676,278.338a7.338,7.338,0,1,0-7.338,7.338A7.346,7.346,0,0,0,390.676,278.338Zm0,0" transform="translate(-305.689 -232.903)" fill="url(#a)"/><path d="M12.393,0,8.672,8.773,0,10l6.254,5.941L4.816,24.622l7.577-3.96,7.577,3.96-1.438-8.686L24.622,10,16.2,8.773Zm0,0" transform="translate(9)" fill="url(#c)"/><path d="M197.042,8.773,193.23,0l-3.721,8.773L181,10l6.091,5.941-1.438,8.686,7.577-3.96,7.577,3.96-1.438-8.686L205.459,10Zm0,0" transform="translate(-142.486)" fill="url(#a)"/><path d="M373.23,0l-3.721,8.773L361,10l6.091,5.941-1.438,8.686,7.577-3.96,7.577,3.96-1.438-8.686L385.622,10l-8.58-1.223Zm0,0" transform="translate(-293.135)" fill="url(#a)"/><path d="M376.56,391a14.553,14.553,0,0,0-8.658,2.88,19.371,19.371,0,0,1,1.32,6.9v9.947H391.4v-5.055A14.815,14.815,0,0,0,376.56,391Zm0,0" transform="translate(-298.912 -336.73)" fill="url(#a)"/><path d="M0,405.676v5.055H22.176v-9.947a19.371,19.371,0,0,1,1.32-6.9A14.553,14.553,0,0,0,14.838,391,14.815,14.815,0,0,0,0,405.676Zm0,0" transform="translate(9 -336.73)" fill="url(#c)"/></g></svg>