<svg xmlns="http://www.w3.org/2000/svg" width="115" height="107" viewBox="0 0 115 107">
  <g id="refer" transform="translate(0 -4.356)">
    <g id="Group_24" data-name="Group 24">
      <path id="Path_19" data-name="Path 19" d="M0,60.914v15.66a4.423,4.423,0,0,0,4.409,4.437h14.3V64.143a35.829,35.829,0,0,1,3.909-16.3A20.855,20.855,0,0,1,9.276,41.91,24.032,24.032,0,0,0,0,60.914Z" fill="#f9c08f"/>
      <path id="Path_20" data-name="Path 20" d="M33.643,34.971A24.49,24.49,0,0,1,31.48,14.26a14.43,14.43,0,0,0-7.6-2.153A14.657,14.657,0,1,0,27.1,41.057,36.057,36.057,0,0,1,33.643,34.971Z" fill="#f9c08f"/>
      <path id="Path_21" data-name="Path 21" d="M73.21,64.732a15.974,15.974,0,0,1,6.776,1.514l3.63-2.671a29.435,29.435,0,0,0-12.53-23.583,24.089,24.089,0,0,1-33.411,0A29.442,29.442,0,0,0,25.132,64.143V83.327a5.418,5.418,0,0,0,5.4,5.435H59.118A16.212,16.212,0,0,1,73.21,64.732Z" fill="#f9c08f"/>
      <ellipse id="Ellipse_2" data-name="Ellipse 2" cx="17.844" cy="17.955" rx="17.844" ry="17.955" transform="translate(36.537 4.356)" fill="#f9c08f"/>
      <path id="Path_22" data-name="Path 22" d="M105.745,92.731a9.156,9.156,0,0,0-4.09.968L84.311,80.934l17.218-12.673a9.158,9.158,0,0,0,4.216,1.03,9.313,9.313,0,1,0-9.255-9.312,9.381,9.381,0,0,0,.094,1.253L79.311,73.944a9.313,9.313,0,1,0,0,13.981L96.6,100.651a9.394,9.394,0,0,0-.115,1.393,9.256,9.256,0,1,0,9.256-9.313Z" fill="#f9c08f"/>
    </g>
    <ellipse id="Ellipse_3" data-name="Ellipse 3" cx="5.538" cy="5.572" rx="5.538" ry="5.572" transform="translate(67.577 75.439)" fill="#f9c08f"/>
    <ellipse id="Ellipse_4" data-name="Ellipse 4" cx="5.538" cy="5.572" rx="5.538" ry="5.572" transform="translate(100.528 96.968)" fill="#f9c08f"/>
    <ellipse id="Ellipse_5" data-name="Ellipse 5" cx="5.538" cy="5.572" rx="5.538" ry="5.572" transform="translate(100.1 54.34)" fill="#f9c08f"/>
  </g>
</svg>
