<svg xmlns="http://www.w3.org/2000/svg" width="32.986" height="52.125" viewBox="0 0 32.986 52.125">
  <g id="smartphone" transform="translate(-113.692)">
    <g id="Group_559" data-name="Group 559" transform="translate(113.692)">
      <path id="Path_374" data-name="Path 374" d="M140.4,0H120.081c-3.454,0-6.389,2.441-6.389,5.434V46.7c0,2.993,2.873,5.428,6.327,5.428l20.351-.019c3.454,0,6.279-2.435,6.279-5.429l.03-41.246C146.678,2.427,143.866,0,140.4,0ZM127.3,3.258H133.2a.884.884,0,0,1,.94.814.884.884,0,0,1-.94.814H127.3a.883.883,0,0,1-.94-.814A.883.883,0,0,1,127.3,3.258Zm-3.542.259a1.085,1.085,0,0,1,1.33,0,.737.737,0,0,1,0,1.153,1.027,1.027,0,0,1-.663.24,1.042,1.042,0,0,1-.667-.24.746.746,0,0,1,0-1.153Zm6.3,46.993a2.462,2.462,0,1,1,2.812-2.437A2.648,2.648,0,0,1,130.062,50.51Zm13.7-6.531H116.981V7.737h26.781Z" transform="translate(-113.692)" fill="#9c9fb8"/>
    </g>
  </g>
</svg>
