<svg xmlns="http://www.w3.org/2000/svg" width="30" height="30" viewBox="0 0 30 30">
  <g id="time" transform="translate(-24 -24)">
    <path id="Path_2413" data-name="Path 2413" d="M40,72H68.966V98.9H40Z" transform="translate(-14.966 -44.897)" fill="#c3c6c7"/>
    <path id="Path_2414" data-name="Path 2414" d="M24,56H51.931V81.862H24Z" transform="translate(0 -29.931)" fill="#e9eef2"/>
    <path id="Path_2415" data-name="Path 2415" d="M24,56H51.931v6.207H24Z" transform="translate(0 -29.931)" fill="#eb423f"/>
    <g id="Group_1009" data-name="Group 1009" transform="translate(27.621 24)">
      <path id="Path_2416" data-name="Path 2416" d="M82.069,26.069v-.517a.517.517,0,0,0-1.034,0v2.069a.518.518,0,0,0,.517.517.517.517,0,1,1,0,1.034A1.554,1.554,0,0,1,80,27.621V25.552a1.552,1.552,0,1,1,3.1,0v.517Z" transform="translate(-80 -24)" fill="#6a7073"/>
      <path id="Path_2417" data-name="Path 2417" d="M146.069,26.069v-.517a.517.517,0,0,0-1.034,0v2.069a.518.518,0,0,0,.517.517.517.517,0,1,1,0,1.034A1.554,1.554,0,0,1,144,27.621V25.552a1.552,1.552,0,0,1,3.1,0v.517Z" transform="translate(-139.862 -24)" fill="#6a7073"/>
      <path id="Path_2418" data-name="Path 2418" d="M290.069,26.069v-.517a.517.517,0,0,0-1.034,0v2.069a.518.518,0,0,0,.517.517.517.517,0,1,1,0,1.034A1.554,1.554,0,0,1,288,27.621V25.552a1.552,1.552,0,0,1,3.1,0v.517Z" transform="translate(-274.552 -24)" fill="#6a7073"/>
      <path id="Path_2419" data-name="Path 2419" d="M354.069,26.069v-.517a.517.517,0,0,0-1.034,0v2.069a.518.518,0,0,0,.517.517.517.517,0,1,1,0,1.034A1.554,1.554,0,0,1,352,27.621V25.552a1.552,1.552,0,0,1,3.1,0v.517Z" transform="translate(-334.414 -24)" fill="#6a7073"/>
      <path id="Path_2420" data-name="Path 2420" d="M260.891,216.057a.517.517,0,0,0-.538.039l-4.138,2.962a.517.517,0,0,0,.6.841l3.32-2.377v9.338a.517.517,0,1,0,1.034,0V216.517A.517.517,0,0,0,260.891,216.057Z" transform="translate(-244.62 -203.586)" fill="#6a7073"/>
      <path id="Path_2421" data-name="Path 2421" d="M150.207,219.1a3.1,3.1,0,0,0-6.207,0,.517.517,0,0,0,1.034,0,2.069,2.069,0,1,1,2.069,2.069.517.517,0,1,0,0,1.034,2.069,2.069,0,1,1-2.069,2.069.517.517,0,1,0-1.034,0,3.1,3.1,0,1,0,4.817-2.586A3.1,3.1,0,0,0,150.207,219.1Z" transform="translate(-139.862 -203.586)" fill="#6a7073"/>
    </g>
  </g>
</svg>
