<svg xmlns="http://www.w3.org/2000/svg" width="45.333" height="45.333" viewBox="0 0 45.333 45.333">
  <path id="user" d="M41.738,28.777a21.234,21.234,0,0,0-5.416-3.39,1.771,1.771,0,1,0-1.438,3.237A17.71,17.71,0,0,1,39.4,31.438a7.061,7.061,0,0,1,2.392,5.307v3.276a1.773,1.773,0,0,1-1.771,1.771H5.313a1.773,1.773,0,0,1-1.771-1.771V36.745a7.061,7.061,0,0,1,2.392-5.307c1.789-1.572,7-5.229,16.733-5.229a13.119,13.119,0,1,0-7.982-2.719A24.619,24.619,0,0,0,3.6,28.777,10.6,10.6,0,0,0,0,36.745v3.276a5.318,5.318,0,0,0,5.312,5.312H40.021a5.318,5.318,0,0,0,5.313-5.312V36.745a10.6,10.6,0,0,0-3.6-7.968ZM13.1,13.1a9.562,9.562,0,1,1,9.562,9.562A9.573,9.573,0,0,1,13.1,13.1Zm0,0" transform="translate(0 0)" fill="#9c9fb8"/>
</svg>
