<svg xmlns="http://www.w3.org/2000/svg" xmlns:xlink="http://www.w3.org/1999/xlink" width="170.002" height="170" viewBox="0 0 170.002 170"><defs><clipPath id="a"><circle cx="84.999" cy="84.999" r="84.999" transform="translate(10.47 58.774)" fill="none"/></clipPath></defs><g transform="translate(-10.467 -58.774)"><circle cx="85" cy="85" r="85" transform="translate(10.467 58.775)" fill="#29a69c"/><path d="M180.467,143.774a85,85,0,0,0-85-85v170A85,85,0,0,0,180.467,143.774Z" fill="#27a096"/><g clip-path="url(#a)"><path d="M132.671,113.9a37.2,37.2,0,1,0-37.2,37.2A37.2,37.2,0,0,0,132.671,113.9Z" fill="#482b1b"/><path d="M107.916,193.569l-12.6,35.355L83.023,193.569V166.274h24.893Z" fill="#eac8ad"/><path d="M95.47,90.627c-12.086,0-31.2,6.87-31.2,39.066,0,18.589,7.246,27.354,9.887,30.723,2.43,3.1,14.9,13.118,21.313,13.118Z" fill="#f2d7bc"/><path d="M58.258,137.37c-.533-5.144,1.919-9.709,5.473-10.2s6.872,3.287,7.405,8.432-1.918,9.706-5.474,10.2S58.791,142.513,58.258,137.37Z" fill="#f2d7bc"/><path d="M95.371,90.627c12.086,0,31.2,6.87,31.2,39.066,0,18.589-7.245,27.354-9.886,30.723-2.43,3.1-14.9,13.118-21.313,13.118Z" fill="#eac0a7"/><path d="M132.682,137.37c.532-5.144-1.919-9.709-5.474-10.2s-6.872,3.287-7.4,8.432,1.919,9.706,5.475,10.2S132.148,142.513,132.682,137.37Z" fill="#eac0a7"/><path d="M95.313,228.925v-34s-9.287-2.3-11.333-9.823a26.539,26.539,0,0,1-.957-6.517s-20.305,6.858-24.838,13.941c-3.772,11.229-4.806,36.4-4.806,36.4Z" fill="#eac8ad"/><path d="M95.313,228.925v-34s9.285-2.3,11.333-9.823a26.588,26.588,0,0,0,.955-6.517s20.305,6.858,24.838,13.941c3.772,11.229,4.807,36.4,4.807,36.4Z" fill="#eac8ad"/><path d="M95.313,228.925v-34s-9.287-2.3-11.333-9.823a26.539,26.539,0,0,1-.957-6.517s-20.305,6.858-24.838,13.941c-3.772,11.229-4.806,36.4-4.806,36.4Z" fill="#eac8ad"/><path d="M95.313,228.925v-34s9.285-2.3,11.333-9.823a26.588,26.588,0,0,0,.955-6.517s20.305,6.858,24.838,13.941c3.772,11.229,4.807,36.4,4.807,36.4Z" fill="#eac8ad"/><path d="M95.47,162.2c4.711,0,8.53-2.892,8.53-6.462H86.939C86.939,159.3,90.758,162.2,95.47,162.2Z" fill="#fff"/><path d="M93.711,81.363c-22.084,0-28.8,19.348-28.8,28.258-8.009,11.132.722,21.092,6.9,24.591v-5.478c0-7.2,6.845-13.865,17.126-12.755,9.214,1,15.016-4.212,19.918-13.066C114.912,91.058,107.359,81.363,93.711,81.363Z" fill="#482b1b"/><path d="M107.916,99.273s5.16,20.949,19.292,27.9c2.515-18.832,4-14.865,0-24.782s-19.292-17.284-19.292-17.284Z" fill="#482b1b"/><path d="M132.439,192.526c-3.781-5.908-18.528-11.657-23.318-13.4a13.819,13.819,0,0,1-27.618,0c-4.79,1.745-19.536,7.494-23.318,13.4-3.772,11.229-4.806,36.4-4.806,36.4h83.867S136.211,203.755,132.439,192.526Z" fill="#faa21c"/><path d="M137.246,228.925s-1.035-25.17-4.807-36.4c-3.781-5.908-18.528-11.657-23.318-13.4a13.82,13.82,0,0,1-13.808,13.283v36.518Z" fill="#f68e1f"/><path d="M76.95,180.886a18.586,18.586,0,0,0,36.725,0c-1.866-.763-3.468-1.366-4.554-1.762a13.819,13.819,0,0,1-27.618,0C80.418,179.52,78.816,180.123,76.95,180.886Z" fill="#39b54a"/><path d="M107.916,76.7A12.446,12.446,0,1,0,95.47,89.148,12.446,12.446,0,0,0,107.916,76.7Z" fill="#482b1b"/></g></g></svg>