<svg id="apple" xmlns="http://www.w3.org/2000/svg" width="61.333" height="53.717" viewBox="0 0 61.333 53.717">
  <g id="Group_1006" data-name="Group 1006">
    <g id="Group_1005" data-name="Group 1005">
      <path id="Path_2410" data-name="Path 2410" d="M48.755,0H12.578C5.643,0,0,4.942,0,11.016V42.7c0,6.074,5.643,11.016,12.578,11.016H48.755c6.936,0,12.578-4.942,12.578-11.016V11.016C61.333,4.942,55.691,0,48.755,0ZM57.74,42.7c0,4.339-4.03,7.869-8.984,7.869H12.578c-4.954,0-8.984-3.53-8.984-7.869V11.016c0-4.339,4.03-7.869,8.984-7.869H48.755c4.954,0,8.984,3.53,8.984,7.869Z" fill="#f9c08f"/>
    </g>
  </g>
  <g id="Group_1008" data-name="Group 1008" transform="translate(9.104 10.687)">
    <g id="Group_1007" data-name="Group 1007">
      <path id="Path_2411" data-name="Path 2411" d="M115.531,121H79.594A3.6,3.6,0,0,0,76,124.594V149.75a3.6,3.6,0,0,0,3.594,3.594h35.938a3.6,3.6,0,0,0,3.594-3.594V124.594A3.6,3.6,0,0,0,115.531,121Zm-35.937,3.594h35.938v3.594H79.594Zm0,7.188h35.938v3.594h-8.985a6.518,6.518,0,0,0-5.8,3.465,3.6,3.6,0,0,1-6.368,0,6.518,6.518,0,0,0-5.8-3.465H79.594Zm35.938,17.969H79.594V138.969h8.984a2.933,2.933,0,0,1,2.62,1.544,7.19,7.19,0,0,0,12.73,0,2.934,2.934,0,0,1,2.62-1.544h8.985V149.75Z" transform="translate(-76 -121)" fill="#f9c08f"/>
    </g>
  </g>
</svg>
