<svg xmlns="http://www.w3.org/2000/svg" width="65.771" height="58.477" viewBox="0 0 65.771 58.477">
  <path id="arrow" d="M59.406,27.5H6.365A6.372,6.372,0,0,0,0,33.865V65.689a6.372,6.372,0,0,0,6.365,6.365H25.46a2.122,2.122,0,1,0,0-4.243H16.821A14.884,14.884,0,0,0,4.243,55.233V44.321A14.884,14.884,0,0,0,16.821,31.743H48.95A14.884,14.884,0,0,0,61.527,44.321V55.233A14.884,14.884,0,0,0,48.95,67.811H40.311a2.122,2.122,0,1,0,0,4.243H59.406a6.372,6.372,0,0,0,6.365-6.365V33.865A6.372,6.372,0,0,0,59.406,27.5ZM12.516,67.811H6.365a2.124,2.124,0,0,1-2.122-2.122V59.538A10.64,10.64,0,0,1,12.516,67.811ZM4.243,40.016V33.865a2.124,2.124,0,0,1,2.122-2.122h6.151A10.64,10.64,0,0,1,4.243,40.016Zm49.011-8.273h6.151a2.124,2.124,0,0,1,2.122,2.122v6.151A10.64,10.64,0,0,1,53.254,31.743Zm6.151,36.068H53.254a10.64,10.64,0,0,1,8.273-8.273v6.151A2.124,2.124,0,0,1,59.406,67.811ZM44.554,49.777A11.669,11.669,0,1,0,32.885,61.446,11.682,11.682,0,0,0,44.554,49.777Zm-19.095,0A7.426,7.426,0,1,1,32.885,57.2,7.434,7.434,0,0,1,25.46,49.777Zm-9.547-2.122a2.122,2.122,0,0,1,0,4.243H14.851a2.122,2.122,0,0,1,0-4.243ZM49.858,51.9a2.122,2.122,0,0,1,0-4.243h1.061a2.122,2.122,0,0,1,0,4.243ZM38.761,77.98a2.121,2.121,0,0,1,0,3l-4.376,4.376a2.122,2.122,0,0,1-3,0L27.009,80.98a2.122,2.122,0,0,1,3-3l.754.754V68.607a2.122,2.122,0,1,1,4.243,0V78.734l.754-.754a2.121,2.121,0,0,1,3,0Z" transform="translate(0 -27.5)" fill="#f9c08f"/>
</svg>
