<svg xmlns="http://www.w3.org/2000/svg" xmlns:xlink="http://www.w3.org/1999/xlink" width="319.673" height="318.327" viewBox="0 0 319.673 318.327">
  <defs>
    <linearGradient id="linear-gradient" x1="0.022" y1="0.5" x2="1.061" y2="0.5" gradientUnits="objectBoundingBox">
      <stop offset="0.056" stop-color="#9f79b8"/>
      <stop offset="0.257" stop-color="#a07bb9"/>
      <stop offset="0.357" stop-color="#a782bf"/>
      <stop offset="0.434" stop-color="#b28fc8"/>
      <stop offset="0.495" stop-color="#c1a1d5"/>
      <stop offset="0.507" stop-color="#c3a5d6"/>
      <stop offset="0.52" stop-color="#ccb2dc"/>
      <stop offset="0.533" stop-color="#dac8e6"/>
      <stop offset="0.547" stop-color="#eee6f4"/>
      <stop offset="0.556" stop-color="#fff"/>
      <stop offset="0.568" stop-color="#ebdff3"/>
      <stop offset="0.58" stop-color="#ddc7ea"/>
      <stop offset="0.591" stop-color="#d4b9e4"/>
      <stop offset="0.601" stop-color="#d1b4e3"/>
      <stop offset="0.658" stop-color="#b294d5"/>
      <stop offset="0.715" stop-color="#9b7ccb"/>
      <stop offset="0.769" stop-color="#8d6ec5"/>
      <stop offset="0.813" stop-color="#8969c3"/>
      <stop offset="1" stop-color="#b086cc"/>
    </linearGradient>
    <linearGradient id="linear-gradient-2" y1="0.5" x2="1" y2="0.5" gradientUnits="objectBoundingBox">
      <stop offset="0" stop-color="#2f054a"/>
      <stop offset="1" stop-color="#5824b0"/>
    </linearGradient>
    <linearGradient id="linear-gradient-3" y1="0.5" x2="1" y2="0.5" gradientUnits="objectBoundingBox">
      <stop offset="0" stop-color="#3d065f"/>
      <stop offset="1" stop-color="#5f27bd"/>
    </linearGradient>
    <linearGradient id="linear-gradient-4" x1="0.474" y1="0.15" x2="-10.507" y2="5.569" gradientUnits="objectBoundingBox">
      <stop offset="0.056" stop-color="#9f79b8"/>
      <stop offset="0.265" stop-color="#a07bb9"/>
      <stop offset="0.368" stop-color="#a782bf"/>
      <stop offset="0.447" stop-color="#b28fc8"/>
      <stop offset="0.515" stop-color="#c2a2d6"/>
      <stop offset="0.561" stop-color="#d1b4e3"/>
      <stop offset="0.657" stop-color="#b294d5"/>
      <stop offset="0.754" stop-color="#9b7ccb"/>
      <stop offset="0.844" stop-color="#8d6ec5"/>
      <stop offset="0.919" stop-color="#8969c3"/>
    </linearGradient>
    <linearGradient id="linear-gradient-5" x1="0.473" y1="0.155" x2="-10.508" y2="5.574" xlink:href="#linear-gradient-3"/>
    <linearGradient id="linear-gradient-6" x1="0.999" y1="0.365" x2="-0.084" y2="0.658" gradientUnits="objectBoundingBox">
      <stop offset="0" stop-color="#4916a1"/>
      <stop offset="0.515" stop-color="#5f27bd"/>
      <stop offset="1" stop-color="#b4299a"/>
    </linearGradient>
    <linearGradient id="linear-gradient-7" x1="0.849" y1="0.24" x2="0.071" y2="0.82" gradientUnits="objectBoundingBox">
      <stop offset="0" stop-color="#4421a4"/>
      <stop offset="0.035" stop-color="#4622a5"/>
      <stop offset="0.334" stop-color="#502cb4"/>
      <stop offset="0.515" stop-color="#5934c0"/>
      <stop offset="1" stop-color="#a73ca3"/>
    </linearGradient>
    <linearGradient id="linear-gradient-8" x1="0.663" y1="0.223" x2="0.289" y2="0.859" gradientUnits="objectBoundingBox">
      <stop offset="0" stop-color="#3f2ba6"/>
      <stop offset="0.035" stop-color="#412ca8"/>
      <stop offset="0.344" stop-color="#4b38b7"/>
      <stop offset="0.515" stop-color="#5342c2"/>
      <stop offset="1" stop-color="#9b4eac"/>
    </linearGradient>
    <linearGradient id="linear-gradient-9" x1="0.551" y1="0.042" x2="0.431" y2="1.123" gradientUnits="objectBoundingBox">
      <stop offset="0" stop-color="#3a36a9"/>
      <stop offset="0.035" stop-color="#3c37aa"/>
      <stop offset="0.334" stop-color="#4544b9"/>
      <stop offset="0.515" stop-color="#4d4fc5"/>
      <stop offset="1" stop-color="#8e61b6"/>
    </linearGradient>
    <linearGradient id="linear-gradient-10" x1="0.332" y1="-0.012" x2="0.74" y2="1.233" gradientUnits="objectBoundingBox">
      <stop offset="0" stop-color="#3541ab"/>
      <stop offset="0.035" stop-color="#3741ac"/>
      <stop offset="0.326" stop-color="#3f4fbb"/>
      <stop offset="0.515" stop-color="#475cc8"/>
      <stop offset="1" stop-color="#8274bf"/>
    </linearGradient>
    <linearGradient id="linear-gradient-11" x1="0.134" y1="0.09" x2="1.05" y2="1.117" gradientUnits="objectBoundingBox">
      <stop offset="0" stop-color="#304bae"/>
      <stop offset="0.035" stop-color="#324caf"/>
      <stop offset="0.317" stop-color="#395bbd"/>
      <stop offset="0.515" stop-color="#4169ca"/>
      <stop offset="1" stop-color="#7586c8"/>
    </linearGradient>
    <linearGradient id="linear-gradient-12" x1="0.066" y1="0.288" x2="1.186" y2="0.835" gradientUnits="objectBoundingBox">
      <stop offset="0" stop-color="#2c56b0"/>
      <stop offset="0.035" stop-color="#2c56b1"/>
      <stop offset="0.288" stop-color="#3265be"/>
      <stop offset="0.515" stop-color="#3b77cd"/>
      <stop offset="1" stop-color="#6999d1"/>
    </linearGradient>
    <linearGradient id="linear-gradient-13" x1="0.062" y1="0.462" x2="1.227" y2="0.563" gradientUnits="objectBoundingBox">
      <stop offset="0" stop-color="#2760b3"/>
      <stop offset="0.035" stop-color="#2761b4"/>
      <stop offset="0.276" stop-color="#2d70bf"/>
      <stop offset="0.515" stop-color="#3584cf"/>
      <stop offset="1" stop-color="#5cabda"/>
    </linearGradient>
    <linearGradient id="linear-gradient-14" x1="0.083" y1="0.619" x2="1.227" y2="0.293" gradientUnits="objectBoundingBox">
      <stop offset="0" stop-color="#226bb5"/>
      <stop offset="0.035" stop-color="#226bb6"/>
      <stop offset="0.26" stop-color="#277ac1"/>
      <stop offset="0.515" stop-color="#2f91d2"/>
      <stop offset="1" stop-color="#50bee3"/>
    </linearGradient>
    <linearGradient id="linear-gradient-15" x1="0.214" y1="0.719" x2="1.025" y2="0.098" gradientUnits="objectBoundingBox">
      <stop offset="0" stop-color="#1d76b8"/>
      <stop offset="0.035" stop-color="#1d76b8"/>
      <stop offset="0.251" stop-color="#2185c3"/>
      <stop offset="0.515" stop-color="#299ed5"/>
      <stop offset="1" stop-color="#43d1ed"/>
    </linearGradient>
    <linearGradient id="linear-gradient-16" x1="0.365" y1="0.738" x2="0.76" y2="0.042" gradientUnits="objectBoundingBox">
      <stop offset="0" stop-color="#1880ba"/>
      <stop offset="0.035" stop-color="#1880bb"/>
      <stop offset="0.234" stop-color="#1b8fc4"/>
      <stop offset="0.515" stop-color="#23acd7"/>
      <stop offset="1" stop-color="#37e3f6"/>
    </linearGradient>
    <linearGradient id="linear-gradient-17" x1="0.464" y1="0.883" x2="0.574" y2="-0.275" gradientUnits="objectBoundingBox">
      <stop offset="0.035" stop-color="#138bbd"/>
      <stop offset="0.226" stop-color="#169ac6"/>
      <stop offset="0.595" stop-color="#1ec2df"/>
      <stop offset="1" stop-color="#2af6ff"/>
    </linearGradient>
    <linearGradient id="linear-gradient-18" x1="-3.863" y1="2.264" x2="-4.538" y2="1.381" gradientUnits="objectBoundingBox">
      <stop offset="0" stop-color="#3d065f"/>
      <stop offset="1" stop-color="#12054e"/>
      <stop offset="1" stop-color="#10054d"/>
    </linearGradient>
    <linearGradient id="linear-gradient-19" x1="0.296" y1="-0.053" x2="0.706" y2="1.06" gradientUnits="objectBoundingBox">
      <stop offset="0.056" stop-color="#9f79b8"/>
      <stop offset="0.25" stop-color="#a17bb9"/>
      <stop offset="0.346" stop-color="#a882c0"/>
      <stop offset="0.42" stop-color="#b48fcb"/>
      <stop offset="0.484" stop-color="#c5a2db"/>
      <stop offset="0.539" stop-color="#dbbaf0"/>
      <stop offset="0.561" stop-color="#e6c6fa"/>
      <stop offset="0.597" stop-color="#d6b6f0"/>
      <stop offset="0.687" stop-color="#b494dc"/>
      <stop offset="0.773" stop-color="#9c7cce"/>
      <stop offset="0.853" stop-color="#8e6ec5"/>
      <stop offset="0.919" stop-color="#8969c3"/>
    </linearGradient>
    <linearGradient id="linear-gradient-20" x1="0.709" y1="0.183" x2="0.396" y2="0.788" gradientUnits="objectBoundingBox">
      <stop offset="0" stop-color="#fff"/>
      <stop offset="1" stop-color="#b4299a"/>
    </linearGradient>
    <linearGradient id="linear-gradient-21" x1="0.925" y1="0.446" x2="1.356" y2="0.391" gradientUnits="objectBoundingBox">
      <stop offset="0" stop-color="#25054d"/>
      <stop offset="1" stop-color="#45108a"/>
    </linearGradient>
    <linearGradient id="linear-gradient-22" x1="0.47" y1="0.617" x2="0.666" y2="-0.156" gradientUnits="objectBoundingBox">
      <stop offset="0.005" stop-color="#5b15a3"/>
      <stop offset="0.284" stop-color="#4e50bb"/>
      <stop offset="0.926" stop-color="#2de4f7"/>
      <stop offset="1" stop-color="#2af6ff"/>
    </linearGradient>
    <linearGradient id="linear-gradient-23" x1="29.699" y1="0.64" x2="31.691" y2="0.349" xlink:href="#linear-gradient-3"/>
    <linearGradient id="linear-gradient-24" x1="0.625" y1="0.951" x2="0.198" y2="-0.586" xlink:href="#linear-gradient-21"/>
    <linearGradient id="linear-gradient-25" x1="0.999" y1="1.015" x2="0" y2="-0.016" gradientUnits="objectBoundingBox">
      <stop offset="0.03" stop-color="#7c1dc9"/>
      <stop offset="0.279" stop-color="#6e40d1"/>
      <stop offset="0.829" stop-color="#4c9be8"/>
      <stop offset="1" stop-color="#41b9f0"/>
    </linearGradient>
    <linearGradient id="linear-gradient-26" x1="0.499" y1="0.492" x2="0.593" y2="-0.438" gradientUnits="objectBoundingBox">
      <stop offset="0" stop-color="#7c1dc9"/>
      <stop offset="0.037" stop-color="#8024ca"/>
      <stop offset="0.371" stop-color="#a261d4"/>
      <stop offset="0.654" stop-color="#bb8edc"/>
      <stop offset="0.873" stop-color="#cba9e1"/>
      <stop offset="1" stop-color="#d1b4e3"/>
    </linearGradient>
    <linearGradient id="linear-gradient-27" x1="0.069" y1="1.918" x2="0.723" y2="-0.232" xlink:href="#linear-gradient-26"/>
    <linearGradient id="linear-gradient-66" x1="0.393" y1="0.662" x2="0.615" y2="0.326" gradientUnits="objectBoundingBox">
      <stop offset="0" stop-color="#43e8e1"/>
      <stop offset="0.094" stop-color="#36bcb6"/>
      <stop offset="0.218" stop-color="#288b86"/>
      <stop offset="0.344" stop-color="#1b605d"/>
      <stop offset="0.471" stop-color="#113d3b"/>
      <stop offset="0.599" stop-color="#092221"/>
      <stop offset="0.729" stop-color="#040f0e"/>
      <stop offset="0.861" stop-color="#010303"/>
      <stop offset="1"/>
    </linearGradient>
    <linearGradient id="linear-gradient-67" x1="-0.076" y1="0.543" x2="3.819" y2="0.254" gradientUnits="objectBoundingBox">
      <stop offset="0.035" stop-color="#9f19ab"/>
      <stop offset="0.244" stop-color="#ae24b0"/>
      <stop offset="0.645" stop-color="#d643bf"/>
      <stop offset="1" stop-color="#ff63ce"/>
    </linearGradient>
    <linearGradient id="linear-gradient-68" x1="-0.91" y1="0.886" x2="1.973" y2="0.097" xlink:href="#linear-gradient-67"/>
    <linearGradient id="linear-gradient-69" x1="0.604" y1="0.158" x2="0.485" y2="0.548" xlink:href="#linear-gradient-67"/>
    <linearGradient id="linear-gradient-70" x1="1.016" y1="0.036" x2="0.128" y2="0.773" gradientUnits="objectBoundingBox">
      <stop offset="0" stop-color="#fff"/>
      <stop offset="0.268" stop-color="#f4eef3"/>
      <stop offset="0.795" stop-color="#d8c3d7"/>
      <stop offset="1" stop-color="#ccb1cb"/>
    </linearGradient>
    <linearGradient id="linear-gradient-71" x1="0.499" y1="0.492" x2="0.597" y2="-0.442" gradientUnits="objectBoundingBox">
      <stop offset="0.035" stop-color="#ffa98c"/>
      <stop offset="0.317" stop-color="#feb892"/>
      <stop offset="0.86" stop-color="#fee0a3"/>
      <stop offset="1" stop-color="#feeca8"/>
    </linearGradient>
    <radialGradient id="radial-gradient" cx="0.5" cy="0.5" r="0.709" gradientTransform="translate(0.213) scale(0.575 1)" gradientUnits="objectBoundingBox">
      <stop offset="0" stop-color="#fff"/>
      <stop offset="1"/>
    </radialGradient>
    <radialGradient id="radial-gradient-2" cx="0.295" cy="0.328" r="0.298" gradientTransform="translate(-0.716) scale(2.433 1)" xlink:href="#radial-gradient"/>
    <linearGradient id="linear-gradient-72" x1="0.049" y1="1.954" x2="0.734" y2="-0.248" xlink:href="#linear-gradient-71"/>
    <radialGradient id="radial-gradient-3" cx="0.364" cy="0.503" r="0.457" gradientTransform="translate(-0.112) scale(1.224 1)" xlink:href="#radial-gradient"/>
    <linearGradient id="linear-gradient-73" x1="0.217" y1="-0.062" x2="0.877" y2="0.859" gradientUnits="objectBoundingBox">
      <stop offset="0.035" stop-color="#f7aa90"/>
      <stop offset="0.183" stop-color="#f9b996"/>
      <stop offset="0.469" stop-color="#fee1a6"/>
      <stop offset="0.485" stop-color="#ffe4a7"/>
      <stop offset="0.739" stop-color="#f7aa90"/>
    </linearGradient>
    <linearGradient id="linear-gradient-74" x1="0.269" y1="0.169" x2="1.103" y2="1.807" gradientUnits="objectBoundingBox">
      <stop offset="0.035" stop-color="#f7aa90"/>
      <stop offset="0.282" stop-color="#f9b996"/>
      <stop offset="0.758" stop-color="#fee1a6"/>
      <stop offset="0.784" stop-color="#ffe4a7"/>
      <stop offset="0.874" stop-color="#f7aa90"/>
    </linearGradient>
    <radialGradient id="radial-gradient-4" cx="0.869" cy="0.355" r="0.588" gradientTransform="translate(-0.187) scale(1.375 1)" gradientUnits="objectBoundingBox">
      <stop offset="0.364" stop-color="#fff"/>
      <stop offset="0.427" stop-color="#e1e1e1"/>
      <stop offset="0.64" stop-color="#828282"/>
      <stop offset="0.813" stop-color="#3b3b3b"/>
      <stop offset="0.937" stop-color="#101010"/>
      <stop offset="1"/>
    </radialGradient>
    <linearGradient id="linear-gradient-75" x1="0.482" y1="-0.042" x2="0.639" y2="2.183" gradientUnits="objectBoundingBox">
      <stop offset="0" stop-color="#fff3a7"/>
      <stop offset="0.114" stop-color="#fce7a0"/>
      <stop offset="0.413" stop-color="#f7cf92"/>
      <stop offset="0.689" stop-color="#f5c189"/>
      <stop offset="0.919" stop-color="#f4bc87"/>
    </linearGradient>
    <radialGradient id="radial-gradient-5" cx="0.836" cy="0.996" r="0.482" gradientTransform="translate(-0.187) scale(1.375 1)" gradientUnits="objectBoundingBox">
      <stop offset="0" stop-color="#92402e"/>
      <stop offset="1"/>
    </radialGradient>
    <radialGradient id="radial-gradient-6" cx="0.836" cy="0.996" r="0.417" gradientTransform="translate(-0.293) scale(1.586 1)" gradientUnits="objectBoundingBox">
      <stop offset="0" stop-color="#ff63ce"/>
      <stop offset="1"/>
    </radialGradient>
    <linearGradient id="linear-gradient-76" x1="0.385" y1="-0.525" x2="0.741" y2="1.781" xlink:href="#linear-gradient-71"/>
    <radialGradient id="radial-gradient-7" cx="0.353" cy="0.659" r="0.381" gradientTransform="translate(-0.521 38.785) scale(2.475 1.662)" gradientUnits="objectBoundingBox">
      <stop offset="0.136" stop-color="#25166d"/>
      <stop offset="0.217" stop-color="#2b1d71"/>
      <stop offset="0.335" stop-color="#3e317e"/>
      <stop offset="0.478" stop-color="#5d5192"/>
      <stop offset="0.639" stop-color="#877faf"/>
      <stop offset="0.815" stop-color="#beb9d3"/>
      <stop offset="1" stop-color="#fff"/>
    </radialGradient>
    <linearGradient id="linear-gradient-77" x1="2.394" y1="0.748" x2="-1.507" y2="0.237" gradientUnits="objectBoundingBox">
      <stop offset="0.035" stop-color="#9d9eb3"/>
      <stop offset="0.581" stop-color="#d4d1d8"/>
      <stop offset="1" stop-color="#eeebf2"/>
    </linearGradient>
    <linearGradient id="linear-gradient-78" x1="0.497" y1="0.412" x2="0.462" y2="-0.534" xlink:href="#linear-gradient-66"/>
    <linearGradient id="linear-gradient-79" x1="-0.525" y1="0.871" x2="1.412" y2="0.156" xlink:href="#linear-gradient-77"/>
    <linearGradient id="linear-gradient-80" x1="0.224" y1="0.682" x2="2.807" y2="-1.25" xlink:href="#linear-gradient-77"/>
    <linearGradient id="linear-gradient-81" x1="1.867" y1="1.021" x2="-0.08" y2="0.267" xlink:href="#linear-gradient-67"/>
    <linearGradient id="linear-gradient-82" x1="0.065" y1="1.101" x2="1.329" y2="-0.647" xlink:href="#linear-gradient-67"/>
    <radialGradient id="radial-gradient-8" cx="1.554" cy="0.842" r="0.369" gradientTransform="translate(-1.171) scale(3.342 1)" xlink:href="#radial-gradient"/>
    <radialGradient id="radial-gradient-9" cx="0.361" cy="0.258" r="0.387" gradientTransform="translate(-0.624) scale(2.248 1)" xlink:href="#radial-gradient"/>
    <radialGradient id="radial-gradient-10" cx="0.5" cy="0.5" r="0.5" gradientUnits="objectBoundingBox">
      <stop offset="0" stop-color="#a56ef4"/>
      <stop offset="0.116" stop-color="#7f55bc"/>
      <stop offset="0.236" stop-color="#5e3e8b"/>
      <stop offset="0.359" stop-color="#412b60"/>
      <stop offset="0.483" stop-color="#291b3d"/>
      <stop offset="0.609" stop-color="#170f22"/>
      <stop offset="0.735" stop-color="#0a060f"/>
      <stop offset="0.864" stop-color="#020103"/>
      <stop offset="1"/>
    </radialGradient>
    <linearGradient id="linear-gradient-83" x1="-69.838" y1="-136.483" x2="-61.364" y2="-141.096" gradientUnits="objectBoundingBox">
      <stop offset="0.096" stop-color="#45108a"/>
      <stop offset="1" stop-color="#7c1dc9"/>
    </linearGradient>
    <linearGradient id="linear-gradient-84" x1="-70.633" y1="-135.372" x2="-62.159" y2="-139.985" xlink:href="#linear-gradient-83"/>
    <linearGradient id="linear-gradient-85" x1="-71.428" y1="-134.249" x2="-62.955" y2="-138.862" xlink:href="#linear-gradient-83"/>
    <linearGradient id="linear-gradient-86" x1="-72.223" y1="-133.129" x2="-63.75" y2="-137.741" xlink:href="#linear-gradient-83"/>
    <linearGradient id="linear-gradient-87" x1="-73.018" y1="-132.009" x2="-64.545" y2="-136.622" xlink:href="#linear-gradient-83"/>
  </defs>
  <g id="kyc" transform="translate(-311.742 -53.581)">
    <g id="Group_1324" data-name="Group 1324" transform="translate(311.742 201.417)" opacity="0.2">
      <path id="Path_2742" data-name="Path 2742" d="M483.339,371.908a28.267,28.267,0,0,1-14.108-3.4L319.836,282.254c-5.144-2.97-8.094-7.67-8.094-12.894,0-5.727,3.553-11.062,9.748-14.637l84.783-48.951a34.744,34.744,0,0,1,17.132-4.355,28.263,28.263,0,0,1,14.107,3.4l149.395,86.253c5.145,2.971,8.094,7.67,8.094,12.894,0,5.725-3.552,11.06-9.746,14.637L500.47,367.553A34.737,34.737,0,0,1,483.339,371.908Z" transform="translate(-311.742 -201.417)" opacity="0"/>
      <path id="Path_2743" data-name="Path 2743" d="M406.647,206.42a33.973,33.973,0,0,1,17.082-4.233,32.562,32.562,0,0,1,7,.855,27.911,27.911,0,0,1,6.979,2.752l148.827,85.925c5.12,2.956,7.789,7.639,7.479,12.729a14.889,14.889,0,0,1-.9,4.119c-1.3,3.635-4.981,7.509-9.166,9.925l-83.58,48.256a33.068,33.068,0,0,1-3.634,1.794,35.527,35.527,0,0,1-13.216,2.612,27.638,27.638,0,0,1-13.915-3.294l-149.4-86.253c-5.132-2.963-7.787-7.662-7.451-12.757a15.351,15.351,0,0,1,.706-3.552c1.2-3.853,5.012-7.974,9.4-10.507Z" transform="translate(-311.742 -201.417)" opacity="0.091"/>
      <path id="Path_2744" data-name="Path 2744" d="M407.021,207.067a33.232,33.232,0,0,1,17.032-4.111,29.024,29.024,0,0,1,13.849,3.813l148.258,85.6c5.1,2.942,7.491,7.605,6.865,12.565a16.421,16.421,0,0,1-1.106,3.927c-1.268,3.235-5.507,7.349-9.273,9.524l-82.377,47.561a37.4,37.4,0,0,1-3.571,1.788,35.021,35.021,0,0,1-13,2.669,27,27,0,0,1-13.721-3.188L320.584,280.959c-5.119-2.956-7.486-7.647-6.809-12.618a17.606,17.606,0,0,1,.9-3.388c1.193-3.431,5.615-7.814,9.566-10.094Z" transform="translate(-311.742 -201.417)" opacity="0.182"/>
      <path id="Path_2745" data-name="Path 2745" d="M407.394,207.714a32.518,32.518,0,0,1,16.984-3.989,31.812,31.812,0,0,1,6.884,1.1,37.292,37.292,0,0,1,6.834,2.923l147.69,85.268c5.072,2.929,7.2,7.566,6.251,12.4a18.773,18.773,0,0,1-1.315,3.736c-1.218,2.838-6.032,7.189-9.38,9.122l-81.173,46.866c-.849.49-2.575,1.385-3.509,1.782a34.492,34.492,0,0,1-12.779,2.726,26.4,26.4,0,0,1-13.529-3.081L320.958,280.312c-5.107-2.949-7.194-7.627-6.166-12.481a21.386,21.386,0,0,1,1.1-3.224c1.164-3.011,6.217-7.653,9.729-9.68Z" transform="translate(-311.742 -201.417)" opacity="0.273"/>
      <path id="Path_2746" data-name="Path 2746" d="M407.768,208.362a31.794,31.794,0,0,1,16.934-3.867,31.418,31.418,0,0,1,6.828,1.216,44.4,44.4,0,0,1,6.761,3.009l147.121,84.941c5.048,2.914,6.918,7.524,5.637,12.236a22.65,22.65,0,0,1-1.524,3.544c-1.148,2.447-6.558,7.029-9.488,8.721l-79.969,46.17c-.743.429-2.631,1.425-3.445,1.777a34,34,0,0,1-12.561,2.783,25.777,25.777,0,0,1-13.336-2.975l-149.4-86.253c-5.093-2.941-6.911-7.6-5.523-12.342a28.538,28.538,0,0,1,1.3-3.06c1.112-2.6,6.821-7.494,9.893-9.267Z" transform="translate(-311.742 -201.417)" opacity="0.364"/>
      <path id="Path_2747" data-name="Path 2747" d="M408.142,209.009A29.606,29.606,0,0,1,431.8,206.6a53.975,53.975,0,0,1,6.688,3.1l146.554,84.612c5.023,2.9,6.646,7.482,5.022,12.073a29.554,29.554,0,0,1-1.734,3.351c-1.055,2.063-7.083,6.87-9.594,8.32l-78.765,45.475c-.637.368-2.687,1.465-3.383,1.771a33.476,33.476,0,0,1-12.343,2.84A25.177,25.177,0,0,1,471.1,365.27L321.7,279.017c-5.081-2.934-6.641-7.582-4.88-12.2.374-.982,1.009-1.868,1.494-2.9,1.033-2.189,7.423-7.333,10.056-8.853Z" transform="translate(-311.742 -201.417)" opacity="0.455"/>
      <path id="Path_2748" data-name="Path 2748" d="M408.516,209.657a28.62,28.62,0,0,1,23.548-2.166,67.947,67.947,0,0,1,6.616,3.18l145.985,84.285c5,2.886,6.385,7.442,4.408,11.908a12.992,12.992,0,0,1-1.943,3.16c-.6,1.836-7.609,6.709-9.7,7.918l-77.562,44.78c-.53.306-2.741,1.506-3.32,1.765a32.986,32.986,0,0,1-12.124,2.9,24.575,24.575,0,0,1-12.949-2.761L322.079,278.37c-5.068-2.927-6.383-7.563-4.238-12.067a13.258,13.258,0,0,1,1.691-2.732c.54-1.944,8.026-7.173,10.221-8.44Z" transform="translate(-311.742 -201.417)" opacity="0.545"/>
      <path id="Path_2749" data-name="Path 2749" d="M408.89,210.3a27.707,27.707,0,0,1,23.442-1.923c.919.295,5.786,2.829,6.542,3.266L584.291,295.6c4.975,2.872,6.135,7.408,3.794,11.744a13.2,13.2,0,0,1-2.152,2.968c-.477,1.469-8.135,6.55-9.809,7.516l-76.357,44.086c-.425.245-2.8,1.549-3.257,1.759a32.489,32.489,0,0,1-11.906,2.955,23.982,23.982,0,0,1-12.757-2.656L322.453,277.722c-5.056-2.919-6.136-7.55-3.6-11.929a13.493,13.493,0,0,1,1.888-2.567c.432-1.556,8.628-7.014,10.384-8.027Z" transform="translate(-311.742 -201.417)" opacity="0.636"/>
      <path id="Path_2750" data-name="Path 2750" d="M409.263,210.951A29.132,29.132,0,0,1,426,207.572a29.582,29.582,0,0,1,6.6,1.7c.686.232,5.9,3.025,6.47,3.352L583.917,296.25c4.951,2.859,5.9,7.382,3.18,11.58a13.517,13.517,0,0,1-2.362,2.777c-.357,1.1-8.659,6.389-9.915,7.114l-75.154,43.391c-.318.184-2.849,1.593-3.194,1.753a31.985,31.985,0,0,1-11.687,3.012,23.4,23.4,0,0,1-12.564-2.549L322.827,277.075c-5.044-2.912-5.9-7.547-2.953-11.791a13.929,13.929,0,0,1,2.086-2.4c.323-1.166,9.23-6.853,10.547-7.613Z" transform="translate(-311.742 -201.417)" opacity="0.727"/>
      <path id="Path_2751" data-name="Path 2751" d="M409.637,211.6a28.49,28.49,0,0,1,16.686-3.258,29.075,29.075,0,0,1,6.544,1.819c.455.161,6.018,3.219,6.4,3.438l144.28,83.3c4.927,2.844,5.664,7.366,2.566,11.415a14.031,14.031,0,0,1-2.571,2.585c-.239.735-9.185,6.23-10.022,6.713l-73.951,42.7c-.212.122-2.9,1.638-3.131,1.746a31.472,31.472,0,0,1-11.469,3.07c-4.617.255-9.1-.554-12.37-2.443L323.2,276.427c-5.03-2.9-5.672-7.554-2.31-11.652a14.465,14.465,0,0,1,2.283-2.24c.216-.778,9.833-6.693,10.711-7.2Z" transform="translate(-311.742 -201.417)" opacity="0.818"/>
      <path id="Path_2752" data-name="Path 2752" d="M410.011,212.246a27.889,27.889,0,0,1,16.636-3.136,28.638,28.638,0,0,1,6.487,1.94c.226.084,6.135,3.414,6.324,3.523L583.17,297.545c4.9,2.83,5.438,7.362,1.951,11.252a14.745,14.745,0,0,1-2.78,2.393c-.12.367-9.711,6.069-10.13,6.311l-72.746,42c-.106.062-2.954,1.687-3.068,1.741a30.975,30.975,0,0,1-11.251,3.127c-4.533.283-8.97-.484-12.177-2.336L323.574,275.78c-5.018-2.9-5.45-7.576-1.667-11.515a15.19,15.19,0,0,1,2.48-2.076c.108-.388,10.435-6.532,10.874-6.786Z" transform="translate(-311.742 -201.417)" opacity="0.909"/>
      <path id="Path_2753" data-name="Path 2753" d="M473.342,361.386,323.948,275.133c-5.9-3.406-5.16-9.356,1.652-13.289l84.785-48.95c6.812-3.933,17.117-4.361,23.016-.954l149.4,86.253c5.9,3.406,5.159,9.355-1.653,13.288l-84.784,48.95C489.547,364.364,479.242,364.792,473.342,361.386Z" transform="translate(-311.742 -201.417)"/>
    </g>
    <path id="Path_2754" data-name="Path 2754" d="M473.342,361.248,323.948,275c-2.629-1.518-3.94-3.541-3.982-5.666,0-.068,0-7.332,0-7.4.047-2.582,1.955,1.9,5.634-.222l84.785-48.95c6.812-3.933,17.117-4.36,23.016-.955l149.4,86.254c1.969,1.136,3.4-3.69,3.908-2.155.171.511.062,7.282.073,7.812.057,2.645-1.854,5.449-5.634,7.631l-84.784,48.95C489.547,364.227,479.242,364.655,473.342,361.248Z" transform="translate(0 0)" fill="url(#linear-gradient)"/>
    <path id="Path_2755" data-name="Path 2755" d="M473.342,353.985,323.948,267.732c-5.9-3.406-5.16-9.356,1.652-13.289l84.785-48.95c6.812-3.933,17.117-4.36,23.016-.954l149.4,86.253c5.9,3.406,5.159,9.355-1.653,13.288l-84.784,48.951C489.547,356.964,479.242,357.391,473.342,353.985Z" transform="translate(0 0)" fill="url(#linear-gradient-2)"/>
    <path id="Path_2756" data-name="Path 2756" d="M483.339,353.3a17.427,17.427,0,0,1-8.5-1.9l-149.4-86.252c-.93-.537-2.49-1.666-2.49-3.188,0-1.592,1.548-3.435,4.143-4.933l84.785-48.951a23.717,23.717,0,0,1,11.528-2.854,17.431,17.431,0,0,1,8.505,1.9L581.3,293.376c.931.537,2.49,1.665,2.49,3.187,0,1.591-1.549,3.435-4.143,4.934l-84.784,48.951A23.73,23.73,0,0,1,483.339,353.3Z" transform="translate(0 0)" fill="url(#linear-gradient-3)"/>
    <path id="Path_2757" data-name="Path 2757" d="M581.143,302.847,496.359,351.8c-6.812,3.933-17.117,4.36-23.017.954L323.948,266.5c-2.448-1.413-3.735-3.265-3.938-5.228-.306,2.41.982,4.755,3.938,6.462l149.394,86.253c5.9,3.406,16.2,2.979,23.017-.954l84.784-48.951c3.986-2.3,5.876-5.291,5.59-8.06C586.428,298.42,584.542,300.885,581.143,302.847Z" transform="translate(0 0)" fill="#fff"/>
    <path id="Path_2758" data-name="Path 2758" d="M580.952,287.47,434.016,202.637a12.3,12.3,0,0,1-5.671-14.057L460.353,77.848A12.3,12.3,0,0,1,478.327,70.6L625.263,155.43a12.3,12.3,0,0,1,5.671,14.057L598.925,280.219A12.3,12.3,0,0,1,580.952,287.47Z" transform="translate(0 0)" opacity="0.8" fill="url(#linear-gradient-4)"/>
    <path id="Path_2759" data-name="Path 2759" d="M578.9,287.47,431.96,202.637a12.3,12.3,0,0,1-5.671-14.057L458.3,77.848A12.3,12.3,0,0,1,476.271,70.6L623.207,155.43a12.3,12.3,0,0,1,5.671,14.057L596.87,280.219A12.3,12.3,0,0,1,578.9,287.47Z" transform="translate(0 0)" fill="url(#linear-gradient-5)"/>
    <g id="Group_1325" data-name="Group 1325" transform="translate(429.918 73.053)">
      <path id="Path_2760" data-name="Path 2760" d="M585.029,285.014a8.067,8.067,0,0,1-4.077-1.1L434.016,199.076a8.175,8.175,0,0,1-3.776-9.359L462.248,78.985a8.246,8.246,0,0,1,7.89-5.932,8.065,8.065,0,0,1,4.077,1.1l146.936,84.834a8.177,8.177,0,0,1,3.777,9.359L592.919,279.082A8.246,8.246,0,0,1,585.029,285.014Z" transform="translate(-429.918 -73.053)" opacity="0.2" fill="url(#linear-gradient-6)"/>
      <path id="Path_2761" data-name="Path 2761" d="M584.874,284.728a8.029,8.029,0,0,1-4.062-1.1L434.4,199.1a8.146,8.146,0,0,1-3.763-9.325l31.913-110.4a8.215,8.215,0,0,1,7.861-5.911,8.037,8.037,0,0,1,4.062,1.1l146.408,84.528a8.149,8.149,0,0,1,3.763,9.326l-31.914,110.4A8.214,8.214,0,0,1,584.874,284.728Z" transform="translate(-429.918 -73.053)" opacity="0.273" fill="url(#linear-gradient-7)"/>
      <path id="Path_2762" data-name="Path 2762" d="M584.719,284.442a8.008,8.008,0,0,1-4.048-1.1L434.793,199.123a8.117,8.117,0,0,1-3.749-9.291L462.861,79.765a8.186,8.186,0,0,1,7.833-5.89,8.009,8.009,0,0,1,4.048,1.1L620.62,159.194a8.12,8.12,0,0,1,3.75,9.292L592.552,278.553A8.185,8.185,0,0,1,584.719,284.442Z" transform="translate(-429.918 -73.053)" opacity="0.345" fill="url(#linear-gradient-8)"/>
      <path id="Path_2763" data-name="Path 2763" d="M584.564,284.156a7.969,7.969,0,0,1-4.033-1.092l-145.35-83.918a8.087,8.087,0,0,1-3.735-9.257L463.167,80.155a8.156,8.156,0,0,1,7.8-5.868A7.969,7.969,0,0,1,475,75.379L620.355,159.3a8.089,8.089,0,0,1,3.735,9.258L592.369,278.289A8.156,8.156,0,0,1,584.564,284.156Z" transform="translate(-429.918 -73.053)" opacity="0.418" fill="url(#linear-gradient-9)"/>
      <path id="Path_2764" data-name="Path 2764" d="M584.409,283.871a7.942,7.942,0,0,1-4.018-1.089L435.57,199.17a8.057,8.057,0,0,1-3.721-9.224l31.625-109.4A8.125,8.125,0,0,1,471.25,74.7a7.941,7.941,0,0,1,4.018,1.088L620.089,159.4a8.06,8.06,0,0,1,3.722,9.225l-31.626,109.4A8.126,8.126,0,0,1,584.409,283.871Z" transform="translate(-429.918 -73.053)" opacity="0.491" fill="url(#linear-gradient-10)"/>
      <path id="Path_2765" data-name="Path 2765" d="M584.254,283.585a7.919,7.919,0,0,1-4-1.084L435.958,199.193a8.027,8.027,0,0,1-3.707-9.19L463.78,80.934a8.1,8.1,0,0,1,7.748-5.825,7.918,7.918,0,0,1,4,1.084L619.823,159.5a8.03,8.03,0,0,1,3.709,9.191L592,277.76A8.1,8.1,0,0,1,584.254,283.585Z" transform="translate(-429.918 -73.053)" opacity="0.564" fill="url(#linear-gradient-11)"/>
      <path id="Path_2766" data-name="Path 2766" d="M584.1,283.3a7.9,7.9,0,0,1-3.989-1.08l-143.763-83a8,8,0,0,1-3.694-9.156L464.086,81.324a8.067,8.067,0,0,1,7.72-5.8,7.9,7.9,0,0,1,3.989,1.08l143.763,83a8,8,0,0,1,3.7,9.157L591.818,277.495A8.065,8.065,0,0,1,584.1,283.3Z" transform="translate(-429.918 -73.053)" opacity="0.636" fill="url(#linear-gradient-12)"/>
      <path id="Path_2767" data-name="Path 2767" d="M583.944,283.013a7.858,7.858,0,0,1-3.974-1.076l-143.235-82.7a7.969,7.969,0,0,1-3.68-9.123l31.338-108.4a8.036,8.036,0,0,1,7.691-5.783,7.859,7.859,0,0,1,3.974,1.077l143.234,82.7a7.97,7.97,0,0,1,3.682,9.123l-31.339,108.4A8.037,8.037,0,0,1,583.944,283.013Z" transform="translate(-429.918 -73.053)" opacity="0.709" fill="url(#linear-gradient-13)"/>
      <path id="Path_2768" data-name="Path 2768" d="M583.789,282.727a7.836,7.836,0,0,1-3.96-1.072L437.124,199.263a7.938,7.938,0,0,1-3.667-9.089L464.7,82.1a8.007,8.007,0,0,1,7.662-5.761,7.822,7.822,0,0,1,3.96,1.073l142.706,82.391A7.942,7.942,0,0,1,622.7,168.9L591.452,276.966A8.008,8.008,0,0,1,583.789,282.727Z" transform="translate(-429.918 -73.053)" opacity="0.782" fill="url(#linear-gradient-14)"/>
      <path id="Path_2769" data-name="Path 2769" d="M583.634,282.441a7.8,7.8,0,0,1-3.945-1.068L437.512,199.287a7.911,7.911,0,0,1-3.653-9.056L465,82.493a7.977,7.977,0,0,1,7.634-5.739,7.8,7.8,0,0,1,3.945,1.068l142.177,82.085a7.913,7.913,0,0,1,3.654,9.057L591.268,276.7A7.977,7.977,0,0,1,583.634,282.441Z" transform="translate(-429.918 -73.053)" opacity="0.855" fill="url(#linear-gradient-15)"/>
      <path id="Path_2770" data-name="Path 2770" d="M583.479,282.156a7.771,7.771,0,0,1-3.93-1.065L437.9,199.31a7.88,7.88,0,0,1-3.64-9.022l31.05-107.4a7.948,7.948,0,0,1,7.606-5.718,7.776,7.776,0,0,1,3.931,1.064L618.5,160.009a7.883,7.883,0,0,1,3.64,9.023L591.085,276.437A7.948,7.948,0,0,1,583.479,282.156Z" transform="translate(-429.918 -73.053)" opacity="0.927" fill="url(#linear-gradient-16)"/>
      <path id="Path_2771" data-name="Path 2771" d="M583.324,281.87a7.739,7.739,0,0,1-3.916-1.061L438.289,199.334a7.851,7.851,0,0,1-3.626-8.988L465.618,83.273a7.917,7.917,0,0,1,7.577-5.7,7.748,7.748,0,0,1,3.916,1.06L618.23,160.111a7.855,7.855,0,0,1,3.627,8.989L590.9,276.173A7.917,7.917,0,0,1,583.324,281.87Z" transform="translate(-429.918 -73.053)" fill="url(#linear-gradient-17)"/>
    </g>
    <path id="Path_2772" data-name="Path 2772" d="M623.207,155.43,476.271,70.6a12.193,12.193,0,0,0-8.426-1.425,12.176,12.176,0,0,1,7.467,1.563l146.936,84.833a12.3,12.3,0,0,1,5.671,14.057L595.91,280.356a12.265,12.265,0,0,1-9.547,8.677,12.275,12.275,0,0,0,10.507-8.814l32.008-110.732A12.3,12.3,0,0,0,623.207,155.43Z" transform="translate(0 0)" fill="#fff"/>
    <path id="Path_2773" data-name="Path 2773" d="M499.891,322.213,378.576,252.171c-2.43-1.4-2.125-3.852.68-5.472L424.8,220.4c2.8-1.62,7.048-1.8,9.477-.393L555.6,290.051c2.429,1.4,2.125,3.853-.68,5.472l-45.547,26.3C506.564,323.439,502.32,323.615,499.891,322.213Z" transform="translate(0 0)" fill="url(#linear-gradient-18)"/>
    <path id="Path_2774" data-name="Path 2774" d="M427.459,225.521l7.774,4.488a3.941,3.941,0,0,0,3.569.006,1.087,1.087,0,0,0-.011-2.06l-7.774-4.489a3.948,3.948,0,0,0-3.569-.006A1.088,1.088,0,0,0,427.459,225.521ZM440.77,233.2l3.682,2.126a3.944,3.944,0,0,0,3.569.007,1.088,1.088,0,0,0-.011-2.061l-3.683-2.126a3.939,3.939,0,0,0-3.568-.006A1.087,1.087,0,0,0,440.77,233.2Zm9.219,5.323,3.682,2.126a3.941,3.941,0,0,0,3.569.006,1.087,1.087,0,0,0-.011-2.06l-3.683-2.126a3.944,3.944,0,0,0-3.569-.007A1.088,1.088,0,0,0,449.989,238.528Zm9.218,5.322,3.683,2.126a3.944,3.944,0,0,0,3.569.007,1.088,1.088,0,0,0-.011-2.061l-3.683-2.126a3.941,3.941,0,0,0-3.569-.006A1.087,1.087,0,0,0,459.207,243.85Zm9.219,5.323,3.683,2.126a3.944,3.944,0,0,0,3.569.006,1.087,1.087,0,0,0-.012-2.06l-3.682-2.126a3.944,3.944,0,0,0-3.569-.007A1.088,1.088,0,0,0,468.426,249.173Zm9.219,5.322,3.683,2.126a3.944,3.944,0,0,0,3.569.007,1.088,1.088,0,0,0-.012-2.061l-3.682-2.126a3.944,3.944,0,0,0-3.569-.006A1.087,1.087,0,0,0,477.645,254.495Zm9.219,5.323,3.682,2.126a3.944,3.944,0,0,0,3.569.006,1.087,1.087,0,0,0-.011-2.06l-3.682-2.126a3.944,3.944,0,0,0-3.569-.007A1.088,1.088,0,0,0,486.864,259.818Zm9.219,5.322,3.682,2.126a3.944,3.944,0,0,0,3.569.007,1.088,1.088,0,0,0-.011-2.061l-3.682-2.126a3.945,3.945,0,0,0-3.569-.006A1.087,1.087,0,0,0,496.083,265.14Zm9.219,5.323,3.682,2.126a3.941,3.941,0,0,0,3.569.006,1.087,1.087,0,0,0-.011-2.06l-3.682-2.126a3.944,3.944,0,0,0-3.569-.007A1.088,1.088,0,0,0,505.3,270.463Zm9.219,5.322,3.682,2.126a3.944,3.944,0,0,0,3.569.007,1.088,1.088,0,0,0-.011-2.061l-3.683-2.126a3.945,3.945,0,0,0-3.569-.006A1.087,1.087,0,0,0,514.521,275.785Zm9.218,5.323,3.683,2.126a3.941,3.941,0,0,0,3.569.006,1.087,1.087,0,0,0-.011-2.06l-3.683-2.126a3.944,3.944,0,0,0-3.569-.007A1.088,1.088,0,0,0,523.739,281.108Zm9.219,5.322,3.683,2.126a3.944,3.944,0,0,0,3.569.007,1.088,1.088,0,0,0-.011-2.061l-3.683-2.126a3.948,3.948,0,0,0-3.569-.006A1.087,1.087,0,0,0,532.958,286.43Zm9.411,5.434,3.682,2.126a3.948,3.948,0,0,0,3.569.006,1.087,1.087,0,0,0-.011-2.06l-3.682-2.127a3.948,3.948,0,0,0-3.569-.006A1.088,1.088,0,0,0,542.369,291.864Zm-123.2-61.271,3.188,1.841a4.493,4.493,0,0,0,4.062.007l3.168-1.829a1.238,1.238,0,0,0-.013-2.345l-3.188-1.841a4.487,4.487,0,0,0-4.062-.007l-3.168,1.829A1.238,1.238,0,0,0,419.168,230.593Zm16.468,7.171,3.169-1.83a1.238,1.238,0,0,0-.013-2.345l-3.188-1.84a4.49,4.49,0,0,0-4.062-.008l-3.168,1.829a1.238,1.238,0,0,0,.013,2.345l3.188,1.841A4.488,4.488,0,0,0,435.636,237.764Zm1.969,3.474,3.189,1.841a4.491,4.491,0,0,0,4.061.007l3.168-1.829a1.238,1.238,0,0,0-.012-2.345l-3.188-1.841a4.49,4.49,0,0,0-4.062-.007l-3.168,1.829A1.238,1.238,0,0,0,437.6,241.238Zm9.219,5.323,3.188,1.84a4.487,4.487,0,0,0,4.062.007l3.168-1.829a1.238,1.238,0,0,0-.012-2.345l-3.188-1.84a4.49,4.49,0,0,0-4.062-.008l-3.168,1.83A1.238,1.238,0,0,0,446.824,246.561Zm19.624,3-3.188-1.841a4.488,4.488,0,0,0-4.061-.007l-3.169,1.829a1.238,1.238,0,0,0,.013,2.345l3.188,1.841a4.49,4.49,0,0,0,4.062.007l3.168-1.829A1.238,1.238,0,0,0,466.448,249.557Zm9.219,5.322-3.188-1.84a4.49,4.49,0,0,0-4.062-.008l-3.168,1.83a1.238,1.238,0,0,0,.013,2.345l3.188,1.84a4.49,4.49,0,0,0,4.062.008l3.168-1.83A1.238,1.238,0,0,0,475.667,254.879Zm9.219,5.323-3.188-1.841a4.49,4.49,0,0,0-4.062-.007l-3.168,1.829a1.238,1.238,0,0,0,.013,2.345l3.188,1.841a4.49,4.49,0,0,0,4.062.007l3.168-1.829A1.238,1.238,0,0,0,484.886,260.2Zm9.219,5.322-3.188-1.84a4.49,4.49,0,0,0-4.062-.008l-3.168,1.829a1.239,1.239,0,0,0,.013,2.346l3.188,1.84a4.49,4.49,0,0,0,4.062.008l3.168-1.83A1.238,1.238,0,0,0,494.1,265.524Zm9.219,5.323-3.188-1.841a4.49,4.49,0,0,0-4.062-.007l-3.168,1.829a1.238,1.238,0,0,0,.013,2.345l3.188,1.841a4.488,4.488,0,0,0,4.061.007l3.169-1.829A1.238,1.238,0,0,0,503.324,270.847Zm9.219,5.322-3.188-1.84a4.49,4.49,0,0,0-4.062-.008l-3.168,1.829a1.238,1.238,0,0,0,.012,2.346l3.189,1.84a4.488,4.488,0,0,0,4.061.008l3.168-1.83A1.238,1.238,0,0,0,512.543,276.169Zm-1.187,7.649,3.188,1.841a4.49,4.49,0,0,0,4.062.007l3.168-1.829a1.238,1.238,0,0,0-.012-2.345l-3.188-1.841a4.49,4.49,0,0,0-4.062-.007l-3.168,1.829A1.238,1.238,0,0,0,511.356,283.818Zm19.624,3-3.188-1.84a4.488,4.488,0,0,0-4.061-.008l-3.169,1.83a1.238,1.238,0,0,0,.013,2.345l3.188,1.84a4.49,4.49,0,0,0,4.062.008l3.168-1.83A1.238,1.238,0,0,0,530.98,286.814Zm13.5,7.8-7.28-4.2a4.487,4.487,0,0,0-4.062-.007l-3.168,1.829a1.238,1.238,0,0,0,.013,2.345l7.279,4.2a4.49,4.49,0,0,0,4.062.007l3.168-1.829A1.238,1.238,0,0,0,544.483,294.61ZM410.629,235.523l7.28,4.2a4.488,4.488,0,0,0,4.061.007l3.169-1.829a1.238,1.238,0,0,0-.013-2.345l-7.28-4.2a4.487,4.487,0,0,0-4.062-.007l-3.168,1.829A1.238,1.238,0,0,0,410.629,235.523Zm13.31,7.685,3.189,1.84a4.488,4.488,0,0,0,4.061.008l3.168-1.829a1.238,1.238,0,0,0-.012-2.346l-3.188-1.84a4.49,4.49,0,0,0-4.062-.008l-3.168,1.829A1.238,1.238,0,0,0,423.939,243.208Zm12.407,7.163a4.49,4.49,0,0,0,4.062.007l3.168-1.829a1.238,1.238,0,0,0-.012-2.345l-3.188-1.841a4.49,4.49,0,0,0-4.062-.007l-3.168,1.829a1.238,1.238,0,0,0,.012,2.345Zm9.219,5.322a4.49,4.49,0,0,0,4.062.008l3.168-1.83a1.238,1.238,0,0,0-.013-2.345l-3.188-1.84a4.488,4.488,0,0,0-4.061-.008l-3.169,1.83a1.238,1.238,0,0,0,.013,2.345Zm9.186-.692-3.168,1.829a1.238,1.238,0,0,0,.013,2.345l3.188,1.841a4.49,4.49,0,0,0,4.062.007l3.168-1.829a1.238,1.238,0,0,0-.013-2.345l-3.188-1.841A4.49,4.49,0,0,0,454.751,255Zm9.414,5.21-3.558,2.054a1.119,1.119,0,0,0,.012,2.12l3.58,2.066a4.056,4.056,0,0,0,3.671.007l3.558-2.054a1.118,1.118,0,0,0-.012-2.119l-3.58-2.067A4.056,4.056,0,0,0,464.165,260.211Zm9.219,5.322-3.558,2.055a1.118,1.118,0,0,0,.012,2.119l3.58,2.067a4.059,4.059,0,0,0,3.671.007l3.558-2.054a1.119,1.119,0,0,0-.012-2.12l-3.58-2.067A4.059,4.059,0,0,0,473.384,265.533Zm9.219,5.323-3.558,2.054a1.119,1.119,0,0,0,.012,2.12l3.58,2.066a4.053,4.053,0,0,0,3.671.007l3.557-2.054a1.118,1.118,0,0,0-.011-2.119l-3.58-2.067A4.056,4.056,0,0,0,482.6,270.856Zm9.219,5.323-3.558,2.054a1.118,1.118,0,0,0,.011,2.119l3.581,2.067a4.059,4.059,0,0,0,3.671.007l3.557-2.054a1.119,1.119,0,0,0-.011-2.12l-3.58-2.067A4.056,4.056,0,0,0,491.822,276.179Zm9.219,5.322-3.558,2.054a1.118,1.118,0,0,0,.011,2.119l3.58,2.068a4.056,4.056,0,0,0,3.671.006l3.558-2.054a1.118,1.118,0,0,0-.011-2.119l-3.58-2.067A4.059,4.059,0,0,0,501.041,281.5Zm12.923,11.57,3.558-2.054a1.119,1.119,0,0,0-.011-2.12l-3.581-2.067a4.056,4.056,0,0,0-3.671-.006l-3.557,2.054a1.118,1.118,0,0,0,.011,2.119l3.58,2.067A4.059,4.059,0,0,0,513.964,293.071Zm9.219,5.322,3.558-2.054a1.118,1.118,0,0,0-.012-2.119l-3.58-2.067a4.059,4.059,0,0,0-3.671-.007l-3.557,2.054a1.119,1.119,0,0,0,.011,2.12l3.58,2.067A4.056,4.056,0,0,0,523.183,298.393Zm12.957,1.26-3.58-2.067a4.059,4.059,0,0,0-3.671-.007l-3.558,2.054a1.119,1.119,0,0,0,.012,2.12l3.58,2.067a4.056,4.056,0,0,0,3.671.006l3.558-2.054A1.118,1.118,0,0,0,536.14,299.653ZM401.894,240.34l11.559,6.673a4.059,4.059,0,0,0,3.671.007l3.558-2.054a1.119,1.119,0,0,0-.012-2.12l-11.558-6.673a4.056,4.056,0,0,0-3.671-.007l-3.558,2.054A1.119,1.119,0,0,0,401.894,240.34Zm17.2,9.928,3.58,2.067a4.056,4.056,0,0,0,3.671.007l3.558-2.054a1.118,1.118,0,0,0-.012-2.119l-3.58-2.067a4.056,4.056,0,0,0-3.671-.007l-3.558,2.054A1.118,1.118,0,0,0,419.092,250.268Zm9.219,5.323,3.58,2.067a4.059,4.059,0,0,0,3.671.007l3.557-2.054a1.119,1.119,0,0,0-.011-2.12l-3.58-2.067a4.059,4.059,0,0,0-3.671-.007l-3.558,2.054A1.119,1.119,0,0,0,428.311,255.591Zm9.218,5.323,3.581,2.066a4.059,4.059,0,0,0,3.671.007l3.557-2.054a1.118,1.118,0,0,0-.011-2.119l-3.58-2.067a4.053,4.053,0,0,0-3.671-.007l-3.558,2.054A1.119,1.119,0,0,0,437.529,260.914Zm16.47,7.4,3.558-2.055a1.118,1.118,0,0,0-.011-2.119l-3.58-2.067a4.056,4.056,0,0,0-3.671-.006l-3.558,2.054a1.118,1.118,0,0,0,.011,2.119l3.58,2.067A4.059,4.059,0,0,0,454,268.31Zm9.219,5.322,3.558-2.054a1.118,1.118,0,0,0-.011-2.119l-3.581-2.067a4.056,4.056,0,0,0-3.671-.007l-3.557,2.054a1.118,1.118,0,0,0,.011,2.119l3.58,2.068A4.056,4.056,0,0,0,463.218,273.632Zm9.219,5.323,3.558-2.055a1.118,1.118,0,0,0-.012-2.119l-3.58-2.067a4.056,4.056,0,0,0-3.671-.006l-3.557,2.054a1.118,1.118,0,0,0,.011,2.119l3.58,2.067A4.059,4.059,0,0,0,472.437,278.955Zm9.219,5.322,3.558-2.054a1.118,1.118,0,0,0-.012-2.119l-3.58-2.067a4.059,4.059,0,0,0-3.671-.007l-3.558,2.054a1.118,1.118,0,0,0,.012,2.119l3.58,2.068A4.056,4.056,0,0,0,481.656,284.277Zm9.219,5.323,3.558-2.054a1.119,1.119,0,0,0-.012-2.12l-3.58-2.067a4.056,4.056,0,0,0-3.671-.006l-3.558,2.054a1.118,1.118,0,0,0,.012,2.119l3.58,2.067A4.059,4.059,0,0,0,490.875,289.6Zm9.219,5.322,3.557-2.054a1.118,1.118,0,0,0-.011-2.119l-3.58-2.067a4.059,4.059,0,0,0-3.671-.007l-3.558,2.054a1.119,1.119,0,0,0,.012,2.12l3.58,2.066A4.053,4.053,0,0,0,500.094,294.922Zm1.967,3.249,3.581,2.067a4.059,4.059,0,0,0,3.671.007l3.557-2.054a1.119,1.119,0,0,0-.011-2.12L509.279,294a4.059,4.059,0,0,0-3.671-.007l-3.558,2.055A1.118,1.118,0,0,0,502.061,298.171Zm25.54,6.412-9.1-5.256a4.059,4.059,0,0,0-3.671-.007l-3.558,2.054a1.119,1.119,0,0,0,.011,2.12l9.1,5.256a4.056,4.056,0,0,0,3.671.006l3.558-2.054A1.118,1.118,0,0,0,527.6,304.583Zm-134.21-59.059,16.4,9.469a4.584,4.584,0,0,0,4.147.008l3.084-1.78a1.265,1.265,0,0,0-.013-2.395l-16.4-9.468a4.581,4.581,0,0,0-4.147-.008l-3.083,1.78A1.263,1.263,0,0,0,393.391,245.524Zm22.516,13,3.1,1.792a4.584,4.584,0,0,0,4.147.007l3.083-1.78a1.264,1.264,0,0,0-.012-2.394l-3.1-1.791a4.581,4.581,0,0,0-4.147-.008l-3.083,1.78A1.264,1.264,0,0,0,415.907,258.524Zm9.219,5.323,3.1,1.791a4.584,4.584,0,0,0,4.147.008l3.083-1.78a1.264,1.264,0,0,0-.013-2.395l-3.1-1.791a4.584,4.584,0,0,0-4.147-.007l-3.084,1.78A1.264,1.264,0,0,0,425.126,263.847Zm9.219,5.322,3.1,1.792a4.584,4.584,0,0,0,4.147.007l3.083-1.78a1.263,1.263,0,0,0-.013-2.394l-3.1-1.791a4.579,4.579,0,0,0-4.146-.008l-3.084,1.78A1.264,1.264,0,0,0,434.345,269.169Zm9.219,5.323,3.1,1.791a4.581,4.581,0,0,0,4.147.008l3.083-1.78a1.263,1.263,0,0,0-.013-2.394l-3.1-1.792a4.581,4.581,0,0,0-4.147-.007l-3.083,1.78A1.264,1.264,0,0,0,443.564,274.492Zm9.219,5.322,3.1,1.792a4.584,4.584,0,0,0,4.147.007l3.083-1.78a1.264,1.264,0,0,0-.013-2.394l-3.1-1.791a4.581,4.581,0,0,0-4.147-.008l-3.083,1.78A1.263,1.263,0,0,0,452.783,279.814ZM462,285.137l3.1,1.791a4.579,4.579,0,0,0,4.146.008l3.084-1.78a1.264,1.264,0,0,0-.013-2.394l-3.1-1.792a4.584,4.584,0,0,0-4.147-.007l-3.083,1.78A1.263,1.263,0,0,0,462,285.137Zm9.219,5.323,3.1,1.791a4.584,4.584,0,0,0,4.147.007l3.084-1.78a1.264,1.264,0,0,0-.013-2.394l-3.1-1.791a4.581,4.581,0,0,0-4.147-.008l-3.083,1.78A1.264,1.264,0,0,0,471.221,290.46Zm9.218,5.322,3.1,1.791a4.581,4.581,0,0,0,4.147.008l3.084-1.78a1.265,1.265,0,0,0-.013-2.395l-3.1-1.791a4.584,4.584,0,0,0-4.147-.007l-3.083,1.78A1.264,1.264,0,0,0,480.439,295.782Zm9.219,5.322,3.1,1.792a4.584,4.584,0,0,0,4.147.007l3.083-1.78a1.263,1.263,0,0,0-.013-2.394l-3.1-1.791a4.581,4.581,0,0,0-4.147-.008l-3.084,1.78A1.264,1.264,0,0,0,489.658,301.1Zm9.219,5.323,3.1,1.791a4.581,4.581,0,0,0,4.147.008l3.083-1.78a1.264,1.264,0,0,0-.013-2.4l-3.1-1.791a4.582,4.582,0,0,0-4.146-.007l-3.084,1.78A1.264,1.264,0,0,0,498.877,306.427Zm19.744,3.065-3.1-1.791a4.584,4.584,0,0,0-4.147-.008l-3.083,1.781a1.263,1.263,0,0,0,.013,2.394l3.1,1.791a4.581,4.581,0,0,0,4.147.007l3.084-1.78A1.264,1.264,0,0,0,518.621,309.492ZM399.264,250.441l-7.2-4.154a4.582,4.582,0,0,0-4.146-.007l-3.084,1.78a1.264,1.264,0,0,0,.013,2.394l7.2,4.154a4.582,4.582,0,0,0,4.146.007l3.084-1.78A1.264,1.264,0,0,0,399.264,250.441Zm9.219,5.323-3.1-1.792a4.584,4.584,0,0,0-4.147-.007l-3.083,1.78a1.263,1.263,0,0,0,.013,2.394l3.1,1.792a4.584,4.584,0,0,0,4.147.007l3.084-1.78A1.264,1.264,0,0,0,408.483,255.764Zm9.219,5.322-3.1-1.791a4.581,4.581,0,0,0-4.147-.008l-3.083,1.78a1.264,1.264,0,0,0,.013,2.4l3.1,1.791a4.584,4.584,0,0,0,4.147.008l3.084-1.781A1.264,1.264,0,0,0,417.7,261.086Zm64.532,37.258-58.416-33.727a4.584,4.584,0,0,0-4.147-.007l-3.084,1.78a1.264,1.264,0,0,0,.013,2.394l58.416,33.727a4.584,4.584,0,0,0,4.147.007l3.084-1.78A1.264,1.264,0,0,0,482.234,298.344Zm9.218,5.322-3.1-1.791a4.584,4.584,0,0,0-4.147-.008l-3.084,1.78a1.265,1.265,0,0,0,.013,2.395l3.1,1.791a4.584,4.584,0,0,0,4.147.008l3.083-1.781A1.263,1.263,0,0,0,491.452,303.666Zm9.219,5.323-3.1-1.792a4.584,4.584,0,0,0-4.147-.007l-3.084,1.78a1.264,1.264,0,0,0,.013,2.394l3.1,1.792a4.584,4.584,0,0,0,4.147.007l3.083-1.78A1.263,1.263,0,0,0,500.671,308.989Zm9.411,5.433-3.1-1.791a4.581,4.581,0,0,0-4.147-.008l-3.083,1.78a1.263,1.263,0,0,0,.013,2.394l3.1,1.792a4.584,4.584,0,0,0,4.147.007l3.083-1.78A1.264,1.264,0,0,0,510.082,314.422Z" transform="translate(0 0)" opacity="0.3" fill="url(#linear-gradient-19)" style="mix-blend-mode: screen;isolation: isolate"/>
    <g id="Group_1327" data-name="Group 1327" transform="translate(421.693 53.581)">
      <path id="Path_2775" data-name="Path 2775" d="M605.727,150.746l-20.5,141.75-4.25,7.5-155.656-94.82,39.906-134.93Z" transform="translate(-421.693 -53.581)" fill="url(#linear-gradient-20)" style="mix-blend-mode: multiply;isolation: isolate"/>
      <path id="Path_2776" data-name="Path 2776" d="M581.217,147.335V299.761L422.419,208.2V55.773Z" transform="translate(-421.693 -53.581)" fill="url(#linear-gradient-21)"/>
      <path id="Path_2777" data-name="Path 2777" d="M581.217,145.143v19.546l-.726.363L422.419,73.128l-.726-19.184.726-.363Z" transform="translate(-421.693 -53.581)" fill="url(#linear-gradient-22)"/>
      <path id="Path_2778" data-name="Path 2778" d="M580.491,147.7V300.123l-158.8-91.562V56.136Z" transform="translate(-421.693 -53.581)" fill="url(#linear-gradient-23)"/>
      <path id="Path_2779" data-name="Path 2779" d="M426.092,205.512V82.466l150,86.492V292Z" transform="translate(-421.693 -53.581)" fill="url(#linear-gradient-24)"/>
      <path id="Path_2780" data-name="Path 2780" d="M580.491,145.506v19.546L421.693,73.49V53.944Z" transform="translate(-421.693 -53.581)" fill="url(#linear-gradient-25)"/>
      <path id="Path_2781" data-name="Path 2781" d="M429.336,65.227l10.547,6.089c.4.232.727.046.727-.415a1.6,1.6,0,0,0-.727-1.254l-10.547-6.089c-.4-.232-.727-.046-.727.415A1.6,1.6,0,0,0,429.336,65.227ZM439.883,73.4l-10.547-6.089c-.4-.232-.727-.047-.727.414a1.605,1.605,0,0,0,.727,1.255l10.547,6.089c.4.232.727.046.727-.415A1.6,1.6,0,0,0,439.883,73.4Zm0,3.755-10.547-6.089c-.4-.232-.727-.046-.727.415a1.605,1.605,0,0,0,.727,1.255l10.547,6.088c.4.232.727.047.727-.414A1.605,1.605,0,0,0,439.883,77.158Z" transform="translate(-421.693 -53.581)" fill="#fff"/>
      <g id="Group_1326" data-name="Group 1326" transform="translate(134.253 85.796)">
        <path id="Path_2782" data-name="Path 2782" d="M574.093,151.5c0,1.431-1.012,2.008-2.259,1.288a4.978,4.978,0,0,1-2.259-3.9c0-1.431,1.011-2.008,2.259-1.288A4.981,4.981,0,0,1,574.093,151.5Z" transform="translate(-555.946 -139.377)" fill="#fff"/>
        <path id="Path_2783" data-name="Path 2783" d="M567.279,147.544c0,1.432-1.012,2.008-2.259,1.288a4.978,4.978,0,0,1-2.259-3.9c0-1.431,1.011-2.008,2.259-1.287A4.977,4.977,0,0,1,567.279,147.544Z" transform="translate(-555.946 -139.377)" fill="#fff"/>
        <path id="Path_2784" data-name="Path 2784" d="M560.464,143.584c0,1.432-1.011,2.008-2.259,1.288a4.979,4.979,0,0,1-2.259-3.9c0-1.432,1.012-2.009,2.259-1.288A4.976,4.976,0,0,1,560.464,143.584Z" transform="translate(-555.946 -139.377)" fill="#fff"/>
      </g>
    </g>
    <g id="Group_1352" data-name="Group 1352" transform="translate(436.938 105.526)">
      <g id="Group_1333" data-name="Group 1333">
        <g id="Group_1328" data-name="Group 1328" transform="translate(108.75 63)">
          <path id="Path_2785" data-name="Path 2785" d="M557.754,171.857v2.1l-9.4-5.428v13.786l18.754,10.828V177.256Z" transform="translate(-545.688 -168.526)" fill="#f1f2f2" style="mix-blend-mode: multiply;isolation: isolate"/>
          <path id="Path_2786" data-name="Path 2786" d="M556.612,172.237v2.1l-9.4-5.428v13.786l17.251,11.759,1.5-.932V177.637Z" transform="translate(-545.688 -168.526)" fill="url(#linear-gradient-26)"/>
          <path id="Path_2787" data-name="Path 2787" d="M546.354,183l18.754,10.828V180.9L546.354,170.07Z" transform="translate(-545.688 -168.526)" fill="#fff"/>
          <path id="Path_2788" data-name="Path 2788" d="M545.688,183.581l18.754,10.828V182.9l-18.754-10.828Z" transform="translate(-545.688 -168.526)" fill="url(#linear-gradient-27)"/>
        </g>
        <g id="Group_1329" data-name="Group 1329" transform="translate(81.563 47.25)">
          <path id="Path_2789" data-name="Path 2789" d="M530.567,156.107v2.1l-9.4-5.428v13.786l18.754,10.828V161.506Z" transform="translate(-518.5 -152.776)" fill="#f1f2f2" style="mix-blend-mode: multiply;isolation: isolate"/>
          <path id="Path_2790" data-name="Path 2790" d="M529.425,156.488v2.1l-9.4-5.428v13.786L537.273,178.7l1.5-.932V161.887Z" transform="translate(-518.5 -152.776)" fill="url(#linear-gradient-26)"/>
          <path id="Path_2791" data-name="Path 2791" d="M519.167,167.248l18.754,10.828V165.148L519.167,154.32Z" transform="translate(-518.5 -152.776)" fill="#fff"/>
          <path id="Path_2792" data-name="Path 2792" d="M518.5,167.831l18.754,10.828v-11.51L518.5,156.321Z" transform="translate(-518.5 -152.776)" fill="url(#linear-gradient-27)"/>
        </g>
        <g id="Group_1330" data-name="Group 1330" transform="translate(54.375 31.5)">
          <path id="Path_2793" data-name="Path 2793" d="M503.379,140.357v2.1l-9.4-5.428v13.786l18.754,10.828V145.756Z" transform="translate(-491.312 -137.026)" fill="#f1f2f2" style="mix-blend-mode: multiply;isolation: isolate"/>
          <path id="Path_2794" data-name="Path 2794" d="M502.237,140.738v2.1l-9.4-5.428v13.786l17.251,11.759,1.5-.932V146.137Z" transform="translate(-491.312 -137.026)" fill="url(#linear-gradient-26)"/>
          <path id="Path_2795" data-name="Path 2795" d="M491.979,151.5l18.754,10.828V149.4L491.979,138.57Z" transform="translate(-491.312 -137.026)" fill="#fff"/>
          <path id="Path_2796" data-name="Path 2796" d="M491.312,152.081l18.754,10.828V151.4l-18.754-10.828Z" transform="translate(-491.312 -137.026)" fill="url(#linear-gradient-27)"/>
        </g>
        <g id="Group_1331" data-name="Group 1331" transform="translate(27.188 15.75)">
          <path id="Path_2797" data-name="Path 2797" d="M476.192,124.607v2.1l-9.4-5.428v13.786l18.754,10.828V130.006Z" transform="translate(-464.125 -121.276)" fill="#f1f2f2" style="mix-blend-mode: multiply;isolation: isolate"/>
          <path id="Path_2798" data-name="Path 2798" d="M475.05,124.987v2.1l-9.4-5.428v13.786L482.9,147.2l1.5-.932V130.387Z" transform="translate(-464.125 -121.276)" fill="url(#linear-gradient-26)"/>
          <path id="Path_2799" data-name="Path 2799" d="M464.792,135.748l18.754,10.828V133.648L464.792,122.82Z" transform="translate(-464.125 -121.276)" fill="#fff"/>
          <path id="Path_2800" data-name="Path 2800" d="M464.125,136.331l18.754,10.828v-11.51l-18.754-10.828Z" transform="translate(-464.125 -121.276)" fill="url(#linear-gradient-27)"/>
        </g>
        <g id="Group_1332" data-name="Group 1332">
          <path id="Path_2801" data-name="Path 2801" d="M449,108.857v2.1l-9.4-5.428v13.786l18.754,10.828V114.256Z" transform="translate(-436.937 -105.526)" fill="#f1f2f2" style="mix-blend-mode: multiply;isolation: isolate"/>
          <path id="Path_2802" data-name="Path 2802" d="M447.862,109.237v2.1l-9.4-5.428v13.786l17.251,11.759,1.5-.932V114.637Z" transform="translate(-436.937 -105.526)" fill="url(#linear-gradient-26)"/>
          <path id="Path_2803" data-name="Path 2803" d="M437.6,120l18.754,10.828V117.9L437.6,107.07Z" transform="translate(-436.937 -105.526)" fill="#fff"/>
          <path id="Path_2804" data-name="Path 2804" d="M436.937,120.581l18.754,10.828V119.9l-18.754-10.828Z" transform="translate(-436.937 -105.526)" fill="url(#linear-gradient-27)"/>
        </g>
      </g>
      <g id="Group_1339" data-name="Group 1339" transform="translate(0 76.75)">
        <g id="Group_1334" data-name="Group 1334" transform="translate(108.75 63)">
          <path id="Path_2805" data-name="Path 2805" d="M557.754,248.607v2.1l-9.4-5.428v13.786l18.754,10.828V254.006Z" transform="translate(-545.688 -245.276)" fill="#f1f2f2" style="mix-blend-mode: multiply;isolation: isolate"/>
          <path id="Path_2806" data-name="Path 2806" d="M556.612,248.987v2.1l-9.4-5.428v13.786L564.461,271.2l1.5-.932V254.387Z" transform="translate(-545.688 -245.276)" fill="url(#linear-gradient-26)"/>
          <path id="Path_2807" data-name="Path 2807" d="M546.354,259.748l18.754,10.828V257.648L546.354,246.82Z" transform="translate(-545.688 -245.276)" fill="#fff"/>
          <path id="Path_2808" data-name="Path 2808" d="M545.688,260.331l18.754,10.828v-11.51l-18.754-10.828Z" transform="translate(-545.688 -245.276)" fill="url(#linear-gradient-27)"/>
        </g>
        <g id="Group_1335" data-name="Group 1335" transform="translate(81.563 47.25)">
          <path id="Path_2809" data-name="Path 2809" d="M530.567,232.857v2.1l-9.4-5.428v13.786l18.754,10.828V238.256Z" transform="translate(-518.5 -229.526)" fill="#f1f2f2" style="mix-blend-mode: multiply;isolation: isolate"/>
          <path id="Path_2810" data-name="Path 2810" d="M529.425,233.237v2.1l-9.4-5.428v13.786l17.251,11.759,1.5-.932V238.637Z" transform="translate(-518.5 -229.526)" fill="url(#linear-gradient-26)"/>
          <path id="Path_2811" data-name="Path 2811" d="M519.167,244l18.754,10.828V241.9L519.167,231.07Z" transform="translate(-518.5 -229.526)" fill="#fff"/>
          <path id="Path_2812" data-name="Path 2812" d="M518.5,244.581l18.754,10.828V243.9L518.5,233.071Z" transform="translate(-518.5 -229.526)" fill="url(#linear-gradient-27)"/>
        </g>
        <g id="Group_1336" data-name="Group 1336" transform="translate(54.375 31.5)">
          <path id="Path_2813" data-name="Path 2813" d="M503.379,217.107v2.1l-9.4-5.428v13.786l18.754,10.828V222.506Z" transform="translate(-491.312 -213.776)" fill="#f1f2f2" style="mix-blend-mode: multiply;isolation: isolate"/>
          <path id="Path_2814" data-name="Path 2814" d="M502.237,217.487v2.1l-9.4-5.428v13.786L510.086,239.7l1.5-.932V222.887Z" transform="translate(-491.312 -213.776)" fill="url(#linear-gradient-26)"/>
          <path id="Path_2815" data-name="Path 2815" d="M491.979,228.248l18.754,10.828V226.148L491.979,215.32Z" transform="translate(-491.312 -213.776)" fill="#fff"/>
          <path id="Path_2816" data-name="Path 2816" d="M491.312,228.831l18.754,10.828v-11.51l-18.754-10.828Z" transform="translate(-491.312 -213.776)" fill="url(#linear-gradient-27)"/>
        </g>
        <g id="Group_1337" data-name="Group 1337" transform="translate(27.188 15.75)">
          <path id="Path_2817" data-name="Path 2817" d="M476.192,201.357v2.1l-9.4-5.428v13.786l18.754,10.828V206.756Z" transform="translate(-464.125 -198.026)" fill="#f1f2f2" style="mix-blend-mode: multiply;isolation: isolate"/>
          <path id="Path_2818" data-name="Path 2818" d="M475.05,201.737v2.1l-9.4-5.428v13.786L482.9,223.952l1.5-.932V207.137Z" transform="translate(-464.125 -198.026)" fill="url(#linear-gradient-26)"/>
          <path id="Path_2819" data-name="Path 2819" d="M464.792,212.5l18.754,10.828V210.4L464.792,199.57Z" transform="translate(-464.125 -198.026)" fill="#fff"/>
          <path id="Path_2820" data-name="Path 2820" d="M464.125,213.081l18.754,10.828V212.4l-18.754-10.828Z" transform="translate(-464.125 -198.026)" fill="url(#linear-gradient-27)"/>
        </g>
        <g id="Group_1338" data-name="Group 1338">
          <path id="Path_2821" data-name="Path 2821" d="M449,185.607v2.1l-9.4-5.428v13.786l18.754,10.828V191.006Z" transform="translate(-436.937 -182.276)" fill="#f1f2f2" style="mix-blend-mode: multiply;isolation: isolate"/>
          <path id="Path_2822" data-name="Path 2822" d="M447.862,185.987v2.1l-9.4-5.428v13.786L455.711,208.2l1.5-.932V191.387Z" transform="translate(-436.937 -182.276)" fill="url(#linear-gradient-26)"/>
          <path id="Path_2823" data-name="Path 2823" d="M437.6,196.748l18.754,10.828V194.648L437.6,183.82Z" transform="translate(-436.937 -182.276)" fill="#fff"/>
          <path id="Path_2824" data-name="Path 2824" d="M436.937,197.331l18.754,10.828v-11.51l-18.754-10.828Z" transform="translate(-436.937 -182.276)" fill="url(#linear-gradient-27)"/>
        </g>
      </g>
      <g id="Group_1345" data-name="Group 1345" transform="translate(0 51)">
        <g id="Group_1340" data-name="Group 1340" transform="translate(108.75 63)">
          <path id="Path_2825" data-name="Path 2825" d="M557.754,222.857v2.1l-9.4-5.428v13.786l18.754,10.828V228.256Z" transform="translate(-545.688 -219.526)" fill="#f1f2f2" style="mix-blend-mode: multiply;isolation: isolate"/>
          <path id="Path_2826" data-name="Path 2826" d="M556.612,223.237v2.1l-9.4-5.428v13.786l17.251,11.759,1.5-.932V228.637Z" transform="translate(-545.688 -219.526)" fill="url(#linear-gradient-26)"/>
          <path id="Path_2827" data-name="Path 2827" d="M546.354,234l18.754,10.828V231.9L546.354,221.07Z" transform="translate(-545.688 -219.526)" fill="#fff"/>
          <path id="Path_2828" data-name="Path 2828" d="M545.688,234.581l18.754,10.828V233.9l-18.754-10.828Z" transform="translate(-545.688 -219.526)" fill="url(#linear-gradient-27)"/>
        </g>
        <g id="Group_1341" data-name="Group 1341" transform="translate(81.563 47.25)">
          <path id="Path_2829" data-name="Path 2829" d="M530.567,207.107v2.1l-9.4-5.428v13.786l18.754,10.828V212.506Z" transform="translate(-518.5 -203.776)" fill="#f1f2f2" style="mix-blend-mode: multiply;isolation: isolate"/>
          <path id="Path_2830" data-name="Path 2830" d="M529.425,207.487v2.1l-9.4-5.428v13.786L537.273,229.7l1.5-.932V212.887Z" transform="translate(-518.5 -203.776)" fill="url(#linear-gradient-26)"/>
          <path id="Path_2831" data-name="Path 2831" d="M519.167,218.248l18.754,10.828V216.148L519.167,205.32Z" transform="translate(-518.5 -203.776)" fill="#fff"/>
          <path id="Path_2832" data-name="Path 2832" d="M518.5,218.831l18.754,10.828v-11.51L518.5,207.321Z" transform="translate(-518.5 -203.776)" fill="url(#linear-gradient-27)"/>
        </g>
        <g id="Group_1342" data-name="Group 1342" transform="translate(54.375 31.5)">
          <path id="Path_2833" data-name="Path 2833" d="M503.379,191.357v2.1l-9.4-5.428v13.786l18.754,10.828V196.756Z" transform="translate(-491.312 -188.026)" fill="#f1f2f2" style="mix-blend-mode: multiply;isolation: isolate"/>
          <path id="Path_2834" data-name="Path 2834" d="M502.237,191.737v2.1l-9.4-5.428v13.786l17.251,11.759,1.5-.932V197.137Z" transform="translate(-491.312 -188.026)" fill="url(#linear-gradient-26)"/>
          <path id="Path_2835" data-name="Path 2835" d="M491.979,202.5l18.754,10.828V200.4L491.979,189.57Z" transform="translate(-491.312 -188.026)" fill="#fff"/>
          <path id="Path_2836" data-name="Path 2836" d="M491.312,203.081l18.754,10.828V202.4l-18.754-10.828Z" transform="translate(-491.312 -188.026)" fill="url(#linear-gradient-27)"/>
        </g>
        <g id="Group_1343" data-name="Group 1343" transform="translate(27.188 15.75)">
          <path id="Path_2837" data-name="Path 2837" d="M476.192,175.607v2.1l-9.4-5.428v13.786l18.754,10.828V181.006Z" transform="translate(-464.125 -172.276)" fill="#f1f2f2" style="mix-blend-mode: multiply;isolation: isolate"/>
          <path id="Path_2838" data-name="Path 2838" d="M475.05,175.987v2.1l-9.4-5.428v13.786L482.9,198.2l1.5-.932V181.387Z" transform="translate(-464.125 -172.276)" fill="url(#linear-gradient-26)"/>
          <path id="Path_2839" data-name="Path 2839" d="M464.792,186.748l18.754,10.828V184.648L464.792,173.82Z" transform="translate(-464.125 -172.276)" fill="#fff"/>
          <path id="Path_2840" data-name="Path 2840" d="M464.125,187.331l18.754,10.828v-11.51l-18.754-10.828Z" transform="translate(-464.125 -172.276)" fill="url(#linear-gradient-27)"/>
        </g>
        <g id="Group_1344" data-name="Group 1344">
          <path id="Path_2841" data-name="Path 2841" d="M449,159.857v2.1l-9.4-5.428v13.786l18.754,10.828V165.256Z" transform="translate(-436.937 -156.526)" fill="#f1f2f2" style="mix-blend-mode: multiply;isolation: isolate"/>
          <path id="Path_2842" data-name="Path 2842" d="M447.862,160.238v2.1l-9.4-5.428v13.786l17.251,11.759,1.5-.932V165.637Z" transform="translate(-436.937 -156.526)" fill="url(#linear-gradient-26)"/>
          <path id="Path_2843" data-name="Path 2843" d="M437.6,171l18.754,10.828V168.9L437.6,158.07Z" transform="translate(-436.937 -156.526)" fill="#fff"/>
          <path id="Path_2844" data-name="Path 2844" d="M436.937,171.581l18.754,10.828V170.9l-18.754-10.828Z" transform="translate(-436.937 -156.526)" fill="url(#linear-gradient-27)"/>
        </g>
      </g>
      <g id="Group_1351" data-name="Group 1351" transform="translate(0 25.75)">
        <g id="Group_1346" data-name="Group 1346" transform="translate(108.75 63)">
          <path id="Path_2845" data-name="Path 2845" d="M557.754,197.607v2.1l-9.4-5.428v13.786l18.754,10.828V203.006Z" transform="translate(-545.688 -194.276)" fill="#f1f2f2" style="mix-blend-mode: multiply;isolation: isolate"/>
          <path id="Path_2846" data-name="Path 2846" d="M556.612,197.987v2.1l-9.4-5.428v13.786L564.461,220.2l1.5-.932V203.387Z" transform="translate(-545.688 -194.276)" fill="url(#linear-gradient-26)"/>
          <path id="Path_2847" data-name="Path 2847" d="M546.354,208.748l18.754,10.828V206.648L546.354,195.82Z" transform="translate(-545.688 -194.276)" fill="#fff"/>
          <path id="Path_2848" data-name="Path 2848" d="M545.688,209.331l18.754,10.828v-11.51l-18.754-10.828Z" transform="translate(-545.688 -194.276)" fill="url(#linear-gradient-27)"/>
        </g>
        <g id="Group_1347" data-name="Group 1347" transform="translate(81.563 47.25)">
          <path id="Path_2849" data-name="Path 2849" d="M530.567,181.857v2.1l-9.4-5.428v13.786l18.754,10.828V187.256Z" transform="translate(-518.5 -178.526)" fill="#f1f2f2" style="mix-blend-mode: multiply;isolation: isolate"/>
          <path id="Path_2850" data-name="Path 2850" d="M529.425,182.237v2.1l-9.4-5.428v13.786l17.251,11.759,1.5-.932V187.637Z" transform="translate(-518.5 -178.526)" fill="url(#linear-gradient-26)"/>
          <path id="Path_2851" data-name="Path 2851" d="M519.167,193l18.754,10.828V190.9L519.167,180.07Z" transform="translate(-518.5 -178.526)" fill="#fff"/>
          <path id="Path_2852" data-name="Path 2852" d="M518.5,193.581l18.754,10.828V192.9L518.5,182.071Z" transform="translate(-518.5 -178.526)" fill="url(#linear-gradient-27)"/>
        </g>
        <g id="Group_1348" data-name="Group 1348" transform="translate(54.375 31.5)">
          <path id="Path_2853" data-name="Path 2853" d="M503.379,166.107v2.1l-9.4-5.428v13.786l18.754,10.828V171.506Z" transform="translate(-491.312 -162.776)" fill="#f1f2f2" style="mix-blend-mode: multiply;isolation: isolate"/>
          <path id="Path_2854" data-name="Path 2854" d="M502.237,166.487v2.1l-9.4-5.428v13.786L510.086,188.7l1.5-.932V171.887Z" transform="translate(-491.312 -162.776)" fill="url(#linear-gradient-26)"/>
          <path id="Path_2855" data-name="Path 2855" d="M491.979,177.248l18.754,10.828V175.148L491.979,164.32Z" transform="translate(-491.312 -162.776)" fill="#fff"/>
          <path id="Path_2856" data-name="Path 2856" d="M491.312,177.831l18.754,10.828v-11.51l-18.754-10.828Z" transform="translate(-491.312 -162.776)" fill="url(#linear-gradient-27)"/>
        </g>
        <g id="Group_1349" data-name="Group 1349" transform="translate(27.188 15.75)">
          <path id="Path_2857" data-name="Path 2857" d="M476.192,150.357v2.1l-9.4-5.428v13.786l18.754,10.828V155.756Z" transform="translate(-464.125 -147.026)" fill="#f1f2f2" style="mix-blend-mode: multiply;isolation: isolate"/>
          <path id="Path_2858" data-name="Path 2858" d="M475.05,150.738v2.1l-9.4-5.428v13.786L482.9,172.952l1.5-.932V156.137Z" transform="translate(-464.125 -147.026)" fill="url(#linear-gradient-26)"/>
          <path id="Path_2859" data-name="Path 2859" d="M464.792,161.5l18.754,10.828V159.4L464.792,148.57Z" transform="translate(-464.125 -147.026)" fill="#fff"/>
          <path id="Path_2860" data-name="Path 2860" d="M464.125,162.081l18.754,10.828V161.4l-18.754-10.828Z" transform="translate(-464.125 -147.026)" fill="url(#linear-gradient-27)"/>
        </g>
        <g id="Group_1350" data-name="Group 1350">
          <path id="Path_2861" data-name="Path 2861" d="M449,134.607v2.1l-9.4-5.428v13.786l18.754,10.828V140.006Z" transform="translate(-436.937 -131.276)" fill="#f1f2f2" style="mix-blend-mode: multiply;isolation: isolate"/>
          <path id="Path_2862" data-name="Path 2862" d="M447.862,134.988v2.1l-9.4-5.428v13.786L455.711,157.2l1.5-.932V140.387Z" transform="translate(-436.937 -131.276)" fill="url(#linear-gradient-26)"/>
          <path id="Path_2863" data-name="Path 2863" d="M437.6,145.748l18.754,10.828V143.648L437.6,132.82Z" transform="translate(-436.937 -131.276)" fill="#fff"/>
          <path id="Path_2864" data-name="Path 2864" d="M436.937,146.331l18.754,10.828v-11.51l-18.754-10.828Z" transform="translate(-436.937 -131.276)" fill="url(#linear-gradient-27)"/>
        </g>
      </g>
    </g>
    <g id="Group_1355" data-name="Group 1355" transform="translate(479.83 102.299)">
      <g id="Group_1354" data-name="Group 1354">
        <path id="Path_2865" data-name="Path 2865" d="M623.938,168.551,509.414,102.3,479.83,119.868v27.715l114.463,66.14v.013l.011-.006.011.006v-.013l29.622-17.457Z" transform="translate(-479.83 -102.299)" fill="url(#linear-gradient-66)" style="mix-blend-mode: screen;isolation: isolate"/>
        <g id="Group_1353" data-name="Group 1353" transform="translate(0 12.859)" opacity="0.8">
          <path id="Path_2866" data-name="Path 2866" d="M594.294,186.174v27.561l7.988-4.611V181.41Z" transform="translate(-479.83 -115.159)" fill="url(#linear-gradient-67)"/>
          <path id="Path_2867" data-name="Path 2867" d="M594.316,186.174v27.561L479.83,147.583V119.869Z" transform="translate(-479.83 -115.159)" fill="url(#linear-gradient-68)"/>
          <path id="Path_2868" data-name="Path 2868" d="M479.83,119.869l114.485,66.306,7.966-4.764L487.758,115.159Z" transform="translate(-479.83 -115.159)" fill="url(#linear-gradient-69)"/>
        </g>
      </g>
      <path id="Path_2869" data-name="Path 2869" d="M588.779,202.506l-3.5-6.036a1.684,1.684,0,0,0-1.353-.982L582.9,193.72c1.537-1.442,1.386-4.859-.466-8.052-2.023-3.489-5.3-5.383-7.325-4.229s-2.023,4.917,0,8.406c1.851,3.193,4.752,5.042,6.782,4.45l1.025,1.769a1.659,1.659,0,0,0,.175,1.653l3.5,6.037c.438.756,1.149,1.166,1.587.916l.6-.342C589.217,204.078,589.217,203.262,588.779,202.506Zm-7.594-10.588c-1.332.76-3.493-.487-4.825-2.786s-1.333-4.777,0-5.537,3.493.487,4.825,2.786S582.518,191.159,581.185,191.918Z" transform="translate(-479.83 -102.299)" fill="#fff"/>
      <path id="Path_2870" data-name="Path 2870" d="M569.536,192.284l-82.07-47.569V131.491l82.07,47.569Z" transform="translate(-479.83 -102.299)" fill="#fff"/>
    </g>
    <g id="Group_1357" data-name="Group 1357" transform="translate(379.409 125.281)">
      <path id="Path_2871" data-name="Path 2871" d="M446.361,140.546l-9.921,5.911-14.2-8.85V217.96l59.34,46.824,14.572-8.959V169.294Z" transform="translate(-379.409 -125.281)" fill="url(#linear-gradient-70)" style="mix-blend-mode: multiply;isolation: isolate"/>
      <path id="Path_2872" data-name="Path 2872" d="M437.577,145.478v6.909L391.2,125.614a2.457,2.457,0,0,0-3.686,2.128v85.317L476,264.488a6.491,6.491,0,0,0,6.683-.1l1.889-1.171a5.915,5.915,0,0,0,2.8-5.03V173.831a6.69,6.69,0,0,0-3.345-5.794l-42.76-24.688A2.458,2.458,0,0,0,437.577,145.478Z" transform="translate(-379.409 -125.281)" fill="url(#linear-gradient-71)"/>
      <g id="Group_1356" data-name="Group 1356" transform="translate(8.541 0.002)" style="mix-blend-mode: color-dodge;isolation: isolate">
        <path id="Path_2873" data-name="Path 2873" d="M390.188,126.459l46.374,26.773V151.8L391.2,125.614a2.448,2.448,0,0,0-3.252.752A2.412,2.412,0,0,1,390.188,126.459Z" transform="translate(-387.95 -125.283)" fill="url(#radial-gradient)"/>
        <path id="Path_2874" data-name="Path 2874" d="M484.023,168.037l-42.76-24.688a2.449,2.449,0,0,0-3.252.752,2.415,2.415,0,0,1,2.238.093l42.759,24.688a6.69,6.69,0,0,1,3.346,5.795v84.361a5.917,5.917,0,0,1-1.619,4.065,5.908,5.908,0,0,0,2.633-4.911V173.831A6.69,6.69,0,0,0,484.023,168.037Z" transform="translate(-387.95 -125.283)" fill="url(#radial-gradient-2)"/>
      </g>
      <path id="Path_2875" data-name="Path 2875" d="M382.959,205.46l99.853,57.65V187.332l-99.853-57.65Z" transform="translate(-379.409 -125.281)" fill="#fff"/>
      <path id="Path_2876" data-name="Path 2876" d="M382.959,207.988l98.085,56.629V193.749l-98.085-56.629Z" transform="translate(-379.409 -125.281)" fill="#e6cfc8" style="mix-blend-mode: multiply;isolation: isolate"/>
      <path id="Path_2877" data-name="Path 2877" d="M383.735,211.064l92.426,53.362a6.418,6.418,0,0,0,6.254.092l.6-.325-.629.24a2.3,2.3,0,0,1-3.127-2.152V198.828a6.689,6.689,0,0,0-3.346-5.794l-92.821-53.59a2.457,2.457,0,0,0-3.686,2.128v62A8.653,8.653,0,0,0,383.735,211.064Z" transform="translate(-379.409 -125.281)" fill="url(#linear-gradient-72)"/>
      <path id="Path_2878" data-name="Path 2878" d="M482.389,264.433a2.3,2.3,0,0,1-3.127-2.152V198.828a6.689,6.689,0,0,0-3.346-5.794l-92.82-53.59a2.439,2.439,0,0,0-3.064.515,2.406,2.406,0,0,1,2.176.119l92.821,53.59a6.69,6.69,0,0,1,3.345,5.794v63.453a2.3,2.3,0,0,0,1.986,2.282,6.369,6.369,0,0,0,2.054-.679l.6-.325Z" transform="translate(-379.409 -125.281)" fill="url(#radial-gradient-3)" style="mix-blend-mode: color-dodge;isolation: isolate"/>
    </g>
    <g id="Group_1359" data-name="Group 1359" transform="translate(405.32 168.668)">
      <g id="Group_1358" data-name="Group 1358" transform="translate(0.069)">
        <path id="Path_2879" data-name="Path 2879" d="M454.753,194.729c-8-4.537-15.817-11.835-22.371-20.876l-.088-.051c-6.554,1.473-14.373-.257-22.371-4.955l-.3-.179-4.229,2.406,4.85,3.191c1.518,20.242,9.418,36.859,22.134,56.534l.31.178c2.285-.9-1.178,1.171.788.063.085-.048,5.572-2.981,5.656-3.03,8.82-5.061,14.266-12.825,15.5-27.848l.432-5.259Z" transform="translate(-405.389 -168.668)" fill="url(#linear-gradient-73)"/>
        <path id="Path_2880" data-name="Path 2880" d="M454.753,194.729c-8-4.537-15.817-11.835-22.371-20.876l-.088-.051-.131.027-16.088,9.3,32.951,15.114,6.032-3.338Z" transform="translate(-405.389 -168.668)" fill="url(#linear-gradient-74)"/>
      </g>
      <path id="Path_2881" data-name="Path 2881" d="M451.044,196.8c-8-4.537-15.817-11.835-22.37-20.876l-.089-.052c-6.553,1.474-14.372-.256-22.37-4.954l-.306-.18.432,5.758c1.518,20.242,9.418,36.859,22.134,56.534l.309.179c12.716-4.992,20.616-12.487,22.134-30.976l.432-5.26Z" transform="translate(-405.32 -168.668)" fill="url(#radial-gradient-4)" style="mix-blend-mode: screen;isolation: isolate"/>
      <path id="Path_2882" data-name="Path 2882" d="M450.455,197.037c-8-4.537-15.817-11.835-22.371-20.877l-.088-.051c-6.554,1.474-14.373-.256-22.371-4.954l-.3-.18.432,5.758c1.517,20.242,9.418,36.859,22.133,56.534l.31.179c12.715-4.992,20.616-12.487,22.133-30.976l.432-5.26Z" transform="translate(-405.32 -168.668)" fill="url(#linear-gradient-75)"/>
      <path id="Path_2883" data-name="Path 2883" d="M450.455,197.037c-8-4.537-15.817-11.835-22.371-20.877l-.088-.051c-6.554,1.474-14.373-.256-22.371-4.954l-.3-.18.432,5.758c1.517,20.242,9.418,36.859,22.133,56.534l.31.179c12.715-4.992,20.616-12.487,22.133-30.976l.432-5.26Z" transform="translate(-405.32 -168.668)" fill="url(#radial-gradient-5)" style="mix-blend-mode: color-dodge;isolation: isolate"/>
      <path id="Path_2884" data-name="Path 2884" d="M450.455,197.037c-.134-.076-.267-.159-.4-.236l-.427,5.211c-1.511,18.406-9.349,25.915-21.965,30.908l.223.347.31.179c12.715-4.992,20.616-12.487,22.133-30.976l.432-5.26Z" transform="translate(-405.32 -168.668)" fill="url(#radial-gradient-6)" style="mix-blend-mode: color-dodge;isolation: isolate"/>
      <path id="Path_2885" data-name="Path 2885" d="M429.01,230.437c-11.43-17.886-19.3-34.034-20.789-53.889l-.1-1.256a35.443,35.443,0,0,0,15.119,3.8,24.776,24.776,0,0,0,3.724-.277,75.755,75.755,0,0,0,21.2,19.749l-.3,3.7C446.466,219.262,439.639,225.908,429.01,230.437Z" transform="translate(-405.32 -168.668)" fill="url(#linear-gradient-76)"/>
      <path id="Path_2886" data-name="Path 2886" d="M409.823,176.25l-.015-.2q-.84-.361-1.682-.763l.1,1.256c1.488,19.855,9.359,36,20.789,53.889.474-.2.938-.41,1.4-.621C419.089,212.059,411.3,195.984,409.823,176.25Z" transform="translate(-405.32 -168.668)" opacity="0.2" fill="url(#radial-gradient-7)" style="mix-blend-mode: multiply;isolation: isolate"/>
      <path id="Path_2887" data-name="Path 2887" d="M430.725,212.313l-4.311-2.489v-19.76l4.311,2.489Z" transform="translate(-405.32 -168.668)" fill="url(#linear-gradient-77)"/>
      <path id="Path_2888" data-name="Path 2888" d="M427.724,208.979V190.82l-1.31-.756v19.76l4.311,2.489v-1.6Z" transform="translate(-405.32 -168.668)" fill="#eca30a" opacity="0.7" style="mix-blend-mode: multiply;isolation: isolate"/>
    </g>
    <g id="Group_1363" data-name="Group 1363" transform="translate(331.451 190.821)">
      <path id="Path_2889" data-name="Path 2889" d="M430.237,192.364l-.064-.041-2.337-1.5-56.107,32.393v22.37l2.337-1.35V246.9l28.407-20.4,27.7-15.279V192.455Z" transform="translate(-331.451 -190.821)" fill="url(#linear-gradient-78)" style="mix-blend-mode: screen;isolation: isolate"/>
      <path id="Path_2890" data-name="Path 2890" d="M419.468,195.639l-56.107,32.393V250.4l38.32-22.124,1.1-3.922,19.089-27.175Z" transform="translate(-331.451 -190.821)" fill="url(#linear-gradient-79)"/>
      <path id="Path_2891" data-name="Path 2891" d="M421.806,196.954,365.7,229.347v22.37l38.32-22.124,1.1-3.922,16.687-9.635Z" transform="translate(-331.451 -190.821)" fill="url(#linear-gradient-80)"/>
      <path id="Path_2892" data-name="Path 2892" d="M415.222,216.83l-44.029,25.44V231.239l44.029-25.44Z" transform="translate(-331.451 -190.821)" fill="#fff"/>
      <path id="Path_2893" data-name="Path 2893" d="M414.462,206.239v10.274l-43.268,25v.757l44.029-25.44V205.8Z" transform="translate(-331.451 -190.821)" fill="#8b8c9e"/>
      <path id="Path_2894" data-name="Path 2894" d="M367.232,217.707l-3.7-1.915a3.33,3.33,0,0,0-3.548.265l-16.051,9.267a10.676,10.676,0,0,0-4.844,8.356v32.689c0,1.733.691,2.881,1.775,3.275l3.765,2.007.059-1.887c.079-.04.157-.076.237-.122l16.051-9.267a10.676,10.676,0,0,0,4.844-8.356V219.33c0-.172-.009-.337-.023-.5Zm-11.973,32.077a9.655,9.655,0,0,1-4.382,7.559l-.925.534c-2.42,1.4-4.382.278-4.382-2.5v-4.367l3.11-18.246a7.228,7.228,0,0,1,1.272-.975l.925-.534c2.42-1.4,4.382-.279,4.382,2.5Z" transform="translate(-331.451 -190.821)" fill="url(#linear-gradient-81)"/>
      <path id="Path_2895" data-name="Path 2895" d="M363.746,218.029,347.695,227.3a10.676,10.676,0,0,0-4.844,8.356v32.689c0,3.07,2.169,4.307,4.844,2.762l16.051-9.267a10.675,10.675,0,0,0,4.845-8.356V220.791C368.591,217.721,366.422,216.485,363.746,218.029Zm-5.712,33.217a9.654,9.654,0,0,1-4.382,7.558l-.924.534c-2.42,1.4-4.382.278-4.382-2.5v-16.03a9.655,9.655,0,0,1,4.382-7.558l.924-.534c2.421-1.4,4.382-.279,4.382,2.5Z" transform="translate(-331.451 -190.821)" fill="url(#linear-gradient-82)"/>
      <g id="Group_1360" data-name="Group 1360" transform="translate(11.181 26.328)" style="mix-blend-mode: color-dodge;isolation: isolate">
        <path id="Path_2896" data-name="Path 2896" d="M353.239,259.337l.925-.533a9.655,9.655,0,0,0,4.382-7.558V235.215c0-1.817-.843-2.917-2.1-3.074A2.981,2.981,0,0,1,357.815,235v16.03a9.657,9.657,0,0,1-4.382,7.559l-.924.533a3.7,3.7,0,0,1-2.281.576A3.145,3.145,0,0,0,353.239,259.337Z" transform="translate(-342.632 -217.149)" fill="url(#radial-gradient-8)"/>
        <path id="Path_2897" data-name="Path 2897" d="M343.362,268.341V235.652a10.675,10.675,0,0,1,4.845-8.356l16.051-9.267a4.063,4.063,0,0,1,2.558-.632,3.507,3.507,0,0,0-3.289.413l-16.051,9.267a10.676,10.676,0,0,0-4.844,8.356v32.689c0,1.991.915,3.2,2.286,3.394A3.271,3.271,0,0,1,343.362,268.341Z" transform="translate(-342.632 -217.149)" fill="url(#radial-gradient-9)"/>
      </g>
      <circle id="Ellipse_127" data-name="Ellipse 127" cx="11.663" cy="11.663" r="11.663" transform="translate(0.28 27.478)" fill="url(#radial-gradient-10)" style="mix-blend-mode: color-dodge;isolation: isolate"/>
      <g id="Group_1361" data-name="Group 1361" transform="translate(0 18.776)" opacity="0.2">
        <path id="Path_2898" data-name="Path 2898" d="M350.858,285.8a13.477,13.477,0,0,0,6.727-1.622l34.183-21.787,34.183-21.786a7.118,7.118,0,0,0,3.859-6.149c0-2.731.38-21.555-2.574-23.26l-3.718-1.521c-2.32-1.339-7.3,14.2-10.244,14.2a13.479,13.479,0,0,0-6.727,1.621l-35.618,20.565L335.31,266.633a7.119,7.119,0,0,0-3.859,6.148c0,2.731,1.694,5.275,4.647,6.98C336.1,279.761,347.91,285.8,350.858,285.8Z" transform="translate(-331.451 -209.597)" opacity="0"/>
        <path id="Path_2899" data-name="Path 2899" d="M426.222,213.083c-.075.013-3.527-1.355-3.6-1.338-2.534-1.114-7.363,13.229-10.2,13.273a14.066,14.066,0,0,0-6.444,1.664L371.665,246.5,337.34,266.314a7.508,7.508,0,0,0-3.789,5.075c-.034.239-.064.479-.076.723-.127,2.588,1.433,5.064,4.31,6.725,0,0,1.373.73,3.092,1.557,3.563,1.732,9.144,4.17,11.1,4.106.515-.009,1.017-.049,1.508-.1a13.107,13.107,0,0,0,4.915-1.563l32.827-20.971,2.809-1.794,30.019-19.177a7.17,7.17,0,0,0,3.837-5.808c0-.637.182-2.374.216-4.427.068-4.023.379-9.838-.406-13.651C427.315,215.112,426.9,213.476,426.222,213.083Z" transform="translate(-331.451 -209.597)" opacity="0.091"/>
        <path id="Path_2900" data-name="Path 2900" d="M425.208,214.966c-.15.026-3.336-1.189-3.474-1.155-2.749-.888-7.428,12.254-10.153,12.343a14.828,14.828,0,0,0-6.161,1.706L372.4,246.923,339.37,265.994a7.872,7.872,0,0,0-3.764,4.772c-.038.225-.084.448-.107.676-.255,2.448,1.173,4.854,3.973,6.471,0,0,1.407.768,2.952,1.519,3.412,1.659,8.715,3.893,10.68,3.764.492-.019.971-.072,1.438-.128a13.676,13.676,0,0,0,4.68-1.576l31.473-20.155,2.692-1.725,28.781-18.431c2.007-1.159,3.815-3.429,3.815-5.467,0-.573.341-2.288.419-4.134.159-3.744.946-9.236.108-12.827C426.114,217.055,425.822,215.32,425.208,214.966Z" transform="translate(-331.451 -209.597)" opacity="0.182"/>
        <path id="Path_2901" data-name="Path 2901" d="M424.194,216.849c-.225.039-3.146-1.022-3.352-.972-2.963-.662-7.491,11.279-10.108,11.413a15.815,15.815,0,0,0-5.877,1.748L373.139,247.35,341.4,265.675c-1.6.923-3.419,2.9-3.737,4.468-.043.211-.1.417-.139.63-.385,2.308.912,4.643,3.636,6.215,0,0,1.44.811,2.811,1.481,3.258,1.594,8.287,3.616,10.256,3.423.471-.028.926-.1,1.37-.155a14.443,14.443,0,0,0,4.445-1.59l30.117-19.34,2.577-1.655,27.541-17.685c1.784-1.03,3.793-3.315,3.793-5.126,0-.51.505-2.2.623-3.841.251-3.474,1.514-8.625.622-12C424.918,219,424.74,217.164,424.194,216.849Z" transform="translate(-331.451 -209.597)" opacity="0.273"/>
        <path id="Path_2902" data-name="Path 2902" d="M423.18,218.732c-.3.051-2.955-.856-3.23-.789-3.178-.436-7.551,10.3-10.063,10.482a17.219,17.219,0,0,0-5.594,1.791l-30.418,17.561-30.446,17.578c-1.4.808-3.386,2.807-3.712,4.165-.048.2-.123.386-.17.583-.516,2.17.652,4.433,3.3,5.961,0,0,1.473.853,2.671,1.443,3.1,1.528,7.858,3.339,9.832,3.081.448-.038.879-.12,1.3-.182a15.5,15.5,0,0,0,4.209-1.605l28.762-18.523,2.462-1.586,26.3-16.938c1.561-.9,3.771-3.2,3.771-4.787,0-.445.674-2.118.827-3.548.343-3.214,2.084-8,1.135-11.178C423.729,220.942,423.657,219.007,423.18,218.732Z" transform="translate(-331.451 -209.597)" opacity="0.364"/>
        <path id="Path_2903" data-name="Path 2903" d="M422.166,220.615c-.375.064-2.764-.69-3.108-.606-3.392-.211-7.608,9.329-10.017,9.552a19.135,19.135,0,0,0-5.312,1.833L374.612,248.2l-29.153,16.832c-1.2.692-3.363,2.709-3.687,3.861-.052.186-.143.356-.2.536-.651,2.033.391,4.223,2.962,5.707,0,0,1.505.9,2.531,1.4,2.949,1.463,7.429,3.062,9.408,2.74.426-.047.832-.144,1.232-.209a17.058,17.058,0,0,0,3.974-1.619l27.407-17.708,2.346-1.516,25.062-16.192c1.338-.773,3.748-3.087,3.748-4.446,0-.382.851-2.036,1.031-3.255.437-2.967,2.658-7.373,1.649-10.354C422.548,222.884,422.575,220.851,422.166,220.615Z" transform="translate(-331.451 -209.597)" opacity="0.455"/>
        <path id="Path_2904" data-name="Path 2904" d="M421.152,222.5c-.45.077-2.573-.523-2.986-.422-3.606.014-7.661,8.352-9.972,8.621a21.936,21.936,0,0,0-5.028,1.874l-27.818,16.061-27.859,16.084c-1,.577-3.544,2.568-3.662,3.559a4.536,4.536,0,0,0-.232.489c-.789,1.895.131,4.012,2.625,5.452,0,0,1.538.939,2.391,1.366,2.8,1.4,7,2.785,8.984,2.4.4-.057.785-.168,1.162-.237a19.259,19.259,0,0,0,3.739-1.632l26.052-16.892,2.231-1.447L414.6,242.326c1.115-.644,3.726-2.973,3.726-4.105,0-.318,1.24-1.935,1.234-2.962,1.063-2.579,3.738-6.977,2.164-9.53C421.552,224.776,421.493,222.695,421.152,222.5Z" transform="translate(-331.451 -209.597)" opacity="0.545"/>
        <path id="Path_2905" data-name="Path 2905" d="M420.138,224.381c-.525.09-2.382-.357-2.864-.239-3.821.24-7.711,7.376-9.927,7.69a26.351,26.351,0,0,0-4.745,1.917l-26.517,15.31L349.519,264.4c-.8.461-3.542,2.462-3.637,3.255a4.187,4.187,0,0,0-.263.442c-.931,1.756-.13,3.8,2.288,5.2,0,0,1.569.985,2.251,1.328,2.641,1.331,6.571,2.508,8.559,2.057.382-.066.738-.191,1.094-.264a22.836,22.836,0,0,0,3.5-1.647l24.7-16.075,2.116-1.378,22.582-14.7c.892-.516,3.7-2.859,3.7-3.765,0-.255,1.443-1.848,1.438-2.669,1.244-2.291,4.391-6.4,2.678-8.706C420.39,226.71,420.411,224.538,420.138,224.381Z" transform="translate(-331.451 -209.597)" opacity="0.636"/>
        <path id="Path_2906" data-name="Path 2906" d="M419.124,226.264c-.6.1-2.191-.191-2.742-.056-4.035.466-7.755,6.4-9.882,6.76a34.059,34.059,0,0,0-4.462,1.959l-25.216,14.559-25.273,14.591c-.6.346-3.541,2.357-3.611,2.952a3.931,3.931,0,0,0-.295.4c-1.078,1.616-.39,3.591,1.951,4.943,0,0,1.6,1.03,2.11,1.29,2.487,1.265,6.143,2.23,8.136,1.714.359-.075.69-.214,1.025-.29a29.07,29.07,0,0,0,3.268-1.661l23.341-15.26,2-1.308L410.818,242.9c.669-.386,3.681-2.745,3.681-3.424,0-.191,1.646-1.761,1.642-2.377,1.425-2,5.045-5.824,3.191-7.881C419.228,228.645,419.328,226.382,419.124,226.264Z" transform="translate(-331.451 -209.597)" opacity="0.727"/>
        <path id="Path_2907" data-name="Path 2907" d="M418.11,228.147c-.675.116-2-.025-2.62.127-4.249.691-7.914,5.029-9.837,5.83a31,31,0,0,0-4.178,2l-23.917,13.808-23.98,13.845c-.4.231-3.538,2.251-3.585,2.648a3.646,3.646,0,0,0-.326.349c-1.228,1.47-.65,3.38,1.614,4.688,0,0,1.631,1.076,1.97,1.251,2.333,1.2,5.714,1.954,7.712,1.373.337-.084.641-.237.955-.317.344-.087,2.769-1.523,3.033-1.675l21.987-14.444,1.885-1.239,20.1-13.207c.446-.257,3.659-2.631,3.659-3.083,0-.128,1.848-1.673,1.846-2.084,1.606-1.713,5.7-5.249,3.7-7.057C418.067,230.579,418.246,228.226,418.11,228.147Z" transform="translate(-331.451 -209.597)" opacity="0.818"/>
        <path id="Path_2908" data-name="Path 2908" d="M417.1,230.03c-.75.129-1.809.142-2.5.31-4.464.917-7.983,4.01-9.791,4.9-.233,0-3.729,1.947-3.9,2.044L378.295,250.34l-22.687,13.1a36.483,36.483,0,0,0-3.56,2.345,3.855,3.855,0,0,0-.357.3c-1.381,1.319-.911,3.17,1.277,4.434,0,0,1.661,1.124,1.83,1.212,2.179,1.136,5.285,1.677,7.288,1.032a5.684,5.684,0,0,0,.886-.344c.176-.017,2.666-1.613,2.8-1.689L386.4,257.1l1.769-1.169,18.865-12.461a32.44,32.44,0,0,0,3.636-2.743,22.949,22.949,0,0,0,2.05-1.79c1.787-1.425,6.352-4.673,4.219-6.233C416.9,232.514,417.164,230.069,417.1,230.03Z" transform="translate(-331.451 -209.597)" opacity="0.909"/>
        <path id="Path_2909" data-name="Path 2909" d="M364.026,271.087l23.492-15.615,23.493-15.614c1.968-1.137,7.006-4.1,4.733-5.409l.338-2.536a36.2,36.2,0,0,0-12.122,4.462l-24.928,14.392L354.1,265.16c-1.969,1.136-1.722,3.122.552,4.434l1.69,1.175C358.618,272.082,362.057,272.224,364.026,271.087Z" transform="translate(-331.451 -209.597)"/>
      </g>
      <g id="Group_1362" data-name="Group 1362" transform="translate(42.739 22.862)">
        <path id="Path_2910" data-name="Path 2910" d="M379.666,231.648a6.033,6.033,0,0,1-2.738,4.722c-1.512.874-2.738.175-2.738-1.561a6.033,6.033,0,0,1,2.738-4.722C378.44,229.213,379.666,229.912,379.666,231.648Z" transform="translate(-374.19 -213.683)" fill="url(#linear-gradient-83)"/>
        <path id="Path_2911" data-name="Path 2911" d="M386.728,227.641a6.03,6.03,0,0,1-2.738,4.722c-1.512.874-2.738.175-2.738-1.561a6.033,6.033,0,0,1,2.738-4.722C385.5,225.207,386.728,225.9,386.728,227.641Z" transform="translate(-374.19 -213.683)" fill="url(#linear-gradient-84)"/>
        <path id="Path_2912" data-name="Path 2912" d="M393.791,223.634a6.036,6.036,0,0,1-2.738,4.723c-1.513.873-2.738.174-2.738-1.562a6.03,6.03,0,0,1,2.738-4.722C392.565,221.2,393.791,221.9,393.791,223.634Z" transform="translate(-374.19 -213.683)" fill="url(#linear-gradient-85)"/>
        <path id="Path_2913" data-name="Path 2913" d="M400.853,219.627a6.034,6.034,0,0,1-2.738,4.723c-1.512.873-2.738.174-2.738-1.561a6.033,6.033,0,0,1,2.738-4.723C399.627,217.193,400.853,217.892,400.853,219.627Z" transform="translate(-374.19 -213.683)" fill="url(#linear-gradient-86)"/>
        <path id="Path_2914" data-name="Path 2914" d="M407.915,215.62a6.034,6.034,0,0,1-2.738,4.723c-1.512.873-2.738.174-2.738-1.561a6.033,6.033,0,0,1,2.738-4.723C406.689,213.186,407.915,213.885,407.915,215.62Z" transform="translate(-374.19 -213.683)" fill="url(#linear-gradient-87)"/>
      </g>
    </g>
  </g>
</svg>
