<svg xmlns="http://www.w3.org/2000/svg" width="179" height="190.026" viewBox="0 0 179 190.026">
  <g id="Group_1300" data-name="Group 1300" transform="translate(-369.368 -182.475)">
    <g id="Group_1294" data-name="Group 1294" transform="translate(423.128 182.475)">
      <g id="Group_1293" data-name="Group 1293" transform="translate(0)">
        <g id="Group_1264" data-name="Group 1264" transform="translate(6.76 108.835)">
          <path id="Path_2612" data-name="Path 2612" d="M498.733,379.421c-31.1,0-56.3-11.357-56.3-25.363s25.209-23.486,56.3-23.486,56.3,9.477,56.3,23.486S529.831,379.421,498.733,379.421Z" transform="translate(-442.428 -316.728)" fill="#da8100"/>
          <path id="Path_2613" data-name="Path 2613" d="M509.052,330.572c-2.39,0-4.738.062-7.049.172v48.471c2.311.13,4.66.205,7.049.205,2.138,0,4.245-.059,6.321-.163V330.709Q512.259,330.577,509.052,330.572Z" transform="translate(-452.653 -316.728)" fill="#f4bd00"/>
          <path id="Path_2614" data-name="Path 2614" d="M522.349,330.97V379.1c2.493-.2,4.933-.465,7.3-.8v-46.64C527.282,331.363,524.842,331.137,522.349,330.97Z" transform="translate(-456.145 -316.797)" fill="#f4bd00"/>
          <path id="Path_2615" data-name="Path 2615" d="M487.871,331.894v46.171q3.55.565,7.3.92V331.108Q491.422,331.4,487.871,331.894Z" transform="translate(-450.228 -316.82)" fill="#f4bd00"/>
          <path id="Path_2616" data-name="Path 2616" d="M546.421,342.775a38.306,38.306,0,0,0-3.4-2v2H455.63v-2.6a40.041,40.041,0,0,0-4.6,2.6h-8.607v12.931c0,6.213,4.968,11.9,13.2,16.312V355.706h87.39v15.651c7.52-4.312,12.017-9.744,12.017-15.651V342.775Z" transform="translate(-442.428 -318.376)" fill="#c3690d"/>
          <path id="Path_2617" data-name="Path 2617" d="M498.733,364.535c-31.1,0-56.3-11.343-56.3-25.337s25.209-25.337,56.3-25.337,56.3,11.344,56.3,25.337S529.831,364.535,498.733,364.535Z" transform="translate(-442.428 -313.86)" fill="#fd0"/>
          <path id="Path_2618" data-name="Path 2618" d="M501.239,359.332c-24.417,0-44.209-8.622-44.209-19.255s19.792-19.258,44.209-19.258,44.208,8.622,44.208,19.258S525.655,359.332,501.239,359.332Z" transform="translate(-444.934 -315.054)" fill="#da8100"/>
          <path id="Path_2619" data-name="Path 2619" d="M501.239,360.2c-24.417,0-44.209-7.978-44.209-17.817s19.792-17.82,44.209-17.82,44.208,7.979,44.208,17.82S525.655,360.2,501.239,360.2Z" transform="translate(-444.934 -315.697)" fill="#f0aa00"/>
          <g id="Group_1263" data-name="Group 1263" transform="translate(39.188 11.374)">
            <g id="Group_1261" data-name="Group 1261" transform="translate(0.774 0.58)">
              <path id="Path_2620" data-name="Path 2620" d="M521.243,343.685a4.015,4.015,0,0,1,.809,2.54,4.319,4.319,0,0,1-1.118,2.991,8.3,8.3,0,0,1-2.931,2.01,18.05,18.05,0,0,1-4.146,1.169,35.975,35.975,0,0,1-4.823.466l-.007,3.608-4.336-.025.007-3.668a62.322,62.322,0,0,1-7.421-.847,46.8,46.8,0,0,1-6.607-1.619l4.561-5.074q1.464.516,3.141.973,1.407.4,3.278.779a31.578,31.578,0,0,0,3.818.543l.006-2.623q-1.682-.249-3.359-.586a43.385,43.385,0,0,1-4.386-1.054A13.953,13.953,0,0,1,494.7,342a5.106,5.106,0,0,1-1.759-1.605,3.771,3.771,0,0,1-.565-2.061,4.459,4.459,0,0,1,.982-2.842,8.211,8.211,0,0,1,2.659-2.117,16.436,16.436,0,0,1,3.932-1.409,27.535,27.535,0,0,1,4.795-.659l.007-3.012,4.337.025-.007,3.042q1.785.13,3.467.378t3.222.571q1.543.321,2.9.673t2.492.655l-4.563,4.775c-.792-.282-1.661-.545-2.6-.789q-1.193-.336-2.68-.627c-.995-.195-1.995-.345-3.007-.45l-.005,2.684q.488.063,1.028.17c.362.071.741.139,1.138.2q2.653.463,4.794,1.011a19.359,19.359,0,0,1,3.655,1.289A6.442,6.442,0,0,1,521.243,343.685Zm-11.114,3.664c.36-.157.542-.364.542-.624,0-.278-.215-.523-.649-.733a8.084,8.084,0,0,0-1.732-.562l0,2.207a5.676,5.676,0,0,0,1.843-.288m-4.642-8.646,0-2.266q-2.169.137-2.169,1a.837.837,0,0,0,.539.733,6.837,6.837,0,0,0,1.625.531" transform="translate(-490.67 -328.291)" fill="#da8100"/>
            </g>
            <g id="Group_1262" data-name="Group 1262">
              <path id="Path_2621" data-name="Path 2621" d="M520.308,342.985a4,4,0,0,1,.809,2.54,4.314,4.314,0,0,1-1.118,2.99,8.3,8.3,0,0,1-2.931,2.011,18.092,18.092,0,0,1-4.146,1.169,35.959,35.959,0,0,1-4.823.465l-.007,3.608-4.336-.025.008-3.669a61.974,61.974,0,0,1-7.421-.847,46.837,46.837,0,0,1-6.607-1.618l4.561-5.074q1.464.516,3.141.972,1.407.4,3.278.78a31.763,31.763,0,0,0,3.819.543l.005-2.624q-1.683-.247-3.359-.585a43.371,43.371,0,0,1-4.386-1.054,13.916,13.916,0,0,1-3.031-1.27A5.1,5.1,0,0,1,492,339.691a3.767,3.767,0,0,1-.565-2.061,4.452,4.452,0,0,1,.982-2.842,8.2,8.2,0,0,1,2.66-2.117,16.434,16.434,0,0,1,3.931-1.409,27.546,27.546,0,0,1,4.8-.659l.006-3.012,4.337.025-.007,3.042q1.785.13,3.467.378t3.223.57q1.542.322,2.9.673t2.492.655l-4.563,4.775c-.792-.283-1.661-.546-2.6-.789q-1.192-.335-2.68-.628c-.995-.194-1.995-.344-3.006-.45l-.006,2.685c.326.042.669.1,1.028.17s.741.139,1.138.2q2.653.463,4.794,1.011a19.347,19.347,0,0,1,3.655,1.289A6.434,6.434,0,0,1,520.308,342.985ZM509.2,346.648c.359-.157.541-.364.542-.624,0-.277-.216-.523-.649-.733a8.144,8.144,0,0,0-1.733-.562l0,2.208a5.684,5.684,0,0,0,1.844-.288M504.552,338l0-2.266q-2.168.138-2.169,1a.836.836,0,0,0,.538.733,6.888,6.888,0,0,0,1.625.531" transform="translate(-489.736 -327.591)" fill="#fd0"/>
            </g>
          </g>
        </g>
        <g id="Group_1268" data-name="Group 1268" transform="translate(12.63 92.668)">
          <path id="Path_2622" data-name="Path 2622" d="M505.819,359.9c-31.1,0-56.3-11.356-56.3-25.363s25.209-23.486,56.3-23.486,56.3,9.477,56.3,23.486S536.917,359.9,505.819,359.9Z" transform="translate(-449.514 -297.212)" fill="#da8100"/>
          <path id="Path_2623" data-name="Path 2623" d="M516.138,311.056c-2.389,0-4.738.062-7.049.172V359.7c2.311.13,4.66.2,7.049.2,2.138,0,4.245-.059,6.321-.163V311.193Q519.345,311.061,516.138,311.056Z" transform="translate(-459.739 -297.212)" fill="#f4bd00"/>
          <path id="Path_2624" data-name="Path 2624" d="M529.436,311.454v48.128c2.493-.2,4.932-.465,7.3-.8V312.139C534.368,311.848,531.929,311.621,529.436,311.454Z" transform="translate(-463.231 -297.281)" fill="#f4bd00"/>
          <path id="Path_2625" data-name="Path 2625" d="M494.957,312.378V358.55q3.55.565,7.3.921V311.592Q498.508,311.889,494.957,312.378Z" transform="translate(-457.314 -297.304)" fill="#f4bd00"/>
          <path id="Path_2626" data-name="Path 2626" d="M553.507,323.26a38.168,38.168,0,0,0-3.4-2v2H462.717v-2.6a40.119,40.119,0,0,0-4.6,2.6h-8.607v12.93c0,6.214,4.968,11.9,13.2,16.312V336.19h87.389v15.651c7.52-4.312,12.017-9.743,12.017-15.651V323.26Z" transform="translate(-449.514 -298.86)" fill="#c3690d"/>
          <path id="Path_2627" data-name="Path 2627" d="M505.819,345.019c-31.1,0-56.3-11.344-56.3-25.338s25.209-25.337,56.3-25.337,56.3,11.344,56.3,25.337S536.917,345.019,505.819,345.019Z" transform="translate(-449.514 -294.344)" fill="#fd0"/>
          <path id="Path_2628" data-name="Path 2628" d="M508.325,339.816c-24.417,0-44.209-8.622-44.209-19.255S483.908,301.3,508.325,301.3s44.208,8.623,44.208,19.258S532.741,339.816,508.325,339.816Z" transform="translate(-452.02 -295.538)" fill="#da8100"/>
          <path id="Path_2629" data-name="Path 2629" d="M508.325,340.684c-24.417,0-44.209-7.979-44.209-17.818s19.792-17.819,44.209-17.819,44.208,7.979,44.208,17.819S532.741,340.684,508.325,340.684Z" transform="translate(-452.02 -296.181)" fill="#f0aa00"/>
          <g id="Group_1267" data-name="Group 1267" transform="translate(39.188 11.374)">
            <g id="Group_1265" data-name="Group 1265" transform="translate(0.774 0.58)">
              <path id="Path_2630" data-name="Path 2630" d="M528.329,324.169a4.013,4.013,0,0,1,.809,2.539,4.318,4.318,0,0,1-1.118,2.991,8.292,8.292,0,0,1-2.931,2.01,18.007,18.007,0,0,1-4.146,1.169,35.96,35.96,0,0,1-4.823.466l-.008,3.608-4.336-.025.007-3.669a62.149,62.149,0,0,1-7.42-.847,46.807,46.807,0,0,1-6.607-1.619l4.561-5.074q1.464.516,3.141.973,1.407.4,3.278.779a31.59,31.59,0,0,0,3.818.544l.006-2.624q-1.682-.247-3.359-.586a43.359,43.359,0,0,1-4.386-1.054,13.87,13.87,0,0,1-3.032-1.271,5.1,5.1,0,0,1-1.759-1.605,3.769,3.769,0,0,1-.565-2.06,4.462,4.462,0,0,1,.982-2.843,8.223,8.223,0,0,1,2.659-2.117,16.4,16.4,0,0,1,3.932-1.408,27.535,27.535,0,0,1,4.795-.659l.007-3.012,4.336.025-.007,3.043q1.785.129,3.467.377t3.222.571q1.543.322,2.9.673t2.492.655l-4.563,4.775c-.792-.283-1.661-.546-2.6-.789q-1.193-.335-2.68-.628c-.995-.195-1.995-.345-3.007-.45l0,2.684c.325.043.669.1,1.028.17s.741.139,1.138.2q2.653.463,4.794,1.012A19.363,19.363,0,0,1,526,322.381,6.453,6.453,0,0,1,528.329,324.169Zm-11.114,3.663c.36-.157.542-.364.542-.623q0-.418-.649-.734a8.078,8.078,0,0,0-1.732-.562l0,2.207a5.65,5.65,0,0,0,1.843-.288m-4.642-8.645,0-2.266q-2.168.137-2.17,1a.838.838,0,0,0,.539.733,6.919,6.919,0,0,0,1.625.531" transform="translate(-497.756 -308.775)" fill="#da8100"/>
            </g>
            <g id="Group_1266" data-name="Group 1266">
              <path id="Path_2631" data-name="Path 2631" d="M527.394,323.469a4.007,4.007,0,0,1,.809,2.54A4.318,4.318,0,0,1,527.086,329a8.3,8.3,0,0,1-2.931,2.01,18.012,18.012,0,0,1-4.146,1.169,35.961,35.961,0,0,1-4.823.466l-.008,3.608-4.336-.025.007-3.668a62.293,62.293,0,0,1-7.42-.847,46.826,46.826,0,0,1-6.607-1.619l4.561-5.074q1.464.516,3.141.973,1.407.4,3.278.779a31.6,31.6,0,0,0,3.819.543l.005-2.623q-1.682-.247-3.359-.586a43.423,43.423,0,0,1-4.386-1.054,13.916,13.916,0,0,1-3.031-1.271,5.1,5.1,0,0,1-1.759-1.605,3.766,3.766,0,0,1-.565-2.061,4.459,4.459,0,0,1,.982-2.842,8.207,8.207,0,0,1,2.66-2.117,16.391,16.391,0,0,1,3.932-1.408,27.443,27.443,0,0,1,4.795-.659l.006-3.012,4.336.025-.007,3.042q1.787.13,3.467.378t3.223.571q1.542.321,2.9.673t2.492.655l-4.563,4.775c-.793-.282-1.662-.545-2.6-.789q-1.192-.334-2.68-.627c-.995-.195-1.995-.345-3.006-.45l-.006,2.684q.49.063,1.028.17c.362.071.74.139,1.138.2q2.653.463,4.794,1.012a19.282,19.282,0,0,1,3.655,1.288A6.434,6.434,0,0,1,527.394,323.469Zm-11.113,3.664c.359-.157.541-.364.542-.624,0-.277-.215-.523-.649-.733a8.109,8.109,0,0,0-1.732-.562l-.005,2.207a5.662,5.662,0,0,0,1.844-.288m-4.642-8.646,0-2.266q-2.168.137-2.169,1a.835.835,0,0,0,.538.733,6.849,6.849,0,0,0,1.626.531" transform="translate(-496.822 -308.075)" fill="#fd0"/>
            </g>
          </g>
        </g>
        <g id="Group_1272" data-name="Group 1272" transform="translate(6.764 77.839)">
          <path id="Path_2632" data-name="Path 2632" d="M498.737,342c-31.1,0-56.3-11.356-56.3-25.363s25.209-23.486,56.3-23.486,56.3,9.477,56.3,23.486S529.835,342,498.737,342Z" transform="translate(-442.432 -279.31)" fill="#da8100"/>
          <path id="Path_2633" data-name="Path 2633" d="M509.056,293.154c-2.39,0-4.738.063-7.049.172V341.8c2.311.13,4.66.2,7.049.2,2.138,0,4.245-.058,6.321-.163V293.292Q512.263,293.159,509.056,293.154Z" transform="translate(-452.657 -279.31)" fill="#f4bd00"/>
          <path id="Path_2634" data-name="Path 2634" d="M522.353,293.552V341.68c2.493-.2,4.933-.464,7.3-.8V294.237C527.286,293.946,524.846,293.719,522.353,293.552Z" transform="translate(-456.149 -279.379)" fill="#f4bd00"/>
          <path id="Path_2635" data-name="Path 2635" d="M487.875,294.476v46.172q3.55.565,7.3.921V293.69Q491.426,293.987,487.875,294.476Z" transform="translate(-450.232 -279.402)" fill="#f4bd00"/>
          <path id="Path_2636" data-name="Path 2636" d="M546.425,305.358a38.126,38.126,0,0,0-3.4-2v2h-87.39v-2.6a40.158,40.158,0,0,0-4.6,2.6h-8.607v12.93c0,6.214,4.968,11.9,13.2,16.313V318.288h87.39v15.651c7.52-4.312,12.017-9.743,12.017-15.651v-12.93Z" transform="translate(-442.432 -280.958)" fill="#c3690d"/>
          <path id="Path_2637" data-name="Path 2637" d="M498.737,327.117c-31.1,0-56.3-11.344-56.3-25.338s25.209-25.337,56.3-25.337,56.3,11.344,56.3,25.337S529.835,327.117,498.737,327.117Z" transform="translate(-442.432 -276.442)" fill="#fd0"/>
          <path id="Path_2638" data-name="Path 2638" d="M501.243,321.914c-24.417,0-44.209-8.622-44.209-19.255S476.826,283.4,501.243,283.4s44.208,8.623,44.208,19.258S525.659,321.914,501.243,321.914Z" transform="translate(-444.938 -277.636)" fill="#da8100"/>
          <path id="Path_2639" data-name="Path 2639" d="M501.243,322.782c-24.417,0-44.209-7.978-44.209-17.818s19.792-17.819,44.209-17.819,44.208,7.979,44.208,17.819S525.659,322.782,501.243,322.782Z" transform="translate(-444.938 -278.279)" fill="#f0aa00"/>
          <g id="Group_1271" data-name="Group 1271" transform="translate(39.188 11.374)">
            <g id="Group_1269" data-name="Group 1269" transform="translate(0.774 0.58)">
              <path id="Path_2640" data-name="Path 2640" d="M521.247,306.267a4.014,4.014,0,0,1,.809,2.539,4.318,4.318,0,0,1-1.118,2.991,8.29,8.29,0,0,1-2.931,2.01,18.006,18.006,0,0,1-4.146,1.169,35.846,35.846,0,0,1-4.823.466l-.007,3.608-4.336-.025.007-3.669a62.142,62.142,0,0,1-7.42-.847,46.7,46.7,0,0,1-6.607-1.619l4.561-5.074q1.464.517,3.141.973,1.407.4,3.278.779a31.743,31.743,0,0,0,3.818.543l.006-2.624q-1.682-.247-3.359-.586a43.371,43.371,0,0,1-4.386-1.054,13.867,13.867,0,0,1-3.032-1.271,5.105,5.105,0,0,1-1.759-1.6,3.774,3.774,0,0,1-.565-2.061,4.461,4.461,0,0,1,.982-2.843,8.223,8.223,0,0,1,2.659-2.117,16.436,16.436,0,0,1,3.932-1.408,27.533,27.533,0,0,1,4.795-.659l.007-3.012,4.336.025-.007,3.043q1.786.129,3.467.378t3.222.57q1.543.322,2.9.673t2.492.655l-4.563,4.775c-.792-.283-1.661-.546-2.6-.789q-1.193-.336-2.68-.628c-.995-.195-1.995-.345-3.007-.45l-.005,2.685c.326.042.669.1,1.028.169s.741.14,1.138.2q2.653.463,4.794,1.011a19.423,19.423,0,0,1,3.655,1.288A6.453,6.453,0,0,1,521.247,306.267Zm-11.114,3.664c.36-.157.542-.364.542-.624q0-.418-.649-.734a8.176,8.176,0,0,0-1.732-.562l0,2.207a5.677,5.677,0,0,0,1.843-.287m-4.642-8.646.005-2.266q-2.17.137-2.17,1a.838.838,0,0,0,.539.733,6.914,6.914,0,0,0,1.625.531" transform="translate(-490.674 -290.873)" fill="#da8100"/>
            </g>
            <g id="Group_1270" data-name="Group 1270">
              <path id="Path_2641" data-name="Path 2641" d="M520.312,305.567a4.011,4.011,0,0,1,.809,2.54A4.319,4.319,0,0,1,520,311.1a8.285,8.285,0,0,1-2.931,2.01,18.005,18.005,0,0,1-4.146,1.169,35.822,35.822,0,0,1-4.823.466l-.008,3.608-4.336-.026.008-3.668a62.141,62.141,0,0,1-7.421-.847,46.833,46.833,0,0,1-6.607-1.619l4.561-5.074q1.464.516,3.141.972,1.407.4,3.278.779a31.443,31.443,0,0,0,3.819.543l0-2.624q-1.682-.247-3.359-.586a43.364,43.364,0,0,1-4.386-1.054,13.873,13.873,0,0,1-3.031-1.271,5.1,5.1,0,0,1-1.759-1.605,3.763,3.763,0,0,1-.565-2.061,4.456,4.456,0,0,1,.982-2.842,8.208,8.208,0,0,1,2.66-2.117,16.4,16.4,0,0,1,3.932-1.408,27.463,27.463,0,0,1,4.8-.659l.006-3.012,4.336.025-.007,3.042q1.786.131,3.467.378t3.223.571q1.542.322,2.9.673t2.492.654l-4.564,4.776c-.792-.282-1.661-.546-2.6-.79q-1.192-.334-2.68-.627c-.995-.195-1.995-.345-3.006-.45l-.006,2.684c.326.043.668.1,1.028.17s.741.139,1.138.2q2.653.463,4.794,1.012a19.4,19.4,0,0,1,3.655,1.288A6.452,6.452,0,0,1,520.312,305.567ZM509.2,309.23c.359-.157.541-.364.542-.623q0-.417-.649-.734a8.106,8.106,0,0,0-1.733-.562l0,2.207a5.66,5.66,0,0,0,1.844-.288m-4.643-8.645,0-2.266q-2.168.137-2.169,1a.837.837,0,0,0,.538.733,6.928,6.928,0,0,0,1.625.531" transform="translate(-489.74 -290.173)" fill="#fd0"/>
            </g>
          </g>
        </g>
        <g id="Group_1276" data-name="Group 1276" transform="translate(6.764 61.869)">
          <path id="Path_2642" data-name="Path 2642" d="M498.737,322.724c-31.1,0-56.3-11.356-56.3-25.363s25.209-23.486,56.3-23.486,56.3,9.477,56.3,23.486S529.835,322.724,498.737,322.724Z" transform="translate(-442.432 -260.031)" fill="#da8100"/>
          <path id="Path_2643" data-name="Path 2643" d="M509.056,273.875c-2.39,0-4.738.063-7.049.172v48.472c2.311.13,4.66.2,7.049.2q3.207,0,6.321-.163V274.013Q512.263,273.88,509.056,273.875Z" transform="translate(-452.657 -260.031)" fill="#f4bd00"/>
          <path id="Path_2644" data-name="Path 2644" d="M522.353,274.273V322.4c2.493-.2,4.933-.464,7.3-.8V274.958C527.286,274.667,524.846,274.44,522.353,274.273Z" transform="translate(-456.149 -260.1)" fill="#f4bd00"/>
          <path id="Path_2645" data-name="Path 2645" d="M487.875,275.2V321.37c2.367.376,4.8.688,7.3.92V274.412Q491.426,274.708,487.875,275.2Z" transform="translate(-450.232 -260.124)" fill="#f4bd00"/>
          <path id="Path_2646" data-name="Path 2646" d="M546.425,286.079a38.133,38.133,0,0,0-3.4-2v2h-87.39v-2.6a40.172,40.172,0,0,0-4.6,2.6h-8.607v12.93c0,6.214,4.968,11.9,13.2,16.313V299.009h87.39V314.66c7.52-4.312,12.017-9.743,12.017-15.651v-12.93Z" transform="translate(-442.432 -261.679)" fill="#c3690d"/>
          <path id="Path_2647" data-name="Path 2647" d="M498.737,307.838c-31.1,0-56.3-11.344-56.3-25.338s25.209-25.337,56.3-25.337,56.3,11.344,56.3,25.337S529.835,307.838,498.737,307.838Z" transform="translate(-442.432 -257.163)" fill="#fd0"/>
          <path id="Path_2648" data-name="Path 2648" d="M501.243,302.635c-24.417,0-44.209-8.622-44.209-19.255s19.792-19.258,44.209-19.258,44.208,8.623,44.208,19.258S525.659,302.635,501.243,302.635Z" transform="translate(-444.938 -258.357)" fill="#da8100"/>
          <path id="Path_2649" data-name="Path 2649" d="M501.243,303.5c-24.417,0-44.209-7.978-44.209-17.818s19.792-17.819,44.209-17.819,44.208,7.979,44.208,17.819S525.659,303.5,501.243,303.5Z" transform="translate(-444.938 -259)" fill="#f0aa00"/>
          <g id="Group_1275" data-name="Group 1275" transform="translate(39.188 11.374)">
            <g id="Group_1273" data-name="Group 1273" transform="translate(0.774 0.58)">
              <path id="Path_2650" data-name="Path 2650" d="M521.247,286.988a4.014,4.014,0,0,1,.809,2.539,4.318,4.318,0,0,1-1.118,2.991,8.3,8.3,0,0,1-2.931,2.011,18.088,18.088,0,0,1-4.146,1.169,35.967,35.967,0,0,1-4.823.465l-.007,3.608-4.336-.025.007-3.669a62.148,62.148,0,0,1-7.42-.847,46.7,46.7,0,0,1-6.607-1.619l4.561-5.073q1.464.516,3.141.972,1.407.4,3.278.78a31.762,31.762,0,0,0,3.818.543l.006-2.624q-1.682-.247-3.359-.586a43.379,43.379,0,0,1-4.386-1.054A13.868,13.868,0,0,1,494.7,285.3a5.105,5.105,0,0,1-1.759-1.6,3.774,3.774,0,0,1-.565-2.061,4.461,4.461,0,0,1,.982-2.843,8.211,8.211,0,0,1,2.659-2.117,16.4,16.4,0,0,1,3.932-1.409,27.539,27.539,0,0,1,4.795-.659l.007-3.012,4.336.025-.007,3.043q1.786.129,3.467.378t3.222.57q1.543.322,2.9.673t2.492.655l-4.563,4.775c-.792-.283-1.661-.546-2.6-.789q-1.193-.335-2.68-.628c-.995-.195-1.995-.344-3.007-.45l-.005,2.685c.326.042.669.1,1.028.17s.741.139,1.138.2q2.653.463,4.794,1.011a19.427,19.427,0,0,1,3.655,1.288A6.452,6.452,0,0,1,521.247,286.988Zm-11.114,3.664c.36-.157.542-.364.542-.624q0-.416-.649-.734a8.127,8.127,0,0,0-1.732-.562l0,2.208a5.7,5.7,0,0,0,1.843-.288m-4.642-8.646.005-2.266q-2.17.137-2.17,1a.838.838,0,0,0,.539.733,6.921,6.921,0,0,0,1.625.531" transform="translate(-490.674 -271.594)" fill="#da8100"/>
            </g>
            <g id="Group_1274" data-name="Group 1274">
              <path id="Path_2651" data-name="Path 2651" d="M520.312,286.288a4.007,4.007,0,0,1,.809,2.539A4.319,4.319,0,0,1,520,291.819a8.284,8.284,0,0,1-2.931,2.01A18.01,18.01,0,0,1,512.927,295a35.817,35.817,0,0,1-4.823.466l-.008,3.608-4.336-.025.008-3.669a62.123,62.123,0,0,1-7.421-.847,46.829,46.829,0,0,1-6.607-1.619l4.561-5.074q1.464.516,3.141.973,1.407.4,3.278.779a31.6,31.6,0,0,0,3.819.544l0-2.624q-1.682-.247-3.359-.586a43.4,43.4,0,0,1-4.386-1.054,13.878,13.878,0,0,1-3.031-1.271,5.1,5.1,0,0,1-1.759-1.6,3.766,3.766,0,0,1-.565-2.061,4.456,4.456,0,0,1,.982-2.843,8.207,8.207,0,0,1,2.66-2.117,16.4,16.4,0,0,1,3.932-1.408,27.548,27.548,0,0,1,4.8-.659l.006-3.012,4.336.025-.007,3.042q1.786.13,3.467.378t3.223.571q1.542.322,2.9.673t2.492.655l-4.564,4.775c-.792-.282-1.661-.546-2.6-.789q-1.192-.335-2.68-.628c-.995-.195-1.995-.345-3.006-.45l-.006,2.684c.326.043.668.1,1.028.17s.741.139,1.138.2q2.653.463,4.794,1.012a19.4,19.4,0,0,1,3.655,1.288A6.443,6.443,0,0,1,520.312,286.288ZM509.2,289.951c.359-.157.541-.364.542-.623q0-.417-.649-.734a8.1,8.1,0,0,0-1.733-.562l0,2.207a5.663,5.663,0,0,0,1.844-.288m-4.643-8.645,0-2.266q-2.168.137-2.169,1a.837.837,0,0,0,.538.733,6.932,6.932,0,0,0,1.625.531" transform="translate(-489.74 -270.894)" fill="#fd0"/>
            </g>
          </g>
        </g>
        <g id="Group_1280" data-name="Group 1280" transform="translate(0 46.877)">
          <path id="Path_2652" data-name="Path 2652" d="M490.573,304.626c-31.1,0-56.306-11.357-56.306-25.363s25.21-23.486,56.306-23.486,56.3,9.477,56.3,23.486S521.67,304.626,490.573,304.626Z" transform="translate(-434.267 -241.933)" fill="#da8100"/>
          <path id="Path_2653" data-name="Path 2653" d="M500.892,255.777c-2.39,0-4.739.062-7.049.172V304.42c2.31.13,4.66.205,7.049.205,2.138,0,4.245-.059,6.321-.163V255.914Q504.1,255.782,500.892,255.777Z" transform="translate(-444.492 -241.933)" fill="#f4bd00"/>
          <path id="Path_2654" data-name="Path 2654" d="M514.189,256.175V304.3c2.493-.2,4.933-.465,7.3-.8V256.859C519.122,256.568,516.682,256.342,514.189,256.175Z" transform="translate(-447.984 -242.002)" fill="#f4bd00"/>
          <path id="Path_2655" data-name="Path 2655" d="M479.711,257.1v46.172c2.367.376,4.8.688,7.3.92V256.313Q483.262,256.609,479.711,257.1Z" transform="translate(-442.067 -242.025)" fill="#f4bd00"/>
          <path id="Path_2656" data-name="Path 2656" d="M538.261,267.98a38.444,38.444,0,0,0-3.4-2v2H447.47v-2.6a40.059,40.059,0,0,0-4.6,2.6h-8.608v12.931c0,6.213,4.969,11.9,13.2,16.312V280.911h87.39v15.651c7.52-4.312,12.017-9.744,12.017-15.651V267.98Z" transform="translate(-434.267 -243.581)" fill="#c3690d"/>
          <path id="Path_2657" data-name="Path 2657" d="M490.573,289.739c-31.1,0-56.306-11.344-56.306-25.338s25.21-25.336,56.306-25.336,56.3,11.344,56.3,25.336S521.67,289.739,490.573,289.739Z" transform="translate(-434.267 -239.065)" fill="#fd0"/>
          <path id="Path_2658" data-name="Path 2658" d="M493.079,284.537c-24.417,0-44.209-8.622-44.209-19.256s19.792-19.257,44.209-19.257,44.208,8.622,44.208,19.257S517.5,284.537,493.079,284.537Z" transform="translate(-436.773 -240.259)" fill="#da8100"/>
          <path id="Path_2659" data-name="Path 2659" d="M493.079,285.4c-24.417,0-44.209-7.978-44.209-17.817s19.792-17.82,44.209-17.82,44.208,7.979,44.208,17.82S517.5,285.4,493.079,285.4Z" transform="translate(-436.773 -240.902)" fill="#f0aa00"/>
          <g id="Group_1279" data-name="Group 1279" transform="translate(39.189 11.374)">
            <g id="Group_1277" data-name="Group 1277" transform="translate(0.774 0.58)">
              <path id="Path_2660" data-name="Path 2660" d="M513.083,268.89a4.015,4.015,0,0,1,.809,2.54,4.315,4.315,0,0,1-1.118,2.99,8.3,8.3,0,0,1-2.931,2.011A18.1,18.1,0,0,1,505.7,277.6a35.964,35.964,0,0,1-4.823.465l-.007,3.608-4.336-.025.007-3.668a62.307,62.307,0,0,1-7.42-.847,46.807,46.807,0,0,1-6.607-1.619l4.561-5.074q1.464.516,3.141.973,1.406.4,3.278.779a31.594,31.594,0,0,0,3.818.543l.006-2.623q-1.682-.249-3.359-.586a43.381,43.381,0,0,1-4.386-1.054,13.948,13.948,0,0,1-3.032-1.271,5.109,5.109,0,0,1-1.759-1.605,3.773,3.773,0,0,1-.565-2.061,4.459,4.459,0,0,1,.982-2.842,8.213,8.213,0,0,1,2.659-2.117,16.44,16.44,0,0,1,3.932-1.409,27.539,27.539,0,0,1,4.794-.659l.007-3.012,4.336.025-.006,3.042q1.785.131,3.466.378t3.223.57q1.543.322,2.9.673t2.492.655l-4.563,4.775c-.792-.282-1.661-.545-2.6-.789q-1.193-.335-2.68-.627c-.995-.195-1.995-.345-3.007-.45l-.006,2.684q.49.063,1.029.17c.362.071.741.139,1.137.2q2.654.463,4.794,1.011a19.359,19.359,0,0,1,3.655,1.289A6.441,6.441,0,0,1,513.083,268.89Zm-11.114,3.664c.36-.157.542-.364.542-.624,0-.278-.215-.523-.649-.733a8.118,8.118,0,0,0-1.732-.562l0,2.208a5.651,5.651,0,0,0,1.843-.288m-4.642-8.646,0-2.266q-2.169.137-2.169,1a.836.836,0,0,0,.539.733,6.832,6.832,0,0,0,1.625.531" transform="translate(-482.51 -253.496)" fill="#da8100"/>
            </g>
            <g id="Group_1278" data-name="Group 1278">
              <path id="Path_2661" data-name="Path 2661" d="M512.148,268.19a4.01,4.01,0,0,1,.809,2.539,4.316,4.316,0,0,1-1.118,2.991,8.3,8.3,0,0,1-2.931,2.011,18.093,18.093,0,0,1-4.146,1.169,35.961,35.961,0,0,1-4.823.465l-.007,3.608-4.336-.025.007-3.669a61.964,61.964,0,0,1-7.42-.847,46.841,46.841,0,0,1-6.607-1.618l4.561-5.074q1.464.516,3.141.972,1.407.4,3.278.779a31.755,31.755,0,0,0,3.819.543l.005-2.624q-1.682-.247-3.359-.585a43.568,43.568,0,0,1-4.386-1.055,13.9,13.9,0,0,1-3.031-1.27,5.1,5.1,0,0,1-1.759-1.605,3.768,3.768,0,0,1-.565-2.061,4.453,4.453,0,0,1,.982-2.842,8.2,8.2,0,0,1,2.66-2.117,16.428,16.428,0,0,1,3.931-1.409,27.613,27.613,0,0,1,4.8-.659l.006-3.011,4.336.025-.007,3.042q1.785.13,3.467.378t3.223.57q1.542.322,2.9.673t2.492.655l-4.563,4.775c-.792-.282-1.661-.546-2.6-.789q-1.192-.336-2.68-.628c-.995-.194-1.995-.344-3.006-.45l-.006,2.685c.326.042.669.1,1.028.17s.741.139,1.138.2q2.653.463,4.794,1.011a19.4,19.4,0,0,1,3.655,1.288A6.446,6.446,0,0,1,512.148,268.19Zm-11.113,3.664c.359-.157.541-.365.542-.624q0-.416-.649-.734a8.194,8.194,0,0,0-1.733-.562l0,2.208a5.685,5.685,0,0,0,1.844-.288m-4.643-8.646.005-2.266q-2.168.138-2.169,1a.836.836,0,0,0,.538.733,6.932,6.932,0,0,0,1.625.531" transform="translate(-481.576 -252.796)" fill="#fd0"/>
            </g>
          </g>
        </g>
        <g id="Group_1284" data-name="Group 1284" transform="translate(6.845 30.826)">
          <path id="Path_2662" data-name="Path 2662" d="M498.835,285.249c-31.1,0-56.3-11.357-56.3-25.364s25.209-23.485,56.3-23.485,56.3,9.477,56.3,23.485S529.933,285.249,498.835,285.249Z" transform="translate(-442.53 -222.556)" fill="#da8100"/>
          <path id="Path_2663" data-name="Path 2663" d="M509.154,236.4c-2.389,0-4.738.062-7.049.171v48.472c2.311.13,4.66.205,7.049.205,2.138,0,4.245-.059,6.321-.163V236.537Q512.362,236.4,509.154,236.4Z" transform="translate(-452.755 -222.556)" fill="#f4bd00"/>
          <path id="Path_2664" data-name="Path 2664" d="M522.452,236.8v48.128c2.493-.2,4.932-.464,7.3-.8V237.482C527.384,237.191,524.945,236.964,522.452,236.8Z" transform="translate(-456.247 -222.624)" fill="#f4bd00"/>
          <path id="Path_2665" data-name="Path 2665" d="M487.973,237.721v46.172c2.367.376,4.8.688,7.3.92V236.936Q491.526,237.232,487.973,237.721Z" transform="translate(-450.33 -222.648)" fill="#f4bd00"/>
          <path id="Path_2666" data-name="Path 2666" d="M546.524,248.6a38.559,38.559,0,0,0-3.4-2v2h-87.39V246a40.11,40.11,0,0,0-4.6,2.6H442.53v12.93c0,6.214,4.969,11.9,13.2,16.313V261.533h87.39v15.651c7.519-4.312,12.016-9.743,12.016-15.651V248.6Z" transform="translate(-442.53 -224.204)" fill="#c3690d"/>
          <path id="Path_2667" data-name="Path 2667" d="M498.835,270.362c-31.1,0-56.3-11.344-56.3-25.338s25.209-25.336,56.3-25.336,56.3,11.343,56.3,25.336S529.933,270.362,498.835,270.362Z" transform="translate(-442.53 -219.688)" fill="#fd0"/>
          <path id="Path_2668" data-name="Path 2668" d="M501.341,265.159c-24.416,0-44.209-8.622-44.209-19.255s19.793-19.258,44.209-19.258,44.209,8.623,44.209,19.258S525.757,265.159,501.341,265.159Z" transform="translate(-445.036 -220.882)" fill="#da8100"/>
          <path id="Path_2669" data-name="Path 2669" d="M501.341,266.027c-24.416,0-44.209-7.978-44.209-17.818s19.793-17.819,44.209-17.819,44.209,7.979,44.209,17.819S525.757,266.027,501.341,266.027Z" transform="translate(-445.036 -221.525)" fill="#f0aa00"/>
          <g id="Group_1283" data-name="Group 1283" transform="translate(39.189 11.373)">
            <g id="Group_1281" data-name="Group 1281" transform="translate(0.773 0.581)">
              <path id="Path_2670" data-name="Path 2670" d="M521.345,249.513a4.009,4.009,0,0,1,.809,2.539,4.317,4.317,0,0,1-1.118,2.991,8.3,8.3,0,0,1-2.931,2.011,18.092,18.092,0,0,1-4.146,1.169,35.962,35.962,0,0,1-4.823.465l-.007,3.608-4.337-.025.008-3.669a61.963,61.963,0,0,1-7.421-.847,46.826,46.826,0,0,1-6.607-1.618l4.561-5.074q1.464.516,3.141.972,1.406.4,3.278.78a31.76,31.76,0,0,0,3.819.543l0-2.624q-1.682-.247-3.359-.585a43.583,43.583,0,0,1-4.386-1.055,13.919,13.919,0,0,1-3.031-1.27,5.108,5.108,0,0,1-1.759-1.605,3.767,3.767,0,0,1-.565-2.061,4.452,4.452,0,0,1,.982-2.842,8.2,8.2,0,0,1,2.66-2.117,16.43,16.43,0,0,1,3.931-1.409,27.626,27.626,0,0,1,4.8-.659l.006-3.011,4.337.025-.007,3.042q1.785.13,3.467.378t3.223.57q1.542.322,2.9.673t2.492.655l-4.564,4.775c-.792-.283-1.661-.546-2.6-.789q-1.192-.335-2.68-.628c-.995-.194-1.995-.344-3.006-.45l-.006,2.685c.326.042.669.1,1.028.17s.741.139,1.138.2q2.653.463,4.794,1.011a19.4,19.4,0,0,1,3.655,1.288A6.445,6.445,0,0,1,521.345,249.513Zm-11.113,3.664c.36-.157.541-.365.542-.624q0-.416-.649-.734a8.2,8.2,0,0,0-1.733-.562l0,2.208a5.685,5.685,0,0,0,1.844-.288m-4.643-8.646.005-2.266q-2.168.138-2.169,1a.836.836,0,0,0,.538.733,6.894,6.894,0,0,0,1.625.531" transform="translate(-490.772 -234.119)" fill="#da8100"/>
            </g>
            <g id="Group_1282" data-name="Group 1282">
              <path id="Path_2671" data-name="Path 2671" d="M520.411,248.812a4.01,4.01,0,0,1,.809,2.539,4.319,4.319,0,0,1-1.118,2.991,8.285,8.285,0,0,1-2.931,2.01,17.99,17.99,0,0,1-4.145,1.169,35.849,35.849,0,0,1-4.824.466l-.007,3.608-4.336-.025.007-3.669a62.091,62.091,0,0,1-7.42-.847,46.659,46.659,0,0,1-6.607-1.619l4.561-5.074q1.462.517,3.141.973,1.407.4,3.277.779a31.631,31.631,0,0,0,3.819.544l0-2.624q-1.681-.247-3.358-.586a43.462,43.462,0,0,1-4.387-1.054,13.875,13.875,0,0,1-3.031-1.271,5.1,5.1,0,0,1-1.759-1.6,3.767,3.767,0,0,1-.565-2.061,4.462,4.462,0,0,1,.982-2.843,8.2,8.2,0,0,1,2.659-2.117,16.366,16.366,0,0,1,3.932-1.409,27.521,27.521,0,0,1,4.795-.659l.007-3.012,4.336.025-.006,3.043q1.786.129,3.466.378t3.223.57q1.543.322,2.9.673t2.492.655l-4.563,4.775q-1.189-.424-2.6-.789-1.193-.336-2.681-.628c-.995-.195-1.995-.345-3.006-.45l-.006,2.684c.326.043.669.1,1.029.17s.74.14,1.137.2q2.653.465,4.794,1.012a19.4,19.4,0,0,1,3.655,1.288A6.448,6.448,0,0,1,520.411,248.812ZM509.3,252.475c.36-.157.541-.364.542-.623q0-.416-.649-.734a8.16,8.16,0,0,0-1.732-.562l0,2.207a5.654,5.654,0,0,0,1.844-.288m-4.642-8.645,0-2.266q-2.168.137-2.169,1a.837.837,0,0,0,.539.733,6.9,6.9,0,0,0,1.625.531" transform="translate(-489.839 -233.418)" fill="#fd0"/>
            </g>
          </g>
        </g>
        <g id="Group_1288" data-name="Group 1288" transform="translate(11.693 15.728)">
          <path id="Path_2672" data-name="Path 2672" d="M504.688,267.023c-31.1,0-56.3-11.357-56.3-25.364s25.209-23.485,56.3-23.485,56.3,9.477,56.3,23.485S535.786,267.023,504.688,267.023Z" transform="translate(-448.383 -204.33)" fill="#da8100"/>
          <path id="Path_2673" data-name="Path 2673" d="M515.007,218.174c-2.389,0-4.738.062-7.049.172v48.471c2.311.13,4.66.205,7.049.205,2.138,0,4.245-.059,6.321-.163V218.311Q518.215,218.179,515.007,218.174Z" transform="translate(-458.608 -204.33)" fill="#f4bd00"/>
          <path id="Path_2674" data-name="Path 2674" d="M528.3,218.572V266.7c2.493-.2,4.932-.465,7.3-.805V219.256C533.237,218.965,530.8,218.739,528.3,218.572Z" transform="translate(-462.1 -204.399)" fill="#f4bd00"/>
          <path id="Path_2675" data-name="Path 2675" d="M493.826,219.5v46.172q3.55.565,7.3.92V218.71Q497.377,219.006,493.826,219.5Z" transform="translate(-456.183 -204.422)" fill="#f4bd00"/>
          <path id="Path_2676" data-name="Path 2676" d="M552.376,230.377a38.3,38.3,0,0,0-3.4-2v2H461.586v-2.6a40.044,40.044,0,0,0-4.6,2.6h-8.607v12.93c0,6.214,4.969,11.9,13.2,16.313V243.307h87.389v15.652c7.52-4.312,12.017-9.744,12.017-15.652v-12.93Z" transform="translate(-448.383 -205.978)" fill="#c3690d"/>
          <path id="Path_2677" data-name="Path 2677" d="M504.688,252.136c-31.1,0-56.3-11.344-56.3-25.338s25.209-25.336,56.3-25.336,56.3,11.344,56.3,25.336S535.786,252.136,504.688,252.136Z" transform="translate(-448.383 -201.462)" fill="#fd0"/>
          <path id="Path_2678" data-name="Path 2678" d="M507.194,246.934c-24.417,0-44.209-8.622-44.209-19.256s19.792-19.257,44.209-19.257,44.208,8.622,44.208,19.257S531.61,246.934,507.194,246.934Z" transform="translate(-450.889 -202.656)" fill="#da8100"/>
          <path id="Path_2679" data-name="Path 2679" d="M507.194,247.8c-24.417,0-44.209-7.978-44.209-17.817s19.792-17.82,44.209-17.82,44.208,7.979,44.208,17.82S531.61,247.8,507.194,247.8Z" transform="translate(-450.889 -203.299)" fill="#f0aa00"/>
          <g id="Group_1287" data-name="Group 1287" transform="translate(39.188 11.374)">
            <g id="Group_1285" data-name="Group 1285" transform="translate(0.774 0.58)">
              <path id="Path_2680" data-name="Path 2680" d="M527.2,231.287a4.011,4.011,0,0,1,.809,2.54,4.318,4.318,0,0,1-1.118,2.991,8.3,8.3,0,0,1-2.931,2.01A18.05,18.05,0,0,1,519.812,240a35.83,35.83,0,0,1-4.823.465l-.007,3.608-4.337-.025.007-3.668a62.311,62.311,0,0,1-7.42-.847,46.807,46.807,0,0,1-6.607-1.619l4.561-5.074q1.464.516,3.141.972,1.407.4,3.278.779a31.785,31.785,0,0,0,3.818.543l.006-2.623q-1.682-.249-3.359-.586a43.143,43.143,0,0,1-4.386-1.055,13.9,13.9,0,0,1-3.031-1.27,5.11,5.11,0,0,1-1.759-1.605,3.772,3.772,0,0,1-.564-2.061,4.454,4.454,0,0,1,.982-2.842,8.2,8.2,0,0,1,2.66-2.117,16.417,16.417,0,0,1,3.931-1.409,27.533,27.533,0,0,1,4.8-.659l.006-3.012,4.336.025-.007,3.042q1.786.13,3.467.378t3.223.57q1.542.322,2.9.673t2.493.655l-4.563,4.775c-.792-.282-1.661-.545-2.6-.789q-1.192-.336-2.68-.627c-.995-.195-1.995-.345-3.007-.45l-.005,2.684q.488.063,1.028.17c.362.071.741.139,1.138.2q2.653.463,4.794,1.011a19.34,19.34,0,0,1,3.655,1.289A6.435,6.435,0,0,1,527.2,231.287Zm-11.114,3.664c.36-.157.542-.364.543-.624,0-.277-.216-.523-.649-.733a8.1,8.1,0,0,0-1.733-.562l0,2.207a5.674,5.674,0,0,0,1.843-.288m-4.642-8.646.005-2.266q-2.168.137-2.169,1a.838.838,0,0,0,.539.733,6.853,6.853,0,0,0,1.625.531" transform="translate(-496.625 -215.893)" fill="#da8100"/>
            </g>
            <g id="Group_1286" data-name="Group 1286">
              <path id="Path_2681" data-name="Path 2681" d="M526.263,230.587a4,4,0,0,1,.809,2.54,4.315,4.315,0,0,1-1.118,2.99,8.3,8.3,0,0,1-2.931,2.011,18.078,18.078,0,0,1-4.146,1.169,35.958,35.958,0,0,1-4.823.465l-.008,3.608-4.336-.025.007-3.669a61.961,61.961,0,0,1-7.421-.847,46.828,46.828,0,0,1-6.607-1.618l4.562-5.074q1.462.516,3.141.972,1.407.4,3.277.779a31.777,31.777,0,0,0,3.819.543l.005-2.624q-1.681-.247-3.358-.585a43.663,43.663,0,0,1-4.387-1.055,13.92,13.92,0,0,1-3.031-1.27,5.108,5.108,0,0,1-1.759-1.605,3.767,3.767,0,0,1-.565-2.061,4.458,4.458,0,0,1,.982-2.842,8.184,8.184,0,0,1,2.659-2.117,16.426,16.426,0,0,1,3.932-1.409,27.6,27.6,0,0,1,4.795-.659l.007-3.011,4.336.025-.006,3.042q1.786.13,3.466.378t3.223.57q1.542.322,2.9.673t2.492.655l-4.563,4.775q-1.189-.424-2.6-.789-1.193-.335-2.681-.628c-.995-.194-1.995-.344-3.006-.45l-.006,2.685c.326.042.669.1,1.028.17s.741.139,1.138.2q2.653.463,4.794,1.011a19.337,19.337,0,0,1,3.655,1.289A6.428,6.428,0,0,1,526.263,230.587ZM515.15,234.25c.359-.157.541-.364.542-.624q0-.416-.649-.734a8.2,8.2,0,0,0-1.732-.562l0,2.208a5.679,5.679,0,0,0,1.844-.288m-4.642-8.646,0-2.266q-2.168.138-2.169,1a.836.836,0,0,0,.539.733,6.9,6.9,0,0,0,1.625.531" transform="translate(-495.691 -215.193)" fill="#fd0"/>
            </g>
          </g>
        </g>
        <g id="Group_1292" data-name="Group 1292" transform="translate(6.761)">
          <path id="Path_2682" data-name="Path 2682" d="M498.734,248.036c-31.1,0-56.3-11.356-56.3-25.363s25.21-23.486,56.3-23.486,56.3,9.477,56.3,23.486S529.832,248.036,498.734,248.036Z" transform="translate(-442.429 -185.343)" fill="#da8100"/>
          <path id="Path_2683" data-name="Path 2683" d="M509.054,199.187c-2.39,0-4.739.063-7.049.172v48.472c2.31.13,4.66.2,7.049.2q3.207,0,6.321-.163V199.324Q512.26,199.192,509.054,199.187Z" transform="translate(-452.654 -185.343)" fill="#f4bd00"/>
          <path id="Path_2684" data-name="Path 2684" d="M522.351,199.585v48.128c2.493-.2,4.933-.465,7.3-.8V200.27C527.284,199.979,524.844,199.752,522.351,199.585Z" transform="translate(-456.146 -185.412)" fill="#f4bd00"/>
          <path id="Path_2685" data-name="Path 2685" d="M487.873,200.509v46.171q3.55.565,7.3.921V199.723Q491.424,200.02,487.873,200.509Z" transform="translate(-450.229 -185.435)" fill="#f4bd00"/>
          <path id="Path_2686" data-name="Path 2686" d="M546.423,211.391a38.219,38.219,0,0,0-3.4-2v2h-87.39v-2.6a40.165,40.165,0,0,0-4.6,2.6h-8.608v12.93c0,6.214,4.969,11.9,13.2,16.313V224.321h87.39v15.651c7.52-4.312,12.016-9.743,12.016-15.651v-12.93Z" transform="translate(-442.429 -186.991)" fill="#c3690d"/>
          <path id="Path_2687" data-name="Path 2687" d="M498.734,233.15c-31.1,0-56.3-11.344-56.3-25.338s25.21-25.337,56.3-25.337,56.3,11.344,56.3,25.337S529.832,233.15,498.734,233.15Z" transform="translate(-442.429 -182.475)" fill="#fd0"/>
          <path id="Path_2688" data-name="Path 2688" d="M501.24,227.947c-24.416,0-44.208-8.622-44.208-19.255s19.792-19.258,44.208-19.258,44.209,8.623,44.209,19.258S525.657,227.947,501.24,227.947Z" transform="translate(-444.935 -183.669)" fill="#da8100"/>
          <path id="Path_2689" data-name="Path 2689" d="M501.24,228.815c-24.416,0-44.208-7.978-44.208-17.818s19.792-17.819,44.208-17.819,44.209,7.979,44.209,17.819S525.657,228.815,501.24,228.815Z" transform="translate(-444.935 -184.312)" fill="#f0aa00"/>
          <g id="Group_1291" data-name="Group 1291" transform="translate(39.189 11.374)">
            <g id="Group_1289" data-name="Group 1289" transform="translate(0.774 0.58)">
              <path id="Path_2690" data-name="Path 2690" d="M521.244,212.3a4.014,4.014,0,0,1,.809,2.539,4.319,4.319,0,0,1-1.118,2.991,8.3,8.3,0,0,1-2.931,2.01,18.05,18.05,0,0,1-4.146,1.17,35.981,35.981,0,0,1-4.824.465l-.008,3.608-4.336-.025.007-3.669a62.092,62.092,0,0,1-7.42-.847,46.77,46.77,0,0,1-6.607-1.619l4.561-5.074q1.464.516,3.141.973,1.407.4,3.277.779a31.791,31.791,0,0,0,3.819.543l.006-2.624q-1.682-.247-3.359-.586a43.449,43.449,0,0,1-4.387-1.054,13.878,13.878,0,0,1-3.031-1.271,5.1,5.1,0,0,1-1.759-1.6,3.767,3.767,0,0,1-.565-2.061,4.461,4.461,0,0,1,.982-2.843,8.212,8.212,0,0,1,2.659-2.116,16.4,16.4,0,0,1,3.932-1.409,27.6,27.6,0,0,1,4.795-.659l.007-3.012,4.336.025-.006,3.043q1.786.129,3.466.378t3.223.57q1.543.322,2.9.673t2.492.655l-4.563,4.775c-.792-.282-1.661-.546-2.6-.789q-1.193-.335-2.68-.628c-1-.195-2-.345-3.007-.45l-.006,2.685c.326.042.669.1,1.029.169s.74.139,1.137.2q2.653.462,4.794,1.011a19.427,19.427,0,0,1,3.656,1.288A6.452,6.452,0,0,1,521.244,212.3Zm-11.114,3.664c.36-.157.542-.364.542-.624q0-.417-.649-.734a8.126,8.126,0,0,0-1.732-.562l0,2.207a5.681,5.681,0,0,0,1.844-.287m-4.642-8.646.005-2.266q-2.17.137-2.17,1a.837.837,0,0,0,.539.733,6.9,6.9,0,0,0,1.625.531" transform="translate(-490.672 -196.906)" fill="#da8100"/>
            </g>
            <g id="Group_1290" data-name="Group 1290">
              <path id="Path_2691" data-name="Path 2691" d="M520.31,211.6a4.012,4.012,0,0,1,.809,2.54A4.318,4.318,0,0,1,520,217.131a8.284,8.284,0,0,1-2.931,2.01,18.008,18.008,0,0,1-4.146,1.169,35.831,35.831,0,0,1-4.823.466l-.007,3.608-4.336-.026.008-3.668a62.145,62.145,0,0,1-7.421-.847,46.8,46.8,0,0,1-6.607-1.619l4.561-5.074q1.464.516,3.141.973,1.407.4,3.278.779a31.448,31.448,0,0,0,3.818.543l.006-2.623q-1.683-.247-3.359-.586a43.371,43.371,0,0,1-4.386-1.054,13.86,13.86,0,0,1-3.031-1.271,5.112,5.112,0,0,1-1.759-1.605,3.769,3.769,0,0,1-.564-2.061,4.455,4.455,0,0,1,.982-2.842,8.218,8.218,0,0,1,2.66-2.117,16.379,16.379,0,0,1,3.931-1.408,27.448,27.448,0,0,1,4.8-.659l.006-3.012,4.337.025-.007,3.042q1.786.13,3.467.378t3.223.571q1.542.321,2.9.673t2.492.656l-4.563,4.775c-.792-.282-1.661-.546-2.6-.79q-1.192-.334-2.68-.627c-.995-.195-1.995-.345-3.007-.45l-.005,2.684c.326.043.669.1,1.028.17s.741.139,1.138.2q2.653.463,4.794,1.012a19.291,19.291,0,0,1,3.655,1.288A6.451,6.451,0,0,1,520.31,211.6ZM509.2,215.263q.541-.235.543-.623,0-.418-.649-.734a8.1,8.1,0,0,0-1.733-.562l0,2.207a5.651,5.651,0,0,0,1.843-.288m-4.642-8.646,0-2.266q-2.168.137-2.17,1a.84.84,0,0,0,.539.734,6.9,6.9,0,0,0,1.625.53" transform="translate(-489.738 -196.206)" fill="#fd0"/>
            </g>
          </g>
        </g>
      </g>
    </g>
    <path id="Path_2692" data-name="Path 2692" d="M470.3,281.3c11.635,3.732,33.558,21.2,35.988,50.334s-4.375,39.453-4.375,39.453-20.848-.634-28.244-4.37C480.171,355.359,474.325,283.723,470.3,281.3Z" transform="translate(-17.324 -16.961)" fill="#c3690d" opacity="0.55" style="mix-blend-mode: multiply;isolation: isolate"/>
    <g id="Group_1299" data-name="Group 1299" transform="translate(369.368 249.938)">
      <path id="Path_2693" data-name="Path 2693" d="M479.334,336.46c5.191-28.838-9.762-55.735-33.511-60.775l.007-.035L436.1,273.9l-.181,1c-21.18,1.132-40.376,19.851-45.018,45.637s6.821,50.025,26.277,58.472l-.181,1,9.728,1.751.007-.035C450.748,385.291,474.143,365.3,479.334,336.46Z" transform="translate(-372.887 -265.629)" fill="#da8100"/>
      <path id="Path_2694" data-name="Path 2694" d="M454.72,329.471v5.147h36.762q0-2.6-.207-5.147Z" transform="translate(-384.017 -275.167)" fill="#f4bd00"/>
      <path id="Path_2695" data-name="Path 2695" d="M454.72,357.04h34.013q.757-2.519,1.319-5.147H454.72Z" transform="translate(-384.017 -279.016)" fill="#f4bd00"/>
      <path id="Path_2696" data-name="Path 2696" d="M454.72,346.822h35.868a64.611,64.611,0,0,0,.837-7.988H454.72Z" transform="translate(-384.017 -276.774)" fill="#f4bd00"/>
      <g id="Group_1295" data-name="Group 1295" transform="translate(17.268 8.27)">
        <path id="Path_2697" data-name="Path 2697" d="M478.279,300.963c-5.813-12.9-16.3-22.475-29.507-25.278l.007-.035L439.05,273.9l-.181,1c-12.009.641-23.377,16.029-31.819,26.06Z" transform="translate(-393.104 -273.899)" fill="#c3690d"/>
        <path id="Path_2698" data-name="Path 2698" d="M390.214,351.038c1.769,18.775,12.013,34.7,27.024,41.214l-.181,1,9.728,1.751.007-.035c15.128,2.242,30.007-4.869,40.247-17.644C446.836,377.328,414.005,378.857,390.214,351.038Z" transform="translate(-390.214 -287.139)" fill="#c3690d"/>
      </g>
      <g id="Group_1298" data-name="Group 1298" transform="translate(0 0)">
        <ellipse id="Ellipse_126" data-name="Ellipse 126" cx="54.187" cy="44.882" rx="54.187" ry="44.882" transform="translate(0 106.659) rotate(-79.795)" fill="#fd0"/>
        <path id="Path_2699" data-name="Path 2699" d="M461.277,335.4c-4.113,22.846-22.786,38.605-41.709,35.2s-30.93-24.689-26.817-47.535,22.786-38.606,41.71-35.2S465.39,312.549,461.277,335.4Z" transform="translate(-373.243 -267.946)" fill="#d4860c"/>
        <path id="Path_2700" data-name="Path 2700" d="M460.005,335.514c-3.919,21.77-21.712,36.786-39.744,33.541s-29.472-23.525-25.553-45.3,21.712-36.787,39.745-33.541S463.924,313.743,460.005,335.514Z" transform="translate(-373.585 -268.355)" fill="#f0aa00"/>
        <g id="Group_1296" data-name="Group 1296" transform="translate(30.932 33.703)">
          <path id="Path_2701" data-name="Path 2701" d="M442.427,338.794a13.134,13.134,0,0,1-.2,5.2,13.589,13.589,0,0,1-2.465,5.649,11.631,11.631,0,0,1-4,3.3,13.881,13.881,0,0,1-4.958,1.354,22.347,22.347,0,0,1-5.39-.191l-1.529,7.123-4.66-1.046,1.555-7.242a39.174,39.174,0,0,1-7.634-3.38,34.038,34.038,0,0,1-6.432-4.716l7.051-8.97a36.377,36.377,0,0,0,2.973,2.642,33.811,33.811,0,0,0,3.2,2.292,20.379,20.379,0,0,0,3.882,1.952l1.113-5.18q-1.707-.876-3.371-1.928a31.378,31.378,0,0,1-4.279-3.091,13.237,13.237,0,0,1-2.729-3.206,9.166,9.166,0,0,1-1.217-3.574,12.72,12.72,0,0,1,.261-4.2,14.377,14.377,0,0,1,2.256-5.388,13.1,13.1,0,0,1,3.757-3.569,14.187,14.187,0,0,1,4.829-1.878,17.727,17.727,0,0,1,5.442-.2l1.277-5.946,4.659,1.046-1.289,6.006A29.722,29.722,0,0,1,438.1,313.2q1.7.879,3.231,1.867t2.835,2q1.31,1,2.407,1.867l-6.928,8.379a31.579,31.579,0,0,0-5.087-4.012,22.042,22.042,0,0,0-3.048-1.58l-1.137,5.3a10.36,10.36,0,0,1,1.036.572c.359.225.739.446,1.141.658a43.877,43.877,0,0,1,4.736,3.1,16.554,16.554,0,0,1,3.393,3.385A9.99,9.99,0,0,1,442.427,338.794Zm-13.514,4.679a1.531,1.531,0,0,0,.847-1.107,1.933,1.933,0,0,0-.389-1.6,6.673,6.673,0,0,0-1.629-1.508l-.935,4.357a3.775,3.775,0,0,0,2.106-.145m-1.353-18.14.961-4.474q-2.393-.229-2.758,1.479a1.971,1.971,0,0,0,.271,1.572,5.705,5.705,0,0,0,1.527,1.422" transform="translate(-406.709 -304.602)" fill="#da8100"/>
        </g>
        <g id="Group_1297" data-name="Group 1297" transform="translate(30.654 32.406)">
          <path id="Path_2702" data-name="Path 2702" d="M442.09,337.228a13.133,13.133,0,0,1-.2,5.2,13.6,13.6,0,0,1-2.466,5.649,11.615,11.615,0,0,1-4,3.3,13.877,13.877,0,0,1-4.957,1.354,22.3,22.3,0,0,1-5.39-.191l-1.53,7.124-4.659-1.047,1.555-7.242a39.032,39.032,0,0,1-7.634-3.38,34.043,34.043,0,0,1-6.433-4.715l7.052-8.97a36.094,36.094,0,0,0,2.973,2.642,33.79,33.79,0,0,0,3.2,2.292,20.439,20.439,0,0,0,3.883,1.952l1.112-5.181q-1.707-.876-3.37-1.928a31.4,31.4,0,0,1-4.279-3.09,13.234,13.234,0,0,1-2.729-3.206A9.171,9.171,0,0,1,413,324.215a12.745,12.745,0,0,1,.261-4.2,14.372,14.372,0,0,1,2.257-5.387,13.1,13.1,0,0,1,3.757-3.569,14.187,14.187,0,0,1,4.829-1.877,17.7,17.7,0,0,1,5.441-.2l1.277-5.946,4.66,1.047-1.29,6a29.871,29.871,0,0,1,3.574,1.543q1.7.878,3.231,1.867t2.836,2q1.31,1,2.407,1.866l-6.927,8.38a31.583,31.583,0,0,0-5.088-4.013,22.208,22.208,0,0,0-3.048-1.58l-1.138,5.3a10.2,10.2,0,0,1,1.036.572c.359.225.738.445,1.141.658a43.744,43.744,0,0,1,4.736,3.1,16.6,16.6,0,0,1,3.393,3.386A9.986,9.986,0,0,1,442.09,337.228Zm-13.513,4.679a1.533,1.533,0,0,0,.846-1.107,1.933,1.933,0,0,0-.388-1.6,6.7,6.7,0,0,0-1.629-1.508l-.936,4.357a3.8,3.8,0,0,0,2.107-.145m-1.354-18.14.96-4.473q-2.393-.229-2.758,1.479a1.966,1.966,0,0,0,.272,1.571,5.707,5.707,0,0,0,1.527,1.422" transform="translate(-406.373 -303.036)" fill="#fd0"/>
        </g>
      </g>
    </g>
  </g>
</svg>
