<svg xmlns="http://www.w3.org/2000/svg" width="91" height="87" viewBox="0 0 91 87">
  <g id="points" transform="translate(-75 -596)">
    <rect id="Rectangle_187" data-name="Rectangle 187" width="91" height="87" rx="18" transform="translate(75 596)" fill="#ffcdab" opacity="0.2"/>
    <g id="Vector_Smart_Object_copy_21" data-name="Vector Smart Object copy 21" transform="translate(101 620)">
      <rect id="Rectangle_3" data-name="Rectangle 3" width="11.654" height="19.348" transform="translate(4.037 17.672)" fill="#f9c08f" stroke="#000" stroke-miterlimit="10" stroke-width="0.076"/>
      <rect id="Rectangle_4" data-name="Rectangle 4" width="11.654" height="19.348" transform="translate(23.004 17.672)" fill="#f9c08f" stroke="#000" stroke-miterlimit="10" stroke-width="0.076"/>
      <g id="Group_368" data-name="Group 368">
        <g id="Group_367" data-name="Group 367">
          <path id="Path_225" data-name="Path 225" d="M35.572,9.141h-4.65A5.71,5.71,0,0,0,26.355,0a5.128,5.128,0,0,0-4.4,2.139A22.182,22.182,0,0,0,19.5,7.22a22.181,22.181,0,0,0-2.452-5.081A5.128,5.128,0,0,0,12.645,0,5.71,5.71,0,0,0,8.077,9.141H3.428A3.432,3.432,0,0,0,0,12.568v2.285a3.433,3.433,0,0,0,2.285,3.231V35.572A3.432,3.432,0,0,0,5.713,39H33.287a3.432,3.432,0,0,0,3.428-3.428V18.085A3.433,3.433,0,0,0,39,14.854V12.568A3.432,3.432,0,0,0,35.572,9.141ZM21.6,8.131c1.75-4.441,2.416-5.845,4.758-5.845a3.428,3.428,0,0,1,0,6.855H21.2C21.338,8.789,21.471,8.451,21.6,8.131ZM12.645,2.285c2.342,0,3.008,1.4,4.758,5.845.126.32.26.659.4,1.01H12.645a3.428,3.428,0,0,1,0-6.855Zm2.285,34.43H5.713A1.144,1.144,0,0,1,4.57,35.572V18.281H14.93ZM14.93,16H3.428a1.144,1.144,0,0,1-1.143-1.143V12.568a1.144,1.144,0,0,1,1.143-1.143h11.5Zm6.855,20.719h-4.57V11.426h4.57ZM34.43,35.572a1.144,1.144,0,0,1-1.143,1.143H24.07V18.281H34.43Zm2.285-20.719A1.144,1.144,0,0,1,35.572,16H24.07v-4.57h11.5a1.144,1.144,0,0,1,1.143,1.143Z" fill="#3e6177"/>
        </g>
      </g>
    </g>
  </g>
</svg>
