<svg id="Group_91" data-name="Group 91" xmlns="http://www.w3.org/2000/svg" width="54" height="54" viewBox="0 0 54 54">
  <path id="Path_1117" data-name="Path 1117" d="M48.25,41.5h-45A2.126,2.126,0,0,1,1,39.25v-27A2.126,2.126,0,0,1,3.25,10h45a2.126,2.126,0,0,1,2.25,2.25v27A2.126,2.126,0,0,1,48.25,41.5ZM5.5,37H46V14.5H5.5Z" transform="translate(1.25 12.5)" fill="#f9c08f"/>
  <path id="Path_1118" data-name="Path 1118" d="M51.75,19.5H2.25A2.126,2.126,0,0,1,0,17.25v-9A2.126,2.126,0,0,1,2.25,6h49.5A2.126,2.126,0,0,1,54,8.25v9A2.126,2.126,0,0,1,51.75,19.5ZM4.5,15h45V10.5H4.5Z" transform="translate(0 7.5)" fill="#f9c08f"/>
  <path id="Path_1119" data-name="Path 1119" d="M13.25,54A2.126,2.126,0,0,1,11,51.75v-36a2.126,2.126,0,0,1,2.25-2.25,2.126,2.126,0,0,1,2.25,2.25v36A2.126,2.126,0,0,1,13.25,54ZM20,18a2.126,2.126,0,0,1-2.25-2.25A2.126,2.126,0,0,1,20,13.5,4.5,4.5,0,1,0,15.5,9a2.126,2.126,0,0,1-2.25,2.25A2.126,2.126,0,0,1,11,9a9,9,0,1,1,9,9Z" transform="translate(13.75)" fill="#f9c08f"/>
  <path id="Path_1120" data-name="Path 1120" d="M14,18a9,9,0,1,1,9-9,2.126,2.126,0,0,1-2.25,2.25A2.126,2.126,0,0,1,18.5,9,4.5,4.5,0,1,0,14,13.5a2.126,2.126,0,0,1,2.25,2.25A2.126,2.126,0,0,1,14,18Z" transform="translate(6.25)" fill="#f9c08f"/>
  <path id="Path_1121" data-name="Path 1121" d="M13.25,18.75A2.126,2.126,0,0,1,11,16.5V5.25A2.126,2.126,0,0,1,13.25,3,2.126,2.126,0,0,1,15.5,5.25V16.5A2.126,2.126,0,0,1,13.25,18.75Z" transform="translate(13.75 3.75)" fill="#f9c08f"/>
</svg>
