<svg xmlns="http://www.w3.org/2000/svg" width="48.195" height="48.195" viewBox="0 0 48.195 48.195">
  <path id="Icon_material-person-outline" data-name="Icon material-person-outline" d="M30.1,11.723a6.326,6.326,0,1,1-6.326,6.326A6.325,6.325,0,0,1,30.1,11.723m0,27.11c8.946,0,18.374,4.4,18.374,6.326v3.313H11.723V45.158c0-1.928,9.428-6.326,18.374-6.326M30.1,6A12.049,12.049,0,1,0,42.146,18.049,12.045,12.045,0,0,0,30.1,6Zm0,27.11C22.055,33.11,6,37.146,6,45.158v9.037H54.195V45.158C54.195,37.146,38.14,33.11,30.1,33.11Z" transform="translate(-6 -6)" fill="#f9c08f"/>
</svg>
