<svg xmlns="http://www.w3.org/2000/svg" width="48.253" height="55.146" viewBox="0 0 48.253 55.146">
  <path id="Icon_metro-clipboard" data-name="Icon metro-clipboard" d="M51.028,8.821H35.518a6.893,6.893,0,0,0-13.787,0H6.222A1.723,1.723,0,0,0,4.5,10.545V55.351a1.723,1.723,0,0,0,1.723,1.723H51.028a1.723,1.723,0,0,0,1.723-1.723V10.545a1.723,1.723,0,0,0-1.723-1.723Zm-22.4-3.447a3.447,3.447,0,1,1-3.447,3.447A3.447,3.447,0,0,1,28.625,5.375ZM49.3,53.627H7.945V12.268h6.893v5.17a1.723,1.723,0,0,0,1.723,1.723H40.688a1.723,1.723,0,0,0,1.723-1.723v-5.17H49.3V53.627ZM25.178,48.162,14.125,35.385l3.151-3.151,7.9,6.179,14.8-13.073,3.151,3.151Z" transform="translate(-4.499 -1.928)" fill="#f9c08f"/>
</svg>
