<svg id="XMLID_378_" xmlns="http://www.w3.org/2000/svg" width="61" height="61" viewBox="0 0 61 61">
  <path id="XMLID_379_" d="M20.452,9.9H33.524a1.372,1.372,0,0,0,1.452-1.452A1.372,1.372,0,0,0,33.524,7H20.452A1.372,1.372,0,0,0,19,8.452,1.372,1.372,0,0,0,20.452,9.9Z" transform="translate(4.238 -1.19)" fill="#f9c08f"/>
  <path id="XMLID_380_" d="M22.262,37.9a1.452,1.452,0,1,0,0-2.9h-5.81a1.452,1.452,0,1,0,0,2.9Z" transform="translate(2.429 11.476)" fill="#f9c08f"/>
  <path id="XMLID_381_" d="M38.262,35h-5.81a1.452,1.452,0,1,0,0,2.9h5.81a1.452,1.452,0,0,0,0-2.9Z" transform="translate(9.667 11.476)" fill="#f9c08f"/>
  <path id="XMLID_382_" d="M16.452,13.9H45.5a1.372,1.372,0,0,0,1.452-1.452A1.372,1.372,0,0,0,45.5,11H16.452A1.372,1.372,0,0,0,15,12.452,1.372,1.372,0,0,0,16.452,13.9Z" transform="translate(2.429 0.619)" fill="#f9c08f"/>
  <path id="XMLID_383_" d="M16.452,17.9H45.5a1.372,1.372,0,0,0,1.452-1.452A1.372,1.372,0,0,0,45.5,15H16.452A1.372,1.372,0,0,0,15,16.452,1.372,1.372,0,0,0,16.452,17.9Z" transform="translate(2.429 2.429)" fill="#f9c08f"/>
  <path id="XMLID_384_" d="M16.452,21.9H45.5a1.452,1.452,0,1,0,0-2.9H16.452a1.452,1.452,0,0,0,0,2.9Z" transform="translate(2.429 4.238)" fill="#f9c08f"/>
  <path id="XMLID_385_" d="M16.452,25.9H45.5a1.452,1.452,0,1,0,0-2.9H16.452a1.452,1.452,0,0,0,0,2.9Z" transform="translate(2.429 6.048)" fill="#f9c08f"/>
  <path id="XMLID_386_" d="M16.452,29.9H45.5a1.452,1.452,0,1,0,0-2.9H16.452a1.452,1.452,0,0,0,0,2.9Z" transform="translate(2.429 7.857)" fill="#f9c08f"/>
  <path id="XMLID_405_" d="M16.452,33.9H45.5a1.452,1.452,0,0,0,0-2.9H16.452a1.452,1.452,0,0,0,0,2.9Z" transform="translate(2.429 9.667)" fill="#f9c08f"/>
  <path id="XMLID_462_" d="M62.548,55.286H58.19V10.262A7.191,7.191,0,0,0,50.929,3a1.109,1.109,0,0,0-.726.29A1.109,1.109,0,0,0,49.476,3H10.262A7.191,7.191,0,0,0,3,10.262a1.372,1.372,0,0,0,1.452,1.452H14.619V56.738A7.191,7.191,0,0,0,21.881,64H56.738A7.191,7.191,0,0,0,64,56.738,1.372,1.372,0,0,0,62.548,55.286ZM10.262,5.9a4.231,4.231,0,0,1,4.067,2.9H6.2A4.231,4.231,0,0,1,10.262,5.9Zm7.262,50.833V10.262A7.468,7.468,0,0,0,16.071,5.9h33.4a1.109,1.109,0,0,0,.726-.29,1.109,1.109,0,0,0,.726.29,4.279,4.279,0,0,1,4.357,4.357V55.286H27.69a1.372,1.372,0,0,0-1.452,1.452,4.357,4.357,0,1,1-8.714,0ZM56.738,61.1H27.69A7.486,7.486,0,0,0,29,58.19H60.8A4.231,4.231,0,0,1,56.738,61.1Z" transform="translate(-3 -3)" fill="#f9c08f"/>
</svg>
